<?xml version="1.0" standalone="no"?>
<!DOCTYPE svg PUBLIC "-//W3C//DTD SVG 1.1//EN" "http://www.w3.org/Graphics/SVG/1.1/DTD/svg11.dtd" >
<svg xmlns="http://www.w3.org/2000/svg">
<metadata></metadata>
<defs>
<font id="adoquinlight" horiz-adv-x="1351" >
<font-face units-per-em="2048" ascent="1536" descent="-512" />
<missing-glyph horiz-adv-x="372" />
<glyph unicode="&#xfb01;" horiz-adv-x="927" d="M-225 -352l61 53q52 -70 152 -70q97 0 152 54t55 161v1024h-123v84h123v283q0 136 77.5 218.5t208.5 82.5q143 0 228 -127q25 -35 71 -35v-119h-123v23q0 70 -44.5 124t-129.5 54q-91 0 -145.5 -57t-54.5 -162v-285h194v-84h-194v-1024q0 -135 -78.5 -217t-214.5 -82 q-66 0 -122.5 26t-92.5 75zM612 870v84q82 0 123 -35.5t41 -115.5v-803h-88v788q0 82 -76 82z" />
<glyph unicode="&#xfb02;" horiz-adv-x="1079" d="M-225 -352l61 51q52 -70 152 -70q97 0 152 55t55 162v1024h-123v84h123v248q0 138 78.5 219.5t213.5 81.5q64 0 119 -24t82 -60q12 49 53.5 84t108.5 35q89 0 135.5 -61.5t46.5 -155.5q0 -66 -13 -131.5t-41.5 -137.5t-83 -141.5t-130.5 -124.5v-581q0 -57 36.5 -95 t96.5 -38q46 0 92 37l41 -68q-59 -53 -135 -53q-105 0 -162 61t-57 158v1050q-4 78 -59.5 123t-124.5 45q-98 0 -153.5 -57t-55.5 -162v-252h196v-84h-196v-1024q0 -135 -78.5 -217t-214.5 -82q-66 0 -122.5 26t-92.5 75zM762 887q71 56 115 141.5t57.5 155t13.5 137.5 q0 60 -23 101.5t-73 41.5q-29 0 -49 -13t-28 -34t-10.5 -37t-2.5 -32v-461z" />
<glyph unicode="&#xfb03;" horiz-adv-x="1404" d="M-225 -352l61 53q57 -76 152 -76q96 0 151.5 56.5t55.5 164.5v1024h-123v84h123v250q0 134 82.5 216.5t214.5 82.5q75 0 132 -29t85 -73q31 64 96 100.5t153 36.5q143 0 228 -127q24 -35 71 -35v-119h-122v23q0 70 -44.5 124t-129.5 54q-92 0 -146.5 -57t-54.5 -162v-285 h153v-84h-155v-974q0 -135 -80 -218.5t-215 -83.5q-67 0 -128.5 27t-88.5 74q-32 -69 -97.5 -108.5t-158.5 -39.5q-66 0 -122.5 26t-92.5 75zM283 -150q0 -59 29 -99.5t67.5 -56.5t81.5 -16q97 0 154 55t57 161v976h-123v84h123v301q0 79 -50 123.5t-128 44.5 q-95 0 -153 -56.5t-58 -162.5v-250h141v-84h-141v-1020zM1090 870v84q82 0 122.5 -35.5t40.5 -115.5v-803h-88v788q0 82 -75 82z" />
<glyph unicode="&#xfb04;" horiz-adv-x="1544" d="M-225 -352l61 53q57 -76 152 -76q96 0 151.5 56.5t55.5 164.5v1024h-123v84h123v250q0 134 82.5 216.5t214.5 82.5q67 0 126 -29t89 -79q67 143 251 143q58 0 113 -22.5t92 -65.5q46 88 152 88q89 0 135.5 -61.5t46.5 -155.5q0 -66 -13 -131.5t-41.5 -137.5t-83 -141.5 t-130.5 -124.5v-581q0 -57 37 -95t96 -38q46 0 92 37l41 -68q-59 -53 -137 -53q-103 0 -160 61t-57 158v1104q-9 62 -58 104.5t-122 42.5q-93 0 -148 -55t-55 -162v-287h155v-84h-155v-974q0 -135 -80 -218.5t-215 -83.5q-67 0 -128.5 27t-88.5 74q-32 -69 -97.5 -108.5 t-158.5 -39.5q-66 0 -122.5 26t-92.5 75zM283 -150q0 -59 29 -99.5t67.5 -56.5t81.5 -16q97 0 154 55t57 161v976h-123v84h123v299q0 78 -53 124t-125 46q-95 0 -153 -56.5t-58 -162.5v-250h141v-84h-141v-1020zM1227 887q70 54 114 139.5t58 156.5t14 138q0 61 -22.5 102 t-73.5 41q-29 0 -48.5 -13t-27.5 -34t-11 -37t-3 -32v-461z" />
<glyph horiz-adv-x="0" />
<glyph horiz-adv-x="682" />
<glyph unicode="&#xd;" horiz-adv-x="489" />
<glyph unicode=" "  horiz-adv-x="372" />
<glyph unicode="&#x09;" horiz-adv-x="372" />
<glyph unicode="&#xa0;" horiz-adv-x="372" />
<glyph unicode="!" horiz-adv-x="376" d="M129 0v121h119v-121h-119zM137 1503h101l-15 -1190h-71z" />
<glyph unicode="&#x22;" horiz-adv-x="442" d="M109 1503h84l-5 -266h-73zM250 1503h84l-4 -266h-74z" />
<glyph unicode="#" horiz-adv-x="1210" d="M113 295v70h249l84 241h-221v70h244l102 278h93l-101 -278h232l102 278h92l-100 -278h209v-70h-234l-86 -241h209v-70h-231l-107 -295h-92l109 295h-236l-106 -295h-93l109 295h-227zM453 365h235l84 241h-233z" />
<glyph unicode="$" horiz-adv-x="1138" d="M98 264l82 41q55 -105 149 -165t212 -60q170 0 282.5 92.5t112.5 241.5q0 156 -98 246t-320 157q-171 50 -257.5 132t-86.5 218q0 134 98 226t240 106v107h88v-105q112 -9 201.5 -71t132.5 -160l-84 -37q-43 94 -121 138t-166 44q-129 0 -212 -73t-83 -175 q0 -100 70 -159.5t209 -100.5q254 -77 368.5 -192.5t114.5 -298.5q0 -170 -119 -287.5t-311 -134.5v-111h-88v109q-134 8 -245 79.5t-169 192.5z" />
<glyph unicode="%" horiz-adv-x="1218" d="M113 1294q0 103 55 161t141 58q104 0 158 -75q89 -107 238 -107q75 0 133.5 27.5t87.5 79.5l39 65h100l-848 -1503h-98l733 1300q-56 -38 -160 -38q-49 0 -102 16.5t-88 46.5q4 -24 4 -43q0 -107 -51.5 -160t-145.5 -53q-89 0 -142.5 59.5t-53.5 165.5zM184 1296 q0 -76 33.5 -114.5t91.5 -38.5q59 0 93 39t34 114q0 73 -34 110.5t-93 37.5q-57 0 -91 -37.5t-34 -110.5zM709 211q0 106 52.5 163.5t143.5 57.5q92 0 146.5 -58t54.5 -163q0 -108 -54 -165.5t-147 -57.5q-90 0 -143 59t-53 164zM780 213q0 -74 34.5 -113t90.5 -39 q58 0 92.5 39t34.5 113t-34.5 110.5t-92.5 36.5q-57 0 -91 -37t-34 -110z" />
<glyph unicode="&#x26;" horiz-adv-x="1425" d="M147 479q0 153 91 282.5t241 178.5q-74 39 -117 108t-43 156q0 131 95 221.5t233 90.5q71 0 134 -28t102 -79l-72 -47q-70 70 -164 70q-101 0 -169 -65.5t-68 -162.5t67.5 -162t169.5 -65q37 0 64 8l16 -74q-36 -20 -104 -20q-152 0 -266.5 -120.5t-114.5 -287.5 q0 -178 115.5 -290.5t291.5 -112.5t292 119t116 284q0 92 -48.5 143.5t-129.5 51.5q-77 0 -122.5 -50.5t-45.5 -123.5q0 -40 21 -76.5t56 -62.5l-57 -52q-46 32 -76 84.5t-30 110.5q0 104 71 178t181 74q56 0 102.5 -17t72.5 -37.5t61 -37.5t71 -17q103 0 145 107l72 -39 q-25 -63 -79.5 -108.5t-117.5 -45.5q-36 0 -69 13q14 -46 14 -103q0 -130 -67.5 -242.5t-183 -178.5t-249.5 -66q-217 0 -359.5 135t-142.5 356z" />
<glyph unicode="'" horiz-adv-x="301" d="M109 1503h84l-5 -266h-73z" />
<glyph unicode="(" horiz-adv-x="497" d="M113 707q0 214 1 305t7.5 212t21.5 185q23 102 89.5 166.5t152.5 73.5v-76q-55 -8 -96 -53.5t-58 -122.5q-14 -65 -20 -178.5t-7 -203t-1 -308.5q0 -220 1 -309t7 -202.5t20 -177.5q17 -77 58 -123.5t96 -54.5v-76q-86 9 -152 73.5t-90 168.5q-15 65 -21.5 181.5 t-7.5 208t-1 311.5z" />
<glyph unicode=")" horiz-adv-x="497" d="M113 -160q55 8 95.5 54.5t57.5 123.5q14 64 20.5 175t7.5 208t1 306t-1 306t-7.5 208t-20.5 176q-17 77 -57.5 122.5t-95.5 53.5v76q86 -9 152 -73t89 -167q15 -65 22 -183t8 -216.5t1 -302.5q0 -210 -1 -309t-8 -213t-22 -179q-24 -104 -89.5 -168.5t-151.5 -73.5v76z " />
<glyph unicode="*" horiz-adv-x="675" d="M113 1249v60l157 -4l-114 112l43 43l110 -119l-4 166h64l-4 -166l114 123l43 -43l-123 -116l164 4v-60l-164 2l121 -110l-43 -45l-112 118l4 -161h-64l4 161l-114 -118l-41 45l116 110z" />
<glyph unicode="+" horiz-adv-x="724" d="M113 659v68h215v221h67v-221h217v-68h-217v-219h-67v219h-215z" />
<glyph unicode="," horiz-adv-x="352" d="M109 -135q40 32 54.5 62.5t14.5 72.5h-51v115h117v-109q0 -126 -105 -190z" />
<glyph unicode="-" horiz-adv-x="671" d="M113 504v78h446v-78h-446z" />
<glyph unicode="." horiz-adv-x="327" d="M109 0v115h110v-115h-110z" />
<glyph unicode="/" horiz-adv-x="827" d="M0 0l733 1503h94l-735 -1503h-92z" />
<glyph unicode="0" horiz-adv-x="1337" d="M147 659v209q0 138 32.5 255t95 206.5t164 140t231.5 50.5q171 0 290 -87t174.5 -231.5t55.5 -333.5v-209q0 -145 -32.5 -266t-95 -212t-163 -142t-229.5 -51q-105 0 -191 33.5t-147 94t-103 144.5t-62 184.5t-20 214.5zM244 666q0 -125 26 -230.5t77 -186t133.5 -126 t189.5 -45.5q108 0 191 45.5t133.5 126t76 185.5t25.5 231v196q0 121 -25.5 221.5t-76 178.5t-133.5 121.5t-191 43.5q-107 0 -189.5 -43.5t-133.5 -121t-77 -179t-26 -221.5v-196z" />
<glyph unicode="1" horiz-adv-x="546" d="M68 1208v90q83 0 143.5 60.5t62.5 144.5h91v-1503h-93v1300q-74 -92 -204 -92z" />
<glyph unicode="2" horiz-adv-x="1036" d="M68 0l553 788q85 121 118 192t33 159q0 126 -85 207t-230 81q-81 0 -153.5 -41.5t-125.5 -111.5l-67 57q62 88 152 136.5t194 48.5q183 0 296 -98t113 -279q0 -99 -40.5 -185.5t-129.5 -212.5l-458 -649h682v-92h-852z" />
<glyph unicode="3" horiz-adv-x="1120" d="M92 246q6 3 36 21.5t36 21.5q61 -104 142.5 -160.5t209.5 -56.5q87 0 157.5 30.5t114.5 81.5t67.5 114t23.5 132v41q0 145 -117 247t-307 99l6 74q78 -7 152.5 27t123 99t51.5 142q6 48 -14 103q-29 77 -103 124.5t-167 47.5q-87 0 -146.5 -32.5t-111.5 -90.5l-62 59 q45 46 83 75t102.5 52t140.5 23q157 0 267 -96t110 -240q0 -107 -66.5 -196t-163.5 -126q139 -38 227 -143.5t89 -249.5v-20q0 -70 -17.5 -136.5t-54.5 -125.5t-89 -103t-127 -70t-163 -26q-292 0 -430 258z" />
<glyph unicode="4" horiz-adv-x="1005" d="M68 436v82l628 985h86v-977h156v-90h-156v-436h-92v436h-622zM174 526h516v809z" />
<glyph unicode="5" horiz-adv-x="1058" d="M92 209l78 47q110 -178 324 -178q166 0 260 104.5t94 263.5v33q0 162 -92 267.5t-260 105.5q-88 0 -147.5 -19.5t-108.5 -60.5l-84 12l69 719h606v-92h-526l-51 -532q94 63 244 63q188 0 314.5 -124t129.5 -339v-33q0 -125 -50.5 -227t-154 -165.5t-243.5 -63.5 q-81 0 -155 22t-141 72.5t-106 124.5z" />
<glyph unicode="6" horiz-adv-x="1218" d="M147 561q0 138 29.5 271t93.5 255t155 214t223 147t288 55v-92q-152 0 -278.5 -58t-211 -156.5t-136.5 -222.5t-66 -263q44 108 153.5 167.5t241.5 59.5q194 0 328.5 -138t134.5 -337t-135 -336t-332 -137q-149 0 -261 74t-169.5 203t-57.5 294zM252 463q0 -161 112 -273 t271 -112q154 0 261.5 112t107.5 273t-107 273t-262 112q-159 0 -271 -112t-112 -273z" />
<glyph unicode="7" horiz-adv-x="962" d="M68 1411v92h827v-84q-552 -651 -528 -1419h-95q0 401 127.5 747.5t388.5 663.5h-720z" />
<glyph unicode="8" horiz-adv-x="1157" d="M113 463q0 149 84 269.5t219 170.5q-77 36 -124.5 112t-47.5 169q0 138 98.5 235t239.5 97q137 0 237.5 -97.5t100.5 -234.5q0 -93 -49 -171t-126 -114q133 -48 216 -167.5t83 -268.5q0 -200 -134 -336.5t-328 -136.5q-196 0 -332.5 136.5t-136.5 336.5zM207 463 q0 -162 109 -272.5t266 -110.5t264.5 110.5t107.5 272.5q0 161 -106 273t-266 112t-267.5 -112.5t-107.5 -272.5zM334 1182q0 -104 72.5 -174t175.5 -70q105 0 176 70.5t71 173.5t-72 175.5t-175 72.5t-175.5 -72.5t-72.5 -175.5z" />
<glyph unicode="9" horiz-adv-x="1179" d="M92 1008v32q0 120 56.5 227t165.5 175.5t245 68.5q110 0 201 -41.5t149.5 -110t90.5 -155.5t32 -180v-51q0 -148 -24 -280t-81.5 -257t-145 -217t-223.5 -151.5t-308 -67.5v92q141 1 262.5 52.5t207.5 141.5t142.5 208t77.5 254q-56 -96 -152.5 -152.5t-230.5 -56.5 q-103 0 -191.5 39.5t-147.5 105t-92.5 150t-33.5 174.5zM184 1008q0 -69 25 -136t70.5 -122t118.5 -89t161 -34q75 0 139 22t108 59.5t74.5 87t45 103t14.5 109.5v34q0 55 -14.5 108t-45 101.5t-74.5 86t-108 59.5t-139 22q-87 0 -160 -33.5t-119 -88t-71 -121.5t-25 -136 v-32z" />
<glyph unicode=":" horiz-adv-x="327" d="M109 0v113h110v-113h-110zM109 817v113h110v-113h-110z" />
<glyph unicode=";" horiz-adv-x="352" d="M109 -135q40 32 54.5 62.5t14.5 72.5h-49v113h115v-107q0 -126 -105 -190zM131 817v113h111v-113h-111z" />
<glyph unicode="&#x3c;" horiz-adv-x="550" d="M94 694l322 258l43 -51l-264 -207l264 -207l-43 -53z" />
<glyph unicode="=" horiz-adv-x="675" d="M113 543v69h450v-69h-450zM113 774v68h450v-68h-450z" />
<glyph unicode="&#x3e;" horiz-adv-x="550" d="M94 487l262 207l-262 207l43 51l322 -258l-322 -260z" />
<glyph unicode="?" horiz-adv-x="940" d="M45 1329q61 87 161.5 131.5t207.5 44.5q204 0 328 -119.5t124 -318.5q0 -83 -24.5 -149.5t-63.5 -111.5t-86 -85t-94 -79.5t-86 -84t-63.5 -110t-24.5 -146.5h-92q0 93 24.5 168.5t63.5 125t86 91.5t93.5 79t85.5 77t63 96.5t24 126.5q0 162 -97.5 254t-260.5 92 q-187 0 -299 -145zM322 0v121h118v-121h-118z" />
<glyph unicode="@" horiz-adv-x="1253" d="M113 360v215q0 103 34 198t96.5 170.5t162 121t221.5 45.5q129 0 229.5 -43.5t161.5 -118.5t92 -169.5t31 -203.5v-237q0 -147 -39 -220t-129 -73q-58 0 -99 35.5t-47 99.5q-37 -80 -110 -122t-166 -42q-102 0 -167 63t-65 159q0 84 57 147t167 98q165 52 221.5 90.5 t56.5 122.5q0 71 -52.5 111.5t-133.5 40.5q-80 0 -135.5 -48t-59.5 -124l-69 10q7 103 82 169.5t182 66.5q115 0 189.5 -62.5t74.5 -167.5q0 -47 -13 -83t-35.5 -62.5t-65 -49.5t-88.5 -40t-119 -39q-86 -26 -130.5 -72t-44.5 -106q0 -67 43.5 -107.5t108.5 -40.5 q59 0 111.5 27.5t85.5 67t52 81.5t19 74v43h74v-186q0 -35 20.5 -60.5t53.5 -25.5q29 0 47.5 16t27.5 49t12 67t3 85v245q0 72 -13.5 136.5t-46 124.5t-81.5 103t-124 69t-169 26q-85 0 -156.5 -25.5t-122 -69t-86 -102t-52.5 -125t-17 -137.5v-215q0 -222 111 -337 t321 -115q162 0 270 86l37 -62q-127 -100 -307 -100q-249 0 -380.5 141t-131.5 387z" />
<glyph unicode="A" horiz-adv-x="1230" d="M68 0l505 1503h84l506 -1503h-98l-139 406h-625l-135 -406h-98zM332 498h567l-283 850z" />
<glyph unicode="B" horiz-adv-x="1226" d="M123 0v92q27 1 46 21t19 47v1186q0 26 -17.5 45t-47.5 20v92h450q182 0 298 -97.5t116 -250.5q0 -102 -49 -186t-137 -125q137 -39 223 -150t86 -256q0 -191 -133 -314.5t-326 -123.5h-528zM260 1411q23 -30 23 -65v-472h352q107 0 179.5 83t72.5 194q0 112 -80.5 186 t-220.5 74h-326zM262 92h391q146 0 251.5 99.5t105.5 244.5q0 147 -104 246.5t-255 99.5h-368v-622q0 -33 -21 -68z" />
<glyph unicode="C" horiz-adv-x="1204" d="M147 590v328q0 114 35.5 220t102.5 191t173.5 136t237.5 51q121 0 207.5 -38t155.5 -118l-68 -62q-108 125 -293 125q-108 0 -195.5 -43t-142.5 -114.5t-84.5 -161t-29.5 -186.5v-328q0 -97 33 -188.5t90.5 -163t143.5 -115t185 -43.5q105 0 183.5 34.5t142.5 106.5 l63 -65q-74 -86 -168 -127t-221 -41q-163 0 -291 87t-194 223.5t-66 291.5z" />
<glyph unicode="D" horiz-adv-x="1275" d="M123 0v92q27 1 46 21t19 47v1186q0 26 -17.5 45t-47.5 20v92h387q143 0 261.5 -53.5t195.5 -143.5t119 -206t42 -244v-229q0 -120 -37.5 -231t-107.5 -200t-181 -142.5t-247 -53.5h-432zM260 1411q23 -26 23 -65v-1186q0 -38 -21 -68h293q114 0 206.5 46t150 122 t88 170.5t30.5 196.5v229q0 105 -33 202.5t-95 177t-163 127.5t-227 48h-252z" />
<glyph unicode="E" horiz-adv-x="1103" d="M182 0v1503h789v-92h-692v-596h598v-92h-598v-631h708v-92h-805z" />
<glyph unicode="F" horiz-adv-x="1073" d="M182 0v1503h774v-92h-677v-596h516v-92h-516v-723h-97z" />
<glyph unicode="G" horiz-adv-x="1302" d="M147 588v325q0 116 35 222t101.5 192t176 137.5t247.5 51.5q269 0 403 -197l-76 -59q-52 77 -126.5 121t-198.5 44q-113 0 -203.5 -43.5t-146 -117t-84.5 -163.5t-29 -188v-327q3 -104 33.5 -194.5t86.5 -162t144.5 -112.5t200.5 -41q126 0 221.5 80.5t130.5 191.5v258 h-391v92h487v-698h-96v186q-107 -198 -358 -198q-129 0 -236.5 50.5t-176.5 134.5t-107 191.5t-38 223.5z" />
<glyph unicode="H" horiz-adv-x="1355" d="M182 0v1503h97v-688h798v688h97v-1503h-97v723h-798v-723h-97z" />
<glyph unicode="I" horiz-adv-x="460" d="M182 0v1503h97v-1503h-97z" />
<glyph unicode="J" horiz-adv-x="1024" d="M68 373h96q0 -131 89.5 -212t215.5 -81q140 0 227.5 98t87.5 283v1042h97v-1044q0 -225 -115 -348t-297 -123q-80 0 -152.5 27t-128 76t-88 122t-32.5 160z" />
<glyph unicode="K" horiz-adv-x="1222" d="M182 0v1503h97v-690h86q202 0 302.5 96t100.5 330v47q0 217 233 217v-92q-65 -2 -100 -29.5t-35 -107.5v-39q0 -154 -37 -247.5t-108 -149.5q152 -28 230.5 -140t78.5 -299v-180q0 -58 31 -92.5t94 -34.5v-92q-107 0 -164 53t-57 144v190q0 176 -78 277t-233 104 q-107 -47 -271 -47h-73v-721h-97z" />
<glyph unicode="L" horiz-adv-x="978" d="M182 0v1503h97v-1413h632v-90h-729z" />
<glyph unicode="M" horiz-adv-x="1501" d="M162 0v1503h76l510 -934l514 934h77v-1503h-96v1280l-495 -897l-490 895v-1278h-96z" />
<glyph unicode="N" horiz-adv-x="1294" d="M162 0v1503h80l794 -1298v1298h97v-1503h-82l-793 1300v-1300h-96z" />
<glyph unicode="O" d="M147 590v323q0 93 20 179.5t62.5 163.5t103 135t148.5 91.5t193 33.5q106 0 194.5 -32.5t150 -89.5t104 -134t62 -164t19.5 -183v-323q0 -117 -32.5 -222.5t-95 -191.5t-166.5 -137t-236 -51q-127 0 -228.5 47.5t-166 130t-98.5 191t-34 233.5zM246 590 q0 -79 15.5 -152.5t49.5 -139t83 -114.5t121 -77.5t159 -28.5q88 0 161 28.5t122.5 77t83.5 114.5t49.5 139.5t15.5 152.5v323q0 79 -15.5 151.5t-49 138.5t-83 114.5t-122.5 77t-162 28.5q-88 0 -160 -28.5t-121 -77t-82.5 -114.5t-49 -138.5t-15.5 -151.5v-323z" />
<glyph unicode="P" horiz-adv-x="1159" d="M123 0v92h65v1254q0 27 -17.5 45.5t-47.5 19.5v92h381q113 0 214.5 -32.5t182 -93.5t127.5 -159t47 -219q0 -124 -43 -223t-119.5 -162t-178 -96t-220.5 -33h-231v-393h65v-92h-225zM260 1411q23 -26 23 -65v-773h235q129 0 231 46t165 143.5t63 234.5q0 192 -129 303 t-328 111h-260z" />
<glyph unicode="Q" d="M147 590v325q0 92 19.5 178t61.5 163.5t102.5 135t149 91t194.5 33.5q108 0 196.5 -33t149.5 -89t103 -133t61.5 -164t19.5 -182v-325q0 -115 -31.5 -221.5t-101.5 -197.5t-170 -138q10 -67 43.5 -96t91.5 -29q31 0 62 25.5t49 62.5l67 -35q-22 -63 -73 -97t-113 -34 q-93 0 -143 43.5t-68 132.5q-65 -18 -149 -18q-126 0 -227 49t-164 133t-96.5 191.5t-33.5 228.5zM246 594q0 -147 53 -271.5t141 -181.5q-8 26 -8 50q0 60 46 111q63 73 165 73q61 0 107.5 -23t73.5 -62t41.5 -78.5t21.5 -84.5q110 61 164.5 187t54.5 280v319 q0 78 -15 150.5t-49 138.5t-83 114.5t-122.5 77.5t-162.5 29q-88 0 -160.5 -29t-121.5 -77.5t-82.5 -114.5t-48.5 -138.5t-15 -150.5v-319zM514 182q0 -108 156 -108q80 0 133 18q-6 41 -15.5 72t-27.5 63.5t-49.5 50t-75.5 17.5q-50 0 -85.5 -33t-35.5 -80z" />
<glyph unicode="R" horiz-adv-x="1220" d="M123 0v92h65v1254q0 27 -17.5 45.5t-47.5 19.5v92h412q111 0 209 -27t180.5 -81.5t131 -149t48.5 -217.5q0 -172 -79 -280.5t-210 -149.5q91 -17 141 -85.5t50 -164.5v-166q0 -52 24 -70t64 -20v-92q-93 0 -139 38.5t-46 121.5v172q0 101 -68.5 157t-187.5 56h-370v-453 h65v-92h-225zM260 1411q23 -23 23 -65v-713h290q69 0 130.5 14t116 44.5t94 76t62.5 112t23 148.5q0 101 -39 177t-105.5 119.5t-145.5 65t-168 21.5h-281z" />
<glyph unicode="S" horiz-adv-x="1204" d="M98 303l90 37q45 -121 154.5 -189.5t251.5 -68.5q171 0 286 96.5t115 251.5q0 44 -11.5 82t-29.5 67.5t-50.5 56.5t-65 47t-82.5 42t-93.5 37.5t-107.5 36.5q-59 19 -94 31.5t-82.5 32.5t-75 37.5t-58.5 44t-47 55t-27 67t-11 84.5q0 115 62.5 200t158.5 125t211 40 q138 0 250 -59.5t166 -162.5l-80 -47q-102 178 -334 178q-148 0 -241 -73t-93 -199q0 -104 81 -161q54 -38 211 -89q11 -4 36 -12q102 -33 170.5 -60.5t137.5 -67t109.5 -83.5t65.5 -106t25 -138q0 -198 -141 -323t-359 -125q-174 0 -306 79.5t-192 235.5z" />
<glyph unicode="T" horiz-adv-x="1077" d="M68 1411v92h942v-92h-422v-1411h-94v1411h-426z" />
<glyph unicode="U" horiz-adv-x="1337" d="M162 481v1022h98v-1018q0 -175 110.5 -289t297.5 -114q188 0 298.5 114t110.5 289v1018h99v-1022q0 -220 -141.5 -356.5t-366.5 -136.5q-223 0 -364.5 139.5t-141.5 353.5z" />
<glyph unicode="V" horiz-adv-x="1216" d="M68 1503h96l444 -1335l445 1335h96l-498 -1503h-84z" />
<glyph unicode="W" horiz-adv-x="1525" d="M68 1503h96l332 -1319l231 764h72l231 -764l330 1319h98l-389 -1503h-78l-229 778l-232 -778h-75z" />
<glyph unicode="X" horiz-adv-x="1148" d="M68 0l450 778l-424 725h107l372 -639l375 639h107l-424 -725l450 -778h-106l-402 684l-399 -684h-106z" />
<glyph unicode="Y" horiz-adv-x="1126" d="M68 1503h100l395 -747l395 747h101l-449 -850v-653h-98v653z" />
<glyph unicode="Z" horiz-adv-x="1122" d="M92 68l719 1343h-676v92h828l-740 -1386q77 22 154 22q71 0 184 -21.5t195 -21.5q111 0 209 58l41 -84q-109 -70 -248 -70q-90 0 -211.5 22.5t-188.5 22.5q-119 0 -229 -47z" />
<glyph unicode="[" horiz-adv-x="440" d="M113 -223v1857h215v-82h-127v-1693h127v-82h-215z" />
<glyph unicode="\" horiz-adv-x="821" d="M0 1503h92l729 -1503h-92z" />
<glyph unicode="]" horiz-adv-x="440" d="M113 -141h127v1693h-127v82h215v-1857h-215v82z" />
<glyph unicode="^" horiz-adv-x="686" d="M113 1194l178 236h102l178 -236h-79l-150 182l-149 -182h-80z" />
<glyph unicode="_" horiz-adv-x="933" d="M113 0h708v-80h-708v80z" />
<glyph unicode="`" horiz-adv-x="466" d="M115 1430h94l145 -312h-86z" />
<glyph unicode="a" horiz-adv-x="944" d="M102 221q0 209 242 275q18 5 55.5 14.5t60 15t57 17t56 21.5t46.5 26.5t39.5 34.5t24 42.5t9.5 53.5q0 88 -64.5 127t-166.5 39q-79 0 -142 -39t-96 -115l-80 35q40 95 126.5 148t191.5 53q144 0 231.5 -66t87.5 -186q0 -32 -8 -59.5t-19 -49.5t-34 -42.5t-40.5 -34 t-52 -29t-54.5 -24t-63 -21t-62.5 -18t-65.5 -17.5q-188 -50 -188 -199q0 -69 48 -112t126 -43q133 0 222 93.5t91 207.5v69h88v-252q0 -102 88 -102v-84q-170 0 -170 158v10q-38 -82 -123 -131t-201 -49q-123 0 -191.5 65t-68.5 168z" />
<glyph unicode="b" horiz-adv-x="976" d="M63 0v82q29 0 50 13.5t30.5 34.5t13 38t3.5 33v1140q0 92 47 144.5t127 52.5q90 0 137 -54.5t47 -140.5q0 -124 -65 -249.5t-205 -227.5v-65q42 73 116 120.5t160 47.5q83 0 148.5 -34t107 -93.5t63 -136.5t21.5 -166v-121q0 -109 -45 -205.5t-137 -160.5t-213 -64 q-64 0 -131.5 30t-106.5 84q-37 -102 -168 -102zM246 252q0 -59 65 -119.5t156 -60.5q143 0 225 102.5t82 243.5v121q0 52 -7.5 100t-26.5 93.5t-47.5 78.5t-73.5 53.5t-101 20.5q-112 0 -192 -99.5t-80 -224.5v-309zM246 963q100 78 144 182t44 198q0 50 -23.5 84.5 t-74.5 34.5q-29 0 -49 -12.5t-28 -33.5t-10.5 -36.5t-2.5 -31.5v-385z" />
<glyph unicode="c" horiz-adv-x="872" d="M113 418v123q0 81 26 156.5t74.5 136.5t126 98t172.5 37q176 0 270 -148l-67 -49q-31 53 -84 83t-121 30q-73 0 -133 -29.5t-97 -79t-57 -110t-20 -125.5v-123q0 -64 19 -124.5t55.5 -110.5t97.5 -80.5t137 -30.5q122 0 211 73l51 -67q-111 -90 -262 -90 q-186 0 -292.5 119.5t-106.5 310.5z" />
<glyph unicode="d" horiz-adv-x="999" d="M113 418v121q0 81 24 156.5t69 137.5t119.5 99t166.5 37q75 0 138.5 -27t96.5 -76v672l88 -12v-1331q0 -24 5.5 -46t28.5 -43.5t62 -21.5v-84q-83 0 -128.5 36t-53.5 101q-26 -62 -93 -105.5t-163 -43.5q-175 0 -267.5 118t-92.5 312zM205 418q0 -66 14.5 -124.5t45 -110 t86.5 -81.5t132 -30q47 0 88 19.5t68.5 50t47.5 68t29 73t9 65.5v340q0 67 -66 132t-161 65q-72 0 -129.5 -29.5t-92.5 -78.5t-53 -110t-18 -128v-121z" />
<glyph unicode="e" horiz-adv-x="882" d="M113 418v123q0 83 23.5 158t68.5 136t119.5 97.5t167.5 36.5q133 0 217 -77.5t84 -197.5q0 -105 -66 -165t-174 -60h-350v-68q0 -143 78.5 -236t230.5 -93q111 0 209 88l49 -68q-111 -104 -258 -104q-193 0 -296 120.5t-103 309.5zM203 547h329q78 0 125.5 41t47.5 112 q0 89 -59 137t-157 48q-134 0 -210 -92.5t-76 -245.5z" />
<glyph unicode="f" horiz-adv-x="477" d="M-225 -352l65 53q54 -72 148 -72q97 0 152 54.5t55 160.5v1026h-123v84h123v285q0 137 74.5 218t209.5 81q65 0 120 -22.5t87 -63.5l-55 -59q-57 63 -148 63q-96 0 -148 -54t-52 -161v-287h151v-84h-151v-1024q0 -135 -78.5 -217t-214.5 -82q-66 0 -122.5 26t-92.5 75z " />
<glyph unicode="g" horiz-adv-x="960" d="M96 -164q0 54 33 108t90 85l60 -43q-52 -28 -74.5 -68.5t-22.5 -77.5q0 -93 79 -155t206 -62q134 0 213.5 54t79.5 161q0 88 -64.5 139.5t-218.5 61.5q-16 1 -47 3q-46 3 -68.5 4.5t-60 6t-56.5 11t-44 18.5t-37 28t-20.5 39.5t-8.5 53.5q0 40 29.5 74.5t79.5 44.5 q-146 105 -146 274v25q0 150 102.5 249t270.5 99q172 0 266 -97q13 40 53 61t93 21v-82q-39 0 -61.5 -20t-22.5 -57q47 -79 47 -174v-25q-3 -149 -106 -247.5t-269 -98.5q-71 0 -141 24q-11 2 -21 2q-35 0 -61 -19q-35 -24 -35 -54q0 -14 4 -25.5t13 -19.5t19 -14t27.5 -10 t31.5 -6.5t37.5 -4t40 -2.5t45 -2t46.5 -2q106 -6 181 -31t114 -64.5t55.5 -83t16.5 -98.5q0 -144 -101.5 -218.5t-275.5 -74.5q-165 0 -268 80.5t-103 208.5zM184 598q3 -116 82.5 -190t204.5 -74q126 0 205.5 74t81.5 190v25q0 120 -79 192t-208 72q-127 0 -207 -72.5 t-80 -191.5v-25z" />
<glyph unicode="h" horiz-adv-x="1032" d="M160 0v1341q0 92 47 144.5t127 52.5q90 0 137 -55.5t47 -141.5q0 -123 -65 -245.5t-205 -221.5v-122q36 96 124 156.5t201 60.5q140 0 217.5 -83.5t77.5 -217.5v-488q0 -54 24.5 -75t51.5 -21v-84q-164 0 -164 168v500q0 100 -59 158.5t-154 58.5q-85 0 -150 -42 t-100 -108.5t-52 -136.5t-17 -139v-459h-88zM246 969q99 79 143.5 179.5t44.5 192.5q0 51 -22.5 86t-73.5 35q-29 0 -49.5 -13t-28.5 -33.5t-11 -36t-3 -31.5v-379z" />
<glyph unicode="i" horiz-adv-x="423" d="M111 870v84q82 0 122.5 -35.5t40.5 -115.5v-803h-88v788q0 82 -75 82zM156 1257v119h120v-119h-120z" />
<glyph unicode="j" horiz-adv-x="430" d="M-72 -211q0 77 22.5 155t84.5 167.5t158 154.5v525q0 40 -17.5 59.5t-58.5 19.5v84q164 0 164 -151v-1059q0 -90 -47.5 -143.5t-127.5 -53.5q-89 0 -133.5 65.5t-44.5 176.5zM12 -211q0 -73 23 -119.5t74 -46.5q86 0 86 117v428q-53 -39 -91.5 -90.5t-57 -104 t-26.5 -97.5t-8 -87zM164 1260v116h119v-116h-119z" />
<glyph unicode="k" horiz-adv-x="897" d="M160 0v1341q0 92 47 144.5t127 52.5q89 0 135.5 -61t46.5 -156q0 -60 -13.5 -121.5t-42.5 -127.5t-83.5 -130.5t-128.5 -116.5v-301q75 2 132 15.5t105 43.5t73.5 85t25.5 133q0 75 50 114t142 39v-84q-52 0 -78 -19.5t-26 -66.5q0 -115 -60 -190q78 -20 121 -83.5 t43 -158.5v-172q0 -55 25.5 -75.5t52.5 -20.5v-84q-83 0 -126.5 45.5t-43.5 122.5v184q0 78 -35.5 126t-101.5 57q-54 -49 -125.5 -68.5t-173.5 -24.5v-442h-88zM246 922q99 78 142.5 189.5t43.5 209.5q0 60 -22.5 99.5t-73.5 39.5q-29 0 -49 -12.5t-28 -33t-10.5 -35.5 t-2.5 -31v-426z" />
<glyph unicode="l" horiz-adv-x="552" d="M150 207v1134q0 92 47 144.5t127 52.5q89 0 135.5 -61.5t46.5 -155.5q0 -66 -13 -131.5t-41.5 -137.5t-83 -141.5t-130.5 -124.5v-581q0 -57 37 -95t96 -38q46 0 92 37l41 -68q-59 -53 -137 -53q-103 0 -160 61t-57 158zM236 887q70 54 114 139.5t58 156.5t14 138 q0 61 -22.5 102t-73.5 41q-29 0 -48.5 -13t-27.5 -34t-11 -37t-3 -32v-461z" />
<glyph unicode="m" horiz-adv-x="1622" d="M111 872v82q68 0 114.5 -38.5t46.5 -96.5v-53q34 85 114.5 144t193.5 59q105 0 176 -52t98 -141q31 81 115.5 137t193.5 56q138 0 216.5 -84t78.5 -217v-488q0 -54 24.5 -75t51.5 -21v-84q-164 0 -164 168v500q0 101 -56.5 159t-156.5 58q-49 0 -90.5 -13t-70 -34 t-51 -49.5t-36 -56.5t-22.5 -58t-12.5 -51t-4.5 -39v-404q0 -54 24.5 -75t51.5 -21v-84q-164 0 -164 168v500q0 101 -56.5 159t-152.5 58q-61 0 -110 -21.5t-80.5 -61t-54 -87.5t-34 -108t-16 -114.5t-4.5 -115.5v-377h-88v774q0 42 -17.5 70t-57.5 28z" />
<glyph unicode="n" horiz-adv-x="1062" d="M111 872v82q68 0 114.5 -38.5t46.5 -96.5v-78q36 102 120 165t208 63q141 0 220 -84t79 -217v-488q0 -54 24.5 -75t51.5 -21v-84q-164 0 -164 168v500q0 100 -59 158.5t-154 58.5q-78 0 -137.5 -32t-94 -81.5t-56 -120t-29 -135.5t-7.5 -139v-377h-88v774q0 42 -17.5 70 t-57.5 28z" />
<glyph unicode="o" horiz-adv-x="972" d="M113 408v139q0 82 22 156t66 134.5t117.5 96t168.5 35.5q93 0 165.5 -33t117.5 -91.5t67.5 -134t22.5 -163.5v-139q0 -83 -21.5 -156.5t-65 -133.5t-117.5 -95t-169 -35q-178 0 -276 118t-98 302zM203 412q0 -52 9 -99.5t30.5 -92t53.5 -77t81 -52t110 -19.5 q73 0 129 28.5t88.5 77.5t49 108t16.5 126v131q0 66 -15.5 124t-47 108.5t-88.5 80t-132 29.5q-72 0 -128 -28.5t-89 -77t-50 -108.5t-17 -128v-131z" />
<glyph unicode="p" horiz-adv-x="1001" d="M111 870v84q67 0 112 -38t45 -95v-14q29 69 98.5 115.5t159.5 46.5q119 0 202 -57t122 -152t39 -221v-121q0 -81 -25.5 -157t-73.5 -137.5t-123.5 -98.5t-168.5 -37q-158 0 -224 90v-531h-88v1225q0 42 -17.5 70t-57.5 28zM274 240q0 -59 62 -113.5t156 -54.5 q96 0 167 51.5t104.5 129.5t33.5 169v115q0 66 -15 125t-46 110.5t-87 82t-131 30.5q-59 0 -107.5 -31t-77 -77.5t-44 -94.5t-15.5 -88v-354z" />
<glyph unicode="q" horiz-adv-x="962" d="M113 418v121q0 82 25.5 157.5t73 137t124.5 98.5t172 37q88 0 174 -22.5t133 -57.5v-1342h-88v592q-37 -66 -104.5 -108.5t-149.5 -42.5q-177 0 -268.5 118t-91.5 312zM205 418q0 -66 14.5 -125t45 -110.5t86.5 -82t132 -30.5q55 0 102.5 28t77.5 70.5t47 89t17 86.5v494 q-79 51 -219 51q-96 0 -167 -53t-103.5 -131t-32.5 -166v-121z" />
<glyph unicode="r" horiz-adv-x="675" d="M111 870v84q83 0 120 -44.5t37 -112.5v-35q34 92 115.5 142t204.5 50h18v-84h-22q-58 0 -105 -17.5t-78.5 -46t-55.5 -72t-37 -87.5t-21 -100.5t-10.5 -104t-2.5 -104.5v-338h-88v772q0 42 -18 70t-57 28z" />
<glyph unicode="s" horiz-adv-x="915" d="M98 193l78 38q27 -73 105.5 -116t177.5 -43q49 0 94 11t85 34t63.5 65t23.5 99q0 89 -64 137t-210 86q-18 5 -55.5 14t-56.5 14t-50.5 15t-48.5 19.5t-38.5 25.5t-32 33.5t-18.5 42.5t-8 55q0 112 90.5 179t227.5 67q108 0 187.5 -41t119.5 -109l-68 -47 q-73 113 -235 113q-106 0 -172 -43t-66 -117q0 -24 9 -42.5t21.5 -30t42 -22.5t52.5 -17.5t71 -18.5q31 -8 48 -12q67 -17 110.5 -31t92 -38.5t76 -53.5t45.5 -74t18 -102q0 -137 -100.5 -216t-255.5 -79q-128 0 -225.5 54.5t-133.5 150.5z" />
<glyph unicode="t" horiz-adv-x="681" d="M160 283v931l88 13v-273h272v-84h-272v-589q0 -95 52 -152t151 -57q75 0 137 55l45 -70q-78 -69 -187 -69q-143 0 -214.5 80.5t-71.5 214.5z" />
<glyph unicode="u" horiz-adv-x="1011" d="M78 870v84q164 0 164 -168v-499q0 -100 59 -158.5t154 -58.5q73 0 128.5 32t88 82t52.5 120t27 135t7 139v376h88v-774q0 -42 18 -70t58 -28v-82q-68 0 -115 38.5t-47 96.5v78q-33 -109 -110.5 -168t-196.5 -59q-141 0 -220 84t-79 217v487q0 54 -24.5 75t-51.5 21z" />
<glyph unicode="v" horiz-adv-x="868" d="M33 870v84q68 0 106 -25.5t56 -80.5l235 -707l301 813h92l-360 -954h-70l-278 807q-21 63 -82 63z" />
<glyph unicode="w" horiz-adv-x="1357" d="M33 870v84q65 0 101 -26t56 -80l254 -703l215 549l-18 56q-17 51 -74 51v78q117 0 152 -107l209 -627l295 809h92l-357 -954h-61l-199 575l-225 -575h-61l-293 809q-22 61 -86 61z" />
<glyph unicode="x" horiz-adv-x="806" d="M33 0v84q32 0 53 11t45 50l217 347l-289 462h97l245 -391l246 391h96l-292 -462l311 -492h-98l-263 416l-200 -318q-36 -59 -72.5 -78.5t-95.5 -19.5z" />
<glyph unicode="y" horiz-adv-x="874" d="M-10 -354l55 55q16 -30 45.5 -50t63.5 -20q42 0 76 20.5t49 57.5l110 299l-268 805q-19 57 -80 57v84q69 0 107.5 -25.5t56.5 -80.5l229 -723l297 829h98l-467 -1257q-56 -150 -204 -150q-53 0 -97 26.5t-71 72.5z" />
<glyph unicode="z" horiz-adv-x="745" d="M33 63l471 807h-430v84h577l-501 -854q70 19 120 19q58 0 137 -16.5t123 -16.5q85 0 138 31l32 -80q-67 -37 -165 -37q-59 0 -144 16.5t-133 16.5q-27 0 -55 -3.5t-45 -7t-48.5 -11.5t-43.5 -11z" />
<glyph unicode="{" horiz-adv-x="530" d="M113 664v75q38 1 66 14t44.5 32t26.5 47t13 54.5t3 59.5q0 99 -13 264.5t-13 251.5q0 79 45 128.5t133 49.5v-73q-44 0 -67 -30.5t-23 -76.5q0 -81 15 -253t15 -259q0 -95 -28.5 -154.5t-87.5 -93.5q116 -64 116 -247q0 -85 -15 -256t-15 -254q0 -45 23 -75t67 -30v-76 q-88 0 -133 50.5t-45 128.5q0 87 13 251.5t13 262.5q0 42 -6 74t-21 64t-47 50.5t-79 20.5z" />
<glyph unicode="|" horiz-adv-x="305" d="M113 0v1503h77v-1503h-77z" />
<glyph unicode="}" horiz-adv-x="530" d="M113 -162q44 0 67 30t23 75q0 82 -15.5 253.5t-15.5 256.5q0 183 117 247q-60 34 -88.5 93.5t-28.5 154.5q0 87 15.5 259t15.5 253q0 46 -23 76.5t-67 30.5v73q88 0 133 -49.5t45 -128.5q0 -86 -13.5 -251.5t-13.5 -264.5q0 -41 6 -73.5t21.5 -64t47.5 -50t79 -19.5v-75 q-47 -2 -79 -20.5t-47.5 -50t-21.5 -64.5t-6 -74q0 -98 13.5 -262.5t13.5 -251.5q0 -78 -45 -128.5t-133 -50.5v76z" />
<glyph unicode="~" horiz-adv-x="862" d="M113 1241q0 80 56 123t126 43q45 0 85.5 -15.5t65.5 -33.5t59 -33.5t68 -15.5q42 0 75 24t34 60h68q0 -71 -50.5 -117.5t-124.5 -46.5q-45 0 -85.5 15t-65.5 33t-60 33t-69 15q-42 0 -74 -24t-33 -60h-75z" />
<glyph unicode="&#xa1;" horiz-adv-x="372" d="M127 836v118h119v-118h-119zM135 -549l12 1192h74l12 -1192h-98z" />
<glyph unicode="&#xa2;" horiz-adv-x="872" d="M113 418v123q0 99 36 186.5t112.5 152.5t180.5 83v73h86v-71q172 -9 254 -144l-67 -51q-57 102 -187 111v-807q117 6 195 78l51 -74q-98 -82 -246 -88v-66h-86v70q-155 21 -242 137t-87 287zM203 418q0 -122 61.5 -219.5t177.5 -122.5v803q-76 -15 -131.5 -67.5 t-81.5 -122.5t-26 -148v-123z" />
<glyph unicode="&#xa3;" horiz-adv-x="1075" d="M102 59q47 45 69.5 67.5t57.5 60.5t51.5 65t35 63.5t25.5 74.5t7 81q0 89 -29 168h-118v80h94q-8 23 -31 78.5t-36.5 93t-25.5 105t-12 141.5q0 92 50 180t139 145.5t192 57.5q196 0 316 -138l-60 -65q-104 113 -254 113q-116 0 -203 -84.5t-87 -206.5q0 -102 27 -199.5 t83 -220.5h217v-80h-186q22 -90 22 -158q0 -79 -26.5 -148.5t-61 -114t-90.5 -99.5q80 41 174 41q65 0 121 -19.5t109 -39t110 -19.5q58 0 105 29t47 79h78q0 -93 -65.5 -147.5t-158.5 -54.5q-60 0 -110.5 12.5t-81 27.5t-77.5 27.5t-99 12.5q-57 0 -125.5 -19.5 t-108.5 -38.5l-39 -20z" />
<glyph unicode="&#xa5;" horiz-adv-x="1021" d="M68 1503h94l350 -737l346 737h96l-376 -798h174v-82h-193v-84h193v-82h-193v-375h78v-82h-248v82h76v375h-197v82h197v84h-197v82h174z" />
<glyph unicode="&#xa6;" horiz-adv-x="305" d="M113 0v659h77v-659h-77zM113 842v661h77v-661h-77z" />
<glyph unicode="&#xa7;" horiz-adv-x="925" d="M113 674q0 101 55 170.5t149 99.5q-66 20 -106.5 67.5t-40.5 121.5q0 100 86.5 164.5t216.5 64.5q113 0 194 -51t107 -158l-72 -16q-11 46 -36 79t-58 49.5t-66 23.5t-69 7q-95 0 -160 -47t-65 -121q0 -63 50.5 -107t170.5 -50q91 -5 159.5 -31.5t107.5 -68t58 -90.5 t19 -105q0 -104 -55.5 -173.5t-149.5 -96.5q67 -22 107.5 -69.5t40.5 -119.5q0 -100 -86.5 -164.5t-216.5 -64.5q-113 0 -194 51t-107 158l75 18q15 -58 53.5 -95t81 -50t91.5 -13q96 0 160.5 44.5t64.5 119.5q0 29 -10 54t-33 48.5t-67.5 38t-106.5 17.5q-92 5 -161 31.5 t-109 68.5t-59 91t-19 104zM190 674q0 -101 74.5 -162t200.5 -61q52 0 97.5 11.5t85 36t62.5 70t23 107.5q0 102 -72 162.5t-196 60.5q-52 0 -98 -11.5t-87 -36t-65.5 -70t-24.5 -107.5z" />
<glyph unicode="&#xa8;" horiz-adv-x="696" d="M113 1227v102h104v-102h-104zM479 1227v102h105v-102h-105z" />
<glyph unicode="&#xa9;" horiz-adv-x="1681" d="M109 721q0 112 33.5 220t98.5 199.5t153 161.5t204 110t244 40q147 0 281.5 -56t233.5 -152t157.5 -233t58.5 -290q0 -142 -53.5 -274.5t-147 -234t-232 -163t-298.5 -61.5q-148 0 -282.5 56.5t-233.5 153.5t-158 233.5t-59 289.5zM186 721q0 -178 88 -330t239 -241 t329 -89t328.5 89t237.5 241t87 330q0 133 -51.5 254.5t-139 209.5t-208.5 140.5t-254 52.5q-178 0 -329 -88.5t-239 -240t-88 -328.5zM420 618v199q0 85 28 166t79.5 145.5t132.5 104t178 39.5q88 0 166 -36.5t133 -100.5l-58 -52q-90 111 -241 111q-79 0 -144 -32 t-105.5 -85.5t-62.5 -120.5t-22 -139v-199q0 -99 37.5 -182.5t115.5 -137.5t183 -54q90 0 159 37t109 100l55 -51q-47 -76 -131 -120t-192 -44q-127 0 -224.5 64t-146.5 165.5t-49 222.5z" />
<glyph unicode="&#xaa;" horiz-adv-x="559" d="M70 1092q0 120 135 157q6 2 31 7.5t35.5 9l31.5 10.5t31.5 14.5t23 18t18 24.5t5.5 31q0 40 -29 64t-84 24q-38 0 -71.5 -22.5t-51.5 -63.5l-57 20q22 60 71.5 91.5t108.5 31.5q86 0 130 -40t44 -111v-285q0 -49 50 -49v-63q-93 0 -107 75q-54 -80 -164 -80 q-73 0 -112 37.5t-39 98.5zM137 1092q0 -34 24 -56t62 -22q64 0 111 44.5t47 104.5v94q-52 -44 -154 -67q-44 -9 -67 -35t-23 -63z" />
<glyph unicode="&#xab;" horiz-adv-x="813" d="M102 637l324 258l43 -51l-264 -209l264 -205l-43 -53zM344 637l322 258l43 -51l-263 -209l263 -205l-43 -53z" />
<glyph unicode="&#xad;" horiz-adv-x="671" d="M113 504v78h446v-78h-446z" />
<glyph unicode="&#xae;" horiz-adv-x="854" d="M70 1245q0 148 103.5 253.5t254.5 105.5q148 0 253 -105t105 -254q0 -147 -104 -252.5t-254 -105.5q-149 0 -253.5 104.5t-104.5 253.5zM131 1245q0 -123 86.5 -210t210.5 -87q79 0 137 37q-36 1 -53.5 28.5t-17.5 59.5v23q0 38 -19.5 54.5t-64.5 16.5h-70v-149h-59v467 h129q80 0 135 -41t55 -119q0 -52 -29.5 -86t-74.5 -47q59 -20 59 -94v-21q0 -25 13.5 -39t33.5 -14q26 0 39 16q84 84 84 205q0 123 -87 210t-210 87q-124 0 -210.5 -87t-86.5 -210zM340 1223h70q57 0 93 25t36 77q0 51 -37 76.5t-92 25.5h-70v-204z" />
<glyph unicode="&#xaf;" horiz-adv-x="636" d="M113 1239v74h411v-74h-411z" />
<glyph unicode="&#xb0;" horiz-adv-x="471" d="M41 1319q0 82 56.5 138t138.5 56q80 0 137 -56.5t57 -137.5q0 -80 -57.5 -137.5t-136.5 -57.5q-81 0 -138 57.5t-57 137.5zM115 1319q0 -51 35 -87t86 -36t85.5 36t34.5 87t-34.5 88t-85.5 37t-86 -37t-35 -88z" />
<glyph unicode="&#xb1;" horiz-adv-x="686" d="M113 401v68h460v-68h-460zM113 719v65h194v205h70v-205h196v-65h-196v-199h-70v199h-194z" />
<glyph unicode="&#xb2;" horiz-adv-x="567" d="M115 975l149 221q7 9 22 29.5t22 30t18.5 26t17 26t12 22t9 22t2.5 18.5q0 40 -26.5 62t-66.5 22q-42 0 -75 -41l-47 35q44 65 124 65q63 0 108.5 -37.5t45.5 -105.5q0 -25 -17 -61t-33.5 -59.5t-56.5 -78.5q-11 -15 -16 -22l-80 -113h228v-61h-340z" />
<glyph unicode="&#xb3;" horiz-adv-x="550" d="M113 1040l47 37q38 -53 102 -53q53 0 83 33t30 78q0 42 -32.5 72t-88.5 30v53q37 2 63.5 26t26.5 56q0 34 -25.5 58t-62.5 24q-38 0 -63 -29l-39 41q35 47 106 47q62 0 104 -39.5t42 -95.5q0 -71 -60 -108q43 -14 67.5 -53.5t24.5 -83.5q0 -69 -46.5 -117.5t-129.5 -48.5 q-101 0 -149 73z" />
<glyph unicode="&#xb4;" horiz-adv-x="466" d="M92 1118l144 312h92l-154 -312h-82z" />
<glyph unicode="&#xb6;" horiz-adv-x="958" d="M74 1157q0 146 99.5 246t242.5 100h125v-690h-125q-142 0 -242 100.5t-100 243.5zM578 0v1503h77v-1503h-77zM739 145v1213q0 64 37 104.5t109 40.5v-69q-8 0 -17.5 -3t-22 -11.5t-20.5 -28t-8 -48.5v-1183q0 -49 21 -68.5t47 -19.5v-72q-73 0 -109.5 40t-36.5 105z" />
<glyph unicode="&#xb7;" horiz-adv-x="327" d="M109 598v109h110v-109h-110z" />
<glyph unicode="&#xb8;" horiz-adv-x="413" d="M33 -328l63 27q9 -37 38 -59.5t65 -22.5q40 0 67 27t27 67q0 32 -14.5 54t-35.5 34.5t-41.5 25.5t-35 35t-14.5 54q0 58 48 87.5t109 31.5v-41q-33 -3 -56.5 -21.5t-23.5 -46.5q0 -18 15 -32.5t36 -27t42 -28.5t36 -47t15 -74q0 -71 -49.5 -119.5t-122.5 -48.5 q-61 0 -109.5 34.5t-58.5 90.5z" />
<glyph unicode="&#xb9;" horiz-adv-x="368" d="M113 1362v59q34 0 60 25t26 57h61v-528h-65v414q-39 -27 -82 -27z" />
<glyph unicode="&#xba;" horiz-adv-x="552" d="M74 1202v72q0 46 11.5 86.5t34.5 74.5t64 54t95 20q99 0 149.5 -66t50.5 -169v-72q0 -100 -49 -166.5t-151 -66.5q-100 0 -152.5 64.5t-52.5 168.5zM143 1202q0 -74 32 -124t104 -50q67 0 100 50.5t33 123.5v72q0 72 -31 122t-102 50q-70 0 -103 -50t-33 -122v-72z" />
<glyph unicode="&#xbb;" horiz-adv-x="813" d="M102 430l265 205l-265 209l43 51l324 -258l-324 -260zM344 430l264 205l-264 209l43 51l322 -258l-322 -260z" />
<glyph unicode="&#xbc;" horiz-adv-x="1249" d="M111 0l882 1503h74l-883 -1503h-73zM172 1362v59q32 0 57 25t25 57h61v-528h-63v414q-39 -27 -80 -27zM688 135v53l230 340h59v-338h47v-55h-47v-135h-64v135h-225zM756 190h157v236z" />
<glyph unicode="&#xbd;" horiz-adv-x="1249" d="M111 0l882 1503h74l-883 -1503h-73zM176 1362v59q32 0 58 25t26 57h62v-528h-66v414q-39 -27 -80 -27zM723 0l151 219q6 9 28 39.5t29.5 42.5t21 33t18 35t4.5 26q0 39 -26.5 61.5t-63.5 22.5q-47 0 -78 -39l-47 37q52 62 125 62q64 0 108.5 -38.5t44.5 -105.5 q0 -18 -6 -36.5t-20 -43t-25.5 -41.5t-35.5 -51l-36 -51l-79 -111h227v-61h-340z" />
<glyph unicode="&#xbe;" horiz-adv-x="1249" d="M111 0l882 1503h74l-883 -1503h-73zM137 1040l49 37q35 -53 101 -53q54 0 83 33t29 78q0 43 -31.5 72.5t-88.5 29.5v53q37 2 64.5 26t27.5 56q0 34 -25.5 58t-62.5 24q-41 0 -66 -29l-39 41q38 47 109 47q62 0 103.5 -39.5t41.5 -95.5q0 -72 -59 -108q42 -14 66 -53.5 t24 -83.5q0 -69 -46.5 -117.5t-129.5 -48.5q-99 0 -150 73zM692 135v53l230 340h61v-338h45v-55h-45v-135h-63v135h-228zM760 190h160v236z" />
<glyph unicode="&#xbf;" horiz-adv-x="872" d="M74 -113q0 83 24.5 149.5t63.5 111.5t86 85t94 79.5t86 84t63.5 110t24.5 146.5h92q0 -93 -24.5 -168.5t-63.5 -125t-86 -91.5t-93.5 -79t-85.5 -77t-63 -96.5t-24 -126.5q0 -162 97.5 -254t260.5 -92q186 0 299 146l70 -64q-61 -87 -161.5 -131.5t-207.5 -44.5 q-204 0 -328 119.5t-124 318.5zM500 834v120h118v-120h-118z" />
<glyph unicode="&#xc0;" horiz-adv-x="1230" d="M68 0l505 1503h84l506 -1503h-98l-139 406h-625l-135 -406h-98zM332 498h567l-283 850zM410 1974h94l145 -311h-86z" />
<glyph unicode="&#xc1;" horiz-adv-x="1230" d="M68 0l505 1503h84l506 -1503h-98l-139 406h-625l-135 -406h-98zM332 498h567l-283 850zM582 1661l143 311h92l-153 -311h-82z" />
<glyph unicode="&#xc2;" horiz-adv-x="1230" d="M68 0l505 1503h84l506 -1503h-98l-139 406h-625l-135 -406h-98zM332 498h567l-283 850zM352 1663l215 311h101l215 -311h-90l-175 248l-176 -248h-90z" />
<glyph unicode="&#xc3;" horiz-adv-x="1230" d="M68 0l505 1503h84l506 -1503h-98l-139 406h-625l-135 -406h-98zM303 1745q0 78 52.5 118t115.5 40q40 0 82 -16t72 -34.5t70.5 -34.5t78.5 -16q34 0 59.5 24t26.5 62h70q0 -70 -44.5 -116t-109.5 -46q-46 0 -92 16t-76.5 34.5t-68 34.5t-68.5 16q-37 0 -64 -22.5 t-28 -59.5h-76zM332 498h567l-283 850z" />
<glyph unicode="&#xc4;" horiz-adv-x="1230" d="M68 0l505 1503h84l506 -1503h-98l-139 406h-625l-135 -406h-98zM332 498h567l-283 850zM381 1774v102h104v-102h-104zM748 1774v102h104v-102h-104z" />
<glyph unicode="&#xc5;" horiz-adv-x="1230" d="M68 0l505 1503h84l506 -1503h-98l-139 406h-625l-135 -406h-98zM332 498h567l-283 850zM453 1825q0 68 48.5 115t116.5 47q69 0 116.5 -46.5t47.5 -115.5q0 -67 -48 -115.5t-116 -48.5q-67 0 -116 49t-49 115zM520 1825q0 -40 29 -69.5t69 -29.5q41 0 69 29.5t28 69.5 q0 43 -28 71.5t-69 28.5q-40 0 -69 -29t-29 -71z" />
<glyph unicode="&#xc6;" horiz-adv-x="1687" d="M68 0l680 1503h808v-92h-692v-596h596v-92h-596v-631h707v-92h-805v406h-412l-184 -406h-102zM393 496h373v825z" />
<glyph unicode="&#xc7;" horiz-adv-x="1204" d="M147 590v328q0 114 35.5 220t102.5 191t173.5 136t237.5 51q121 0 207.5 -38t155.5 -118l-68 -62q-108 125 -293 125q-108 0 -195.5 -43t-142.5 -114.5t-84.5 -161t-29.5 -186.5v-328q0 -97 33 -188.5t90.5 -163t143.5 -115t185 -43.5q105 0 183.5 34.5t142.5 106.5 l63 -65q-74 -86 -168 -127t-221 -41q-8 0 -23 1t-22 1q42 39 125 43v-41q-33 -3 -56.5 -21.5t-23.5 -46.5q0 -18 15 -32.5t36 -27t42 -28.5t36 -47t15 -74q0 -71 -49.5 -119.5t-122.5 -48.5q-61 0 -109.5 34.5t-58.5 90.5l63 27q9 -37 38 -59.5t65 -22.5q40 0 67 27t27 67 q0 32 -14.5 54t-35 34.5t-41.5 25.5t-35.5 35t-14.5 54q0 47 32 76q-114 9 -210.5 62.5t-160.5 136t-99.5 186.5t-35.5 215z" />
<glyph unicode="&#xc8;" horiz-adv-x="1103" d="M182 0v1503h789v-92h-692v-596h598v-92h-598v-631h708v-92h-805zM383 1972h94l146 -311h-86z" />
<glyph unicode="&#xc9;" horiz-adv-x="1103" d="M182 0v1503h789v-92h-692v-596h598v-92h-598v-631h708v-92h-805zM539 1661l143 311h92l-153 -311h-82z" />
<glyph unicode="&#xca;" horiz-adv-x="1103" d="M182 0v1503h789v-92h-692v-596h598v-92h-598v-631h708v-92h-805zM301 1661l215 311h100l215 -311h-90l-174 248l-176 -248h-90z" />
<glyph unicode="&#xcb;" horiz-adv-x="1103" d="M182 0v1503h789v-92h-692v-596h598v-92h-598v-631h708v-92h-805zM326 1774v102h104v-102h-104zM692 1774v102h105v-102h-105z" />
<glyph unicode="&#xcc;" horiz-adv-x="460" d="M31 1972h94l145 -311h-86zM182 0v1503h97v-1503h-97z" />
<glyph unicode="&#xcd;" horiz-adv-x="460" d="M182 0v1503h97v-1503h-97zM193 1661l143 311h92l-154 -311h-81z" />
<glyph unicode="&#xce;" horiz-adv-x="460" d="M-31 1661l215 311h101l215 -311h-90l-174 248l-177 -248h-90zM182 0v1503h97v-1503h-97z" />
<glyph unicode="&#xcf;" horiz-adv-x="460" d="M-2 1774v102h104v-102h-104zM182 0v1503h97v-1503h-97zM365 1774v102h104v-102h-104z" />
<glyph unicode="&#xd0;" horiz-adv-x="1275" d="M123 0v92q27 1 46 21t19 47v561h-63v78h63v547q0 26 -17.5 45t-47.5 20v92h387q143 0 261.5 -53.5t195.5 -143.5t119 -206t42 -244v-229q0 -120 -37.5 -231t-107.5 -200t-181 -142.5t-247 -53.5h-432zM260 1411q23 -26 23 -65v-547h247v-78h-247v-561q0 -38 -21 -68h293 q114 0 206.5 46t150 122t88 170.5t30.5 196.5v229q0 105 -33 202.5t-95 177t-163 127.5t-227 48h-252z" />
<glyph unicode="&#xd1;" horiz-adv-x="1294" d="M162 0v1503h80l794 -1298v1298h97v-1503h-82l-793 1300v-1300h-96zM313 1743q0 78 52.5 118t115.5 40q40 0 82 -16t72 -34.5t70.5 -34.5t78.5 -16q34 0 59.5 24t26.5 62h70q0 -70 -44.5 -116t-109.5 -46q-46 0 -92 16t-76.5 34.5t-68 34.5t-68.5 16q-37 0 -64 -22.5 t-28 -59.5h-76z" />
<glyph unicode="&#xd2;" d="M147 590v323q0 93 20 179.5t62.5 163.5t103 135t148.5 91.5t193 33.5q106 0 194.5 -32.5t150 -89.5t104 -134t62 -164t19.5 -183v-323q0 -117 -32.5 -222.5t-95 -191.5t-166.5 -137t-236 -51q-127 0 -228.5 47.5t-166 130t-98.5 191t-34 233.5zM246 590 q0 -79 15.5 -152.5t49.5 -139t83 -114.5t121 -77.5t159 -28.5q88 0 161 28.5t122.5 77t83.5 114.5t49.5 139.5t15.5 152.5v323q0 79 -15.5 151.5t-49 138.5t-83 114.5t-122.5 77t-162 28.5q-88 0 -160 -28.5t-121 -77t-82.5 -114.5t-49 -138.5t-15.5 -151.5v-323zM449 1972 h94l145 -311h-86z" />
<glyph unicode="&#xd3;" d="M147 590v323q0 93 20 179.5t62.5 163.5t103 135t148.5 91.5t193 33.5q106 0 194.5 -32.5t150 -89.5t104 -134t62 -164t19.5 -183v-323q0 -117 -32.5 -222.5t-95 -191.5t-166.5 -137t-236 -51q-127 0 -228.5 47.5t-166 130t-98.5 191t-34 233.5zM246 590 q0 -79 15.5 -152.5t49.5 -139t83 -114.5t121 -77.5t159 -28.5q88 0 161 28.5t122.5 77t83.5 114.5t49.5 139.5t15.5 152.5v323q0 79 -15.5 151.5t-49 138.5t-83 114.5t-122.5 77t-162 28.5q-88 0 -160 -28.5t-121 -77t-82.5 -114.5t-49 -138.5t-15.5 -151.5v-323zM623 1661 l143 311h92l-153 -311h-82z" />
<glyph unicode="&#xd4;" d="M147 590v323q0 93 20 179.5t62.5 163.5t103 135t148.5 91.5t193 33.5q106 0 194.5 -32.5t150 -89.5t104 -134t62 -164t19.5 -183v-323q0 -117 -32.5 -222.5t-95 -191.5t-166.5 -137t-236 -51q-127 0 -228.5 47.5t-166 130t-98.5 191t-34 233.5zM246 590 q0 -79 15.5 -152.5t49.5 -139t83 -114.5t121 -77.5t159 -28.5q88 0 161 28.5t122.5 77t83.5 114.5t49.5 139.5t15.5 152.5v323q0 79 -15.5 151.5t-49 138.5t-83 114.5t-122.5 77t-162 28.5q-88 0 -160 -28.5t-121 -77t-82.5 -114.5t-49 -138.5t-15.5 -151.5v-323zM408 1661 l215 311h100l215 -311h-90l-174 248l-176 -248h-90z" />
<glyph unicode="&#xd5;" d="M147 590v323q0 93 20 179.5t62.5 163.5t103 135t148.5 91.5t193 33.5q106 0 194.5 -32.5t150 -89.5t104 -134t62 -164t19.5 -183v-323q0 -117 -32.5 -222.5t-95 -191.5t-166.5 -137t-236 -51q-127 0 -228.5 47.5t-166 130t-98.5 191t-34 233.5zM246 590 q0 -79 15.5 -152.5t49.5 -139t83 -114.5t121 -77.5t159 -28.5q88 0 161 28.5t122.5 77t83.5 114.5t49.5 139.5t15.5 152.5v323q0 79 -15.5 151.5t-49 138.5t-83 114.5t-122.5 77t-162 28.5q-88 0 -160 -28.5t-121 -77t-82.5 -114.5t-49 -138.5t-15.5 -151.5v-323zM346 1743 q0 78 52.5 118t115.5 40q40 0 82 -16t72 -34.5t70.5 -34.5t78.5 -16q34 0 59.5 24t26.5 62h70q0 -70 -44.5 -116t-109.5 -46q-46 0 -92 16t-76.5 34.5t-68 34.5t-68.5 16q-37 0 -64 -22.5t-28 -59.5h-76z" />
<glyph unicode="&#xd6;" d="M147 590v323q0 93 20 179.5t62.5 163.5t103 135t148.5 91.5t193 33.5q106 0 194.5 -32.5t150 -89.5t104 -134t62 -164t19.5 -183v-323q0 -117 -32.5 -222.5t-95 -191.5t-166.5 -137t-236 -51q-127 0 -228.5 47.5t-166 130t-98.5 191t-34 233.5zM246 590 q0 -79 15.5 -152.5t49.5 -139t83 -114.5t121 -77.5t159 -28.5q88 0 161 28.5t122.5 77t83.5 114.5t49.5 139.5t15.5 152.5v323q0 79 -15.5 151.5t-49 138.5t-83 114.5t-122.5 77t-162 28.5q-88 0 -160 -28.5t-121 -77t-82.5 -114.5t-49 -138.5t-15.5 -151.5v-323zM434 1774 v102h105v-102h-105zM801 1774v102h104v-102h-104z" />
<glyph unicode="&#xd7;" horiz-adv-x="649" d="M82 502l194 192l-192 187l49 51l193 -191l196 193l47 -51l-192 -189l188 -188l-47 -49l-192 186l-197 -192z" />
<glyph unicode="&#xd8;" d="M147 590v323q0 93 20 179.5t62.5 163.5t103 135t148.5 91.5t193 33.5q166 0 291 -84l36 71h111l-70 -135q80 -81 121 -201t41 -254v-323q0 -117 -32.5 -222.5t-95 -191.5t-166.5 -137t-236 -51q-173 0 -295 86l-37 -74h-111l70 137q-154 168 -154 453zM246 590 q0 -219 106 -354l510 997l58 115q-101 75 -246 75q-88 0 -160 -28.5t-121 -77t-82.5 -114.5t-49 -138.5t-15.5 -151.5v-323zM424 160q101 -82 250 -82q88 0 161 28.5t122.5 77t83.5 114.5t49.5 139.5t15.5 152.5v323q0 221 -113 357z" />
<glyph unicode="&#xd9;" horiz-adv-x="1337" d="M162 481v1022h98v-1018q0 -175 110.5 -289t297.5 -114q188 0 298.5 114t110.5 289v1018h99v-1022q0 -220 -141.5 -356.5t-366.5 -136.5q-223 0 -364.5 139.5t-141.5 353.5zM467 1972h94l146 -311h-86z" />
<glyph unicode="&#xda;" horiz-adv-x="1337" d="M162 481v1022h98v-1018q0 -175 110.5 -289t297.5 -114q188 0 298.5 114t110.5 289v1018h99v-1022q0 -220 -141.5 -356.5t-366.5 -136.5q-223 0 -364.5 139.5t-141.5 353.5zM621 1661l143 311h92l-154 -311h-81z" />
<glyph unicode="&#xdb;" horiz-adv-x="1337" d="M162 481v1022h98v-1018q0 -175 110.5 -289t297.5 -114q188 0 298.5 114t110.5 289v1018h99v-1022q0 -220 -141.5 -356.5t-366.5 -136.5q-223 0 -364.5 139.5t-141.5 353.5zM403 1661l215 311h101l215 -311h-90l-174 248l-176 -248h-91z" />
<glyph unicode="&#xdc;" horiz-adv-x="1337" d="M162 481v1022h98v-1018q0 -175 110.5 -289t297.5 -114q188 0 298.5 114t110.5 289v1018h99v-1022q0 -220 -141.5 -356.5t-366.5 -136.5q-223 0 -364.5 139.5t-141.5 353.5zM430 1774v102h105v-102h-105zM797 1774v102h104v-102h-104z" />
<glyph unicode="&#xdd;" horiz-adv-x="1126" d="M68 1503h100l395 -747l395 747h101l-449 -850v-653h-98v653zM518 1661l144 311h92l-154 -311h-82z" />
<glyph unicode="&#xde;" horiz-adv-x="1198" d="M182 0v1503h97v-207h217q90 0 176 -21t164 -64.5t136.5 -105.5t93 -151t34.5 -194q0 -161 -83.5 -285.5t-220 -189t-300.5 -64.5h-217v-221h-97zM279 311h217q96 0 184 28.5t159.5 82.5t114.5 141.5t43 196.5q0 107 -43 194t-114.5 141t-159.5 82.5t-184 28.5h-217v-895z " />
<glyph unicode="&#xdf;" horiz-adv-x="1077" d="M63 0v84q16 0 33 3.5t37.5 12.5t33.5 29t13 49v692h-94v84h94v269q0 133 90 223t228 90q144 0 226.5 -89.5t82.5 -205.5q0 -67 -20.5 -119t-53.5 -84.5t-73 -58.5t-79.5 -48t-72.5 -45t-53.5 -57.5t-20.5 -78.5q0 -32 8 -55.5t31 -47.5t69 -44t117 -36q306 -68 306 -288 q0 -135 -99 -213t-250 -78q-114 0 -191.5 51.5t-113.5 136.5l74 45q29 -74 83.5 -111.5t145.5 -37.5q119 0 188.5 55.5t69.5 148.5q0 155 -231 207q-158 36 -225.5 95t-67.5 170q0 59 20.5 105.5t53 76t72 54t78.5 48t71.5 50t53 67t20.5 92.5q0 83 -56 146t-163 63 q-111 0 -169.5 -66t-58.5 -161v-1055q0 -82 -54.5 -125t-152.5 -43z" />
<glyph unicode="&#xe0;" horiz-adv-x="944" d="M102 221q0 209 242 275q18 5 55.5 14.5t60 15t57 17t56 21.5t46.5 26.5t39.5 34.5t24 42.5t9.5 53.5q0 88 -64.5 127t-166.5 39q-79 0 -142 -39t-96 -115l-80 35q40 95 126.5 148t191.5 53q144 0 231.5 -66t87.5 -186q0 -32 -8 -59.5t-19 -49.5t-34 -42.5t-40.5 -34 t-52 -29t-54.5 -24t-63 -21t-62.5 -18t-65.5 -17.5q-188 -50 -188 -199q0 -69 48 -112t126 -43q133 0 222 93.5t91 207.5v69h88v-252q0 -102 88 -102v-84q-170 0 -170 158v10q-38 -82 -123 -131t-201 -49q-123 0 -191.5 65t-68.5 168zM262 1430h94l146 -312h-86z" />
<glyph unicode="&#xe1;" horiz-adv-x="944" d="M102 221q0 209 242 275q18 5 55.5 14.5t60 15t57 17t56 21.5t46.5 26.5t39.5 34.5t24 42.5t9.5 53.5q0 88 -64.5 127t-166.5 39q-79 0 -142 -39t-96 -115l-80 35q40 95 126.5 148t191.5 53q144 0 231.5 -66t87.5 -186q0 -32 -8 -59.5t-19 -49.5t-34 -42.5t-40.5 -34 t-52 -29t-54.5 -24t-63 -21t-62.5 -18t-65.5 -17.5q-188 -50 -188 -199q0 -69 48 -112t126 -43q133 0 222 93.5t91 207.5v69h88v-252q0 -102 88 -102v-84q-170 0 -170 158v10q-38 -82 -123 -131t-201 -49q-123 0 -191.5 65t-68.5 168zM424 1118l143 312h92l-153 -312h-82z " />
<glyph unicode="&#xe2;" horiz-adv-x="944" d="M102 221q0 209 242 275q18 5 55.5 14.5t60 15t57 17t56 21.5t46.5 26.5t39.5 34.5t24 42.5t9.5 53.5q0 88 -64.5 127t-166.5 39q-79 0 -142 -39t-96 -115l-80 35q40 95 126.5 148t191.5 53q144 0 231.5 -66t87.5 -186q0 -32 -8 -59.5t-19 -49.5t-34 -42.5t-40.5 -34 t-52 -29t-54.5 -24t-63 -21t-62.5 -18t-65.5 -17.5q-188 -50 -188 -199q0 -69 48 -112t126 -43q133 0 222 93.5t91 207.5v69h88v-252q0 -102 88 -102v-84q-170 0 -170 158v10q-38 -82 -123 -131t-201 -49q-123 0 -191.5 65t-68.5 168zM199 1118l215 312h100l215 -312h-90 l-174 248l-176 -248h-90z" />
<glyph unicode="&#xe3;" horiz-adv-x="944" d="M102 221q0 209 242 275q18 5 55.5 14.5t60 15t57 17t56 21.5t46.5 26.5t39.5 34.5t24 42.5t9.5 53.5q0 88 -64.5 127t-166.5 39q-79 0 -142 -39t-96 -115l-80 35q40 95 126.5 148t191.5 53q144 0 231.5 -66t87.5 -186q0 -32 -8 -59.5t-19 -49.5t-34 -42.5t-40.5 -34 t-52 -29t-54.5 -24t-63 -21t-62.5 -18t-65.5 -17.5q-188 -50 -188 -199q0 -69 48 -112t126 -43q133 0 222 93.5t91 207.5v69h88v-252q0 -102 88 -102v-84q-170 0 -170 158v10q-38 -82 -123 -131t-201 -49q-123 0 -191.5 65t-68.5 168zM129 1153q0 78 52.5 118t115.5 40 q40 0 82 -16t72 -34.5t70.5 -34.5t78.5 -16q34 0 59.5 24t26.5 62h70q0 -70 -44.5 -115.5t-109.5 -45.5q-58 0 -114.5 25t-104.5 50t-86 25q-37 0 -64 -22.5t-28 -59.5h-76z" />
<glyph unicode="&#xe4;" horiz-adv-x="944" d="M102 221q0 209 242 275q18 5 55.5 14.5t60 15t57 17t56 21.5t46.5 26.5t39.5 34.5t24 42.5t9.5 53.5q0 88 -64.5 127t-166.5 39q-79 0 -142 -39t-96 -115l-80 35q40 95 126.5 148t191.5 53q144 0 231.5 -66t87.5 -186q0 -32 -8 -59.5t-19 -49.5t-34 -42.5t-40.5 -34 t-52 -29t-54.5 -24t-63 -21t-62.5 -18t-65.5 -17.5q-188 -50 -188 -199q0 -69 48 -112t126 -43q133 0 222 93.5t91 207.5v69h88v-252q0 -102 88 -102v-84q-170 0 -170 158v10q-38 -82 -123 -131t-201 -49q-123 0 -191.5 65t-68.5 168zM209 1257v103h104v-103h-104zM575 1257 v103h105v-103h-105z" />
<glyph unicode="&#xe5;" horiz-adv-x="944" d="M102 221q0 209 242 275q18 5 55.5 14.5t60 15t57 17t56 21.5t46.5 26.5t39.5 34.5t24 42.5t9.5 53.5q0 88 -64.5 127t-166.5 39q-79 0 -142 -39t-96 -115l-80 35q40 95 126.5 148t191.5 53q144 0 231.5 -66t87.5 -186q0 -32 -8 -59.5t-19 -49.5t-34 -42.5t-40.5 -34 t-52 -29t-54.5 -24t-63 -21t-62.5 -18t-65.5 -17.5q-188 -50 -188 -199q0 -69 48 -112t126 -43q133 0 222 93.5t91 207.5v69h88v-252q0 -102 88 -102v-84q-170 0 -170 158v10q-38 -82 -123 -131t-201 -49q-123 0 -191.5 65t-68.5 168zM289 1282q0 68 49 115t117 47 q69 0 116 -46.5t47 -115.5q0 -67 -47.5 -115.5t-115.5 -48.5q-67 0 -116.5 49t-49.5 115zM356 1282q0 -40 29.5 -69t69.5 -29q41 0 68.5 29t27.5 69q0 43 -27.5 71.5t-68.5 28.5q-40 0 -69.5 -29t-29.5 -71z" />
<glyph unicode="&#xe6;" horiz-adv-x="1439" d="M102 221q0 209 242 275q18 5 55.5 14.5t60 15t57 17t56 21.5t46.5 26.5t39.5 34.5t24 42.5t9.5 53.5q0 88 -64.5 127t-166.5 39q-79 0 -142 -39t-96 -115l-80 35q40 95 126.5 148t191.5 53t182.5 -37t112.5 -107q102 144 293 144q133 0 217 -77.5t84 -197.5 q0 -105 -66 -165t-174 -60h-350v-68q0 -143 78.5 -236t230.5 -93q111 0 209 88l49 -68q-111 -104 -258 -104q-133 0 -224 59.5t-136 163.5q-36 -94 -130.5 -158.5t-216.5 -64.5q-123 0 -191.5 65t-68.5 168zM193 223q0 -69 48 -112t126 -43q62 0 113 20t85.5 53t58.5 76.5 t35 89.5t11 92v19v106q-36 -23 -92 -43.5t-87.5 -29.5t-109.5 -29q-188 -50 -188 -199zM760 547h330q78 0 125 41t47 112q0 89 -58.5 137t-156.5 48q-102 0 -171.5 -54.5t-97.5 -150.5q-2 -14 -10 -37q-8 -41 -8 -96z" />
<glyph unicode="&#xe7;" horiz-adv-x="872" d="M113 418v123q0 81 26 156.5t74.5 136.5t126 98t172.5 37q176 0 270 -148l-67 -49q-31 53 -84 83t-121 30q-73 0 -133 -29.5t-97 -79t-57 -110t-20 -125.5v-123q0 -64 19 -124.5t55.5 -110.5t97.5 -80.5t137 -30.5q122 0 211 73l51 -67q-85 -69 -194 -84v-2 q-33 -3 -56.5 -21.5t-23.5 -46.5q0 -22 22.5 -40t49 -32t49 -49.5t22.5 -87.5q0 -71 -49.5 -119.5t-122.5 -48.5q-61 0 -109.5 34.5t-58.5 90.5l64 27q9 -37 37.5 -59.5t64.5 -22.5q40 0 67 27t27 67q0 32 -14.5 54t-35.5 34.5t-41.5 25.5t-35 35t-14.5 54q0 46 35 78 q-162 17 -253 133.5t-91 292.5z" />
<glyph unicode="&#xe8;" horiz-adv-x="882" d="M113 418v123q0 83 23.5 158t68.5 136t119.5 97.5t167.5 36.5q133 0 217 -77.5t84 -197.5q0 -105 -66 -165t-174 -60h-350v-68q0 -143 78.5 -236t230.5 -93q111 0 209 88l49 -68q-111 -104 -258 -104q-193 0 -296 120.5t-103 309.5zM203 547h329q78 0 125.5 41t47.5 112 q0 89 -59 137t-157 48q-134 0 -210 -92.5t-76 -245.5zM272 1430h95l145 -312h-86z" />
<glyph unicode="&#xe9;" horiz-adv-x="882" d="M113 418v123q0 83 23.5 158t68.5 136t119.5 97.5t167.5 36.5q133 0 217 -77.5t84 -197.5q0 -105 -66 -165t-174 -60h-350v-68q0 -143 78.5 -236t230.5 -93q111 0 209 88l49 -68q-111 -104 -258 -104q-193 0 -296 120.5t-103 309.5zM203 547h329q78 0 125.5 41t47.5 112 q0 89 -59 137t-157 48q-134 0 -210 -92.5t-76 -245.5zM438 1118l144 312h92l-154 -312h-82z" />
<glyph unicode="&#xea;" horiz-adv-x="882" d="M113 418v123q0 83 23.5 158t68.5 136t119.5 97.5t167.5 36.5q133 0 217 -77.5t84 -197.5q0 -105 -66 -165t-174 -60h-350v-68q0 -143 78.5 -236t230.5 -93q111 0 209 88l49 -68q-111 -104 -258 -104q-193 0 -296 120.5t-103 309.5zM203 547h329q78 0 125.5 41t47.5 112 q0 89 -59 137t-157 48q-134 0 -210 -92.5t-76 -245.5zM205 1118l215 312h100l215 -312h-90l-174 248l-176 -248h-90z" />
<glyph unicode="&#xeb;" horiz-adv-x="882" d="M113 418v123q0 83 23.5 158t68.5 136t119.5 97.5t167.5 36.5q133 0 217 -77.5t84 -197.5q0 -105 -66 -165t-174 -60h-350v-68q0 -143 78.5 -236t230.5 -93q111 0 209 88l49 -68q-111 -104 -258 -104q-193 0 -296 120.5t-103 309.5zM203 547h329q78 0 125.5 41t47.5 112 q0 89 -59 137t-157 48q-134 0 -210 -92.5t-76 -245.5zM225 1257v103h105v-103h-105zM592 1257v103h104v-103h-104z" />
<glyph unicode="&#xec;" horiz-adv-x="421" d="M2 1430h94l146 -312h-86zM111 870v84q79 0 121 -44t42 -126v-784h-88v772q0 42 -17.5 70t-57.5 28z" />
<glyph unicode="&#xed;" horiz-adv-x="421" d="M111 870v84q79 0 121 -44t42 -126v-784h-88v772q0 42 -17.5 70t-57.5 28zM170 1118l143 312h93l-154 -312h-82z" />
<glyph unicode="&#xee;" horiz-adv-x="421" d="M-61 1118l215 312h100l215 -312h-90l-174 248l-176 -248h-90zM111 870v84q79 0 121 -44t42 -126v-784h-88v772q0 42 -17.5 70t-57.5 28z" />
<glyph unicode="&#xef;" horiz-adv-x="421" d="M-43 1231v102h104v-102h-104zM111 870v84q79 0 121 -44t42 -126v-784h-88v772q0 42 -17.5 70t-57.5 28zM324 1231v102h104v-102h-104z" />
<glyph unicode="&#xf0;" horiz-adv-x="972" d="M113 408v135q0 83 22 157t66 134t117.5 95.5t168.5 35.5q94 0 171 -38t116 -106q-13 142 -58 259.5t-110 195.5l-184 -125l-37 55l178 119q-68 68 -165 102.5t-195 34.5v76q130 -1 239.5 -45.5t184.5 -126.5l135 94l37 -57l-129 -84q99 -135 144.5 -293t45.5 -412v-206 q0 -83 -21.5 -156.5t-65 -133.5t-117.5 -95t-169 -35q-119 0 -205.5 58.5t-127.5 152t-41 209.5zM203 408q0 -52 8.5 -99t29.5 -92t53 -77.5t81.5 -52t111.5 -19.5q74 0 130 28.5t88.5 77.5t48.5 108t16 126v149q0 50 -8.5 95.5t-30 89t-53 75t-80.5 51t-111 19.5 q-74 0 -130.5 -29t-89 -78t-48.5 -108.5t-16 -126.5v-137z" />
<glyph unicode="&#xf1;" horiz-adv-x="1062" d="M111 872v82q68 0 114.5 -38.5t46.5 -96.5v-78q36 102 120 165t208 63q141 0 220 -84t79 -217v-488q0 -54 24.5 -75t51.5 -21v-84q-164 0 -164 168v500q0 100 -59 158.5t-154 58.5q-78 0 -137.5 -32t-94 -81.5t-56 -120t-29 -135.5t-7.5 -139v-377h-88v774q0 42 -17.5 70 t-57.5 28zM223 1153q0 78 52.5 118t115.5 40q40 0 82 -16t72 -34.5t70.5 -34.5t78.5 -16q34 0 59.5 24t26.5 62h70q0 -70 -44.5 -115.5t-109.5 -45.5q-58 0 -114.5 25t-104.5 50t-86 25q-37 0 -64 -22.5t-28 -59.5h-76z" />
<glyph unicode="&#xf2;" horiz-adv-x="972" d="M113 408v139q0 82 22 156t66 134.5t117.5 96t168.5 35.5q93 0 165.5 -33t117.5 -91.5t67.5 -134t22.5 -163.5v-139q0 -83 -21.5 -156.5t-65 -133.5t-117.5 -95t-169 -35q-178 0 -276 118t-98 302zM203 412q0 -52 9 -99.5t30.5 -92t53.5 -77t81 -52t110 -19.5 q73 0 129 28.5t88.5 77.5t49 108t16.5 126v131q0 66 -15.5 124t-47 108.5t-88.5 80t-132 29.5q-72 0 -128 -28.5t-89 -77t-50 -108.5t-17 -128v-131zM283 1430h94l145 -312h-86z" />
<glyph unicode="&#xf3;" horiz-adv-x="972" d="M113 408v139q0 82 22 156t66 134.5t117.5 96t168.5 35.5q93 0 165.5 -33t117.5 -91.5t67.5 -134t22.5 -163.5v-139q0 -83 -21.5 -156.5t-65 -133.5t-117.5 -95t-169 -35q-178 0 -276 118t-98 302zM203 412q0 -52 9 -99.5t30.5 -92t53.5 -77t81 -52t110 -19.5 q73 0 129 28.5t88.5 77.5t49 108t16.5 126v131q0 66 -15.5 124t-47 108.5t-88.5 80t-132 29.5q-72 0 -128 -28.5t-89 -77t-50 -108.5t-17 -128v-131zM451 1118l143 312h92l-154 -312h-81z" />
<glyph unicode="&#xf4;" horiz-adv-x="972" d="M113 408v139q0 82 22 156t66 134.5t117.5 96t168.5 35.5q93 0 165.5 -33t117.5 -91.5t67.5 -134t22.5 -163.5v-139q0 -83 -21.5 -156.5t-65 -133.5t-117.5 -95t-169 -35q-178 0 -276 118t-98 302zM203 412q0 -52 9 -99.5t30.5 -92t53.5 -77t81 -52t110 -19.5 q73 0 129 28.5t88.5 77.5t49 108t16.5 126v131q0 66 -15.5 124t-47 108.5t-88.5 80t-132 29.5q-72 0 -128 -28.5t-89 -77t-50 -108.5t-17 -128v-131zM221 1118l215 312h101l215 -312h-90l-175 248l-176 -248h-90z" />
<glyph unicode="&#xf5;" horiz-adv-x="972" d="M113 408v139q0 82 22 156t66 134.5t117.5 96t168.5 35.5q93 0 165.5 -33t117.5 -91.5t67.5 -134t22.5 -163.5v-139q0 -83 -21.5 -156.5t-65 -133.5t-117.5 -95t-169 -35q-178 0 -276 118t-98 302zM150 1153q0 78 52 118t115 40q50 0 102.5 -25.5t103.5 -50.5t98 -25 q34 0 59.5 24t26.5 62h69q0 -70 -44 -115.5t-109 -45.5q-46 0 -92 15.5t-77 34.5t-68.5 34.5t-68.5 15.5q-37 0 -64 -22.5t-28 -59.5h-75zM203 412q0 -52 9 -99.5t30.5 -92t53.5 -77t81 -52t110 -19.5q73 0 129 28.5t88.5 77.5t49 108t16.5 126v131q0 66 -15.5 124 t-47 108.5t-88.5 80t-132 29.5q-72 0 -128 -28.5t-89 -77t-50 -108.5t-17 -128v-131z" />
<glyph unicode="&#xf6;" horiz-adv-x="972" d="M113 408v139q0 82 22 156t66 134.5t117.5 96t168.5 35.5q93 0 165.5 -33t117.5 -91.5t67.5 -134t22.5 -163.5v-139q0 -83 -21.5 -156.5t-65 -133.5t-117.5 -95t-169 -35q-178 0 -276 118t-98 302zM203 412q0 -52 9 -99.5t30.5 -92t53.5 -77t81 -52t110 -19.5 q73 0 129 28.5t88.5 77.5t49 108t16.5 126v131q0 66 -15.5 124t-47 108.5t-88.5 80t-132 29.5q-72 0 -128 -28.5t-89 -77t-50 -108.5t-17 -128v-131zM254 1231v102h104v-102h-104zM621 1231v102h104v-102h-104z" />
<glyph unicode="&#xf7;" horiz-adv-x="686" d="M113 662v65h460v-65h-460zM287 403v105h108v-105h-108zM287 868v105h108v-105h-108z" />
<glyph unicode="&#xf8;" horiz-adv-x="972" d="M113 408v139q0 82 22 156t66 134.5t117.5 96t168.5 35.5q107 0 193 -47l27 47h98l-57 -101q112 -115 112 -321v-139q0 -83 -21.5 -156.5t-65 -133.5t-117.5 -95t-169 -35q-118 0 -204 55l-23 -43h-96l53 96q-104 113 -104 312zM203 412q0 -138 61 -232l373 664 q-59 41 -150 41q-72 0 -128 -28.5t-89 -77t-50 -108.5t-17 -128v-131zM326 119q62 -47 161 -47q73 0 129 28.5t88.5 77.5t49 108t16.5 126v131q0 147 -70 241z" />
<glyph unicode="&#xf9;" horiz-adv-x="1011" d="M78 870v84q164 0 164 -168v-499q0 -100 59 -158.5t154 -58.5q73 0 128.5 32t88 82t52.5 120t27 135t7 139v376h88v-774q0 -42 18 -70t58 -28v-82q-68 0 -115 38.5t-47 96.5v78q-33 -109 -110.5 -168t-196.5 -59q-141 0 -220 84t-79 217v487q0 54 -24.5 75t-51.5 21z M281 1430h94l145 -312h-86z" />
<glyph unicode="&#xfa;" horiz-adv-x="1011" d="M78 870v84q164 0 164 -168v-499q0 -100 59 -158.5t154 -58.5q73 0 128.5 32t88 82t52.5 120t27 135t7 139v376h88v-774q0 -42 18 -70t58 -28v-82q-68 0 -115 38.5t-47 96.5v78q-33 -109 -110.5 -168t-196.5 -59q-141 0 -220 84t-79 217v487q0 54 -24.5 75t-51.5 21z M446 1118l144 312h92l-154 -312h-82z" />
<glyph unicode="&#xfb;" horiz-adv-x="1011" d="M78 870v84q164 0 164 -168v-499q0 -100 59 -158.5t154 -58.5q73 0 128.5 32t88 82t52.5 120t27 135t7 139v376h88v-774q0 -42 18 -70t58 -28v-82q-68 0 -115 38.5t-47 96.5v78q-33 -109 -110.5 -168t-196.5 -59q-141 0 -220 84t-79 217v487q0 54 -24.5 75t-51.5 21z M211 1118l215 312h100l215 -312h-90l-174 248l-176 -248h-90z" />
<glyph unicode="&#xfc;" horiz-adv-x="1011" d="M78 870v84q164 0 164 -168v-499q0 -100 59 -158.5t154 -58.5q73 0 128.5 32t88 82t52.5 120t27 135t7 139v376h88v-774q0 -42 18 -70t58 -28v-82q-68 0 -115 38.5t-47 96.5v78q-33 -109 -110.5 -168t-196.5 -59q-141 0 -220 84t-79 217v487q0 54 -24.5 75t-51.5 21z M244 1231v102h104v-102h-104zM610 1231v102h105v-102h-105z" />
<glyph unicode="&#xfd;" horiz-adv-x="874" d="M-10 -354l55 55q16 -30 45.5 -50t63.5 -20q42 0 76 20.5t49 57.5l110 299l-268 805q-19 57 -80 57v84q69 0 107.5 -25.5t56.5 -80.5l229 -723l297 829h98l-467 -1257q-56 -150 -204 -150q-53 0 -97 26.5t-71 72.5zM387 1118l143 312h93l-154 -312h-82z" />
<glyph unicode="&#xfe;" horiz-adv-x="1050" d="M160 1456v82q69 0 116.5 -38.5t47.5 -98.5v-594q30 70 96 116t155 46q119 0 202 -57t122 -152t39 -221v-121q0 -81 -25.5 -157t-73.5 -137.5t-123.5 -98.5t-168.5 -37q-74 0 -133.5 25.5t-89.5 68.5v-535h-88v1811q0 42 -18 70t-58 28zM324 240q0 -62 61 -115t156 -53 q96 0 167 51.5t104.5 129.5t33.5 169v115q0 66 -15 125t-46 110.5t-87 82t-131 30.5q-59 0 -107.5 -31t-77 -77.5t-43.5 -94.5t-15 -88v-354z" />
<glyph unicode="&#xff;" horiz-adv-x="874" d="M-10 -354l55 55q16 -30 45.5 -50t63.5 -20q42 0 76 20.5t49 57.5l110 299l-268 805q-19 57 -80 57v84q69 0 107.5 -25.5t56.5 -80.5l229 -723l297 829h98l-467 -1257q-56 -150 -204 -150q-53 0 -97 26.5t-71 72.5zM197 1231v102h104v-102h-104zM563 1231v102h105v-102 h-105z" />
<glyph unicode="&#x152;" horiz-adv-x="2025" d="M147 590v323q0 93 20 179.5t62.5 163.5t103 135t148.5 91.5t193 33.5q156 0 270.5 -71.5t159.5 -172.5v231h788v-92h-692v-596h598v-92h-598v-631h709v-92h-805v233q-58 -114 -167 -179.5t-263 -65.5q-127 0 -228.5 47.5t-166 130t-98.5 191t-34 233.5zM246 590 q0 -79 15.5 -152.5t49.5 -139t83 -114.5t121 -77.5t159 -28.5q88 0 161 28.5t122.5 77t83.5 114.5t49.5 139.5t15.5 152.5v323q0 79 -15.5 151.5t-49 138.5t-83 114.5t-122.5 77t-162 28.5q-88 0 -160 -28.5t-121 -77t-82.5 -114.5t-49 -138.5t-15.5 -151.5v-323z" />
<glyph unicode="&#x153;" horiz-adv-x="1540" d="M113 408v139q0 82 22 156t66 134.5t117.5 96t168.5 35.5q122 0 205 -55.5t125 -151.5q45 95 129 151t203 56q133 0 217 -77.5t84 -197.5q0 -105 -66 -165t-174 -60h-350v-68q0 -143 78.5 -236t230.5 -93q111 0 209 88l49 -68q-111 -104 -258 -104q-128 0 -217 54.5 t-135 150.5q-42 -94 -125 -149.5t-205 -55.5q-178 0 -276 118t-98 302zM203 412q0 -52 9 -99.5t30.5 -92t53.5 -77t81 -52t110 -19.5q73 0 129 28.5t88.5 77.5t49 108t16.5 126v129v2q0 66 -15.5 124t-47 108.5t-88.5 80t-132 29.5q-72 0 -128 -28.5t-89 -77t-50 -108.5 t-17 -128v-131zM860 547h330q78 0 125 41t47 112q0 89 -58.5 137t-156.5 48q-132 0 -208 -88.5t-79 -235.5v-14z" />
<glyph unicode="&#x178;" horiz-adv-x="1126" d="M68 1503h100l395 -747l395 747h101l-449 -850v-653h-98v653zM328 1774v102h104v-102h-104zM694 1774v102h105v-102h-105z" />
<glyph unicode="&#x2c6;" horiz-adv-x="755" d="M113 1118l215 312h100l215 -312h-90l-174 248l-176 -248h-90z" />
<glyph unicode="&#x2dc;" horiz-adv-x="851" d="M113 1204q0 78 52.5 118t115.5 40q60 0 153.5 -50t149.5 -50q34 0 59.5 24t26.5 62h69q0 -70 -44 -116t-109 -46q-58 0 -114.5 25t-104.5 50t-86 25q-37 0 -64.5 -22.5t-28.5 -59.5h-75z" />
<glyph unicode="&#x2000;" horiz-adv-x="993" />
<glyph unicode="&#x2001;" horiz-adv-x="1987" />
<glyph unicode="&#x2002;" horiz-adv-x="993" />
<glyph unicode="&#x2003;" horiz-adv-x="1987" />
<glyph unicode="&#x2004;" horiz-adv-x="662" />
<glyph unicode="&#x2005;" horiz-adv-x="496" />
<glyph unicode="&#x2006;" horiz-adv-x="331" />
<glyph unicode="&#x2007;" horiz-adv-x="331" />
<glyph unicode="&#x2008;" horiz-adv-x="248" />
<glyph unicode="&#x2009;" horiz-adv-x="397" />
<glyph unicode="&#x200a;" horiz-adv-x="110" />
<glyph unicode="&#x2010;" horiz-adv-x="671" d="M113 504v78h446v-78h-446z" />
<glyph unicode="&#x2011;" horiz-adv-x="671" d="M113 504v78h446v-78h-446z" />
<glyph unicode="&#x2012;" horiz-adv-x="671" d="M113 504v78h446v-78h-446z" />
<glyph unicode="&#x2013;" horiz-adv-x="862" d="M113 504v78h637v-78h-637z" />
<glyph unicode="&#x2014;" horiz-adv-x="1392" d="M113 504v78h1167v-78h-1167z" />
<glyph unicode="&#x2018;" horiz-adv-x="352" d="M109 1395v108h116v-114h-51q0 -41 15 -72.5t55 -63.5l-31 -49q-104 63 -104 191z" />
<glyph unicode="&#x2019;" horiz-adv-x="352" d="M109 1253q40 32 54.5 63t14.5 73h-51v114h117v-108q0 -127 -105 -191z" />
<glyph unicode="&#x201a;" horiz-adv-x="352" d="M109 -135q40 32 54.5 62.5t14.5 72.5h-51v115h117v-109q0 -126 -105 -190z" />
<glyph unicode="&#x201c;" horiz-adv-x="522" d="M109 1395v108h116v-114h-51q0 -41 15 -72.5t55 -63.5l-31 -49q-53 31 -78.5 82t-25.5 109zM279 1395v108h116v-114h-51q0 -41 15 -72.5t55 -63.5l-33 -49q-102 61 -102 191z" />
<glyph unicode="&#x201d;" horiz-adv-x="522" d="M109 1253q40 32 54.5 63t14.5 73h-51v114h117v-108q0 -127 -105 -191zM279 1253q40 32 54.5 63t14.5 73h-51v114h117v-108q0 -57 -25.5 -108t-77.5 -83z" />
<glyph unicode="&#x201e;" horiz-adv-x="522" d="M109 -135q40 32 54.5 62.5t14.5 72.5h-51v115h117v-109q0 -126 -105 -190zM279 -135q40 32 54.5 62.5t14.5 72.5h-51v115h117v-109q0 -126 -103 -190z" />
<glyph unicode="&#x2022;" horiz-adv-x="448" d="M109 504q0 47 34 80.5t80 33.5q48 0 82.5 -33.5t34.5 -80.5q0 -49 -34.5 -82t-82.5 -33q-47 0 -80.5 33t-33.5 82z" />
<glyph unicode="&#x2026;" horiz-adv-x="849" d="M109 0v119h120v-119h-120zM367 0v119h116v-119h-116zM623 0v119h118v-119h-118z" />
<glyph unicode="&#x202f;" horiz-adv-x="397" />
<glyph unicode="&#x2039;" horiz-adv-x="581" d="M109 637l321 258l43 -51l-264 -209l264 -207l-43 -51z" />
<glyph unicode="&#x203a;" horiz-adv-x="581" d="M109 428l262 207l-262 209l43 51l321 -258l-321 -260z" />
<glyph unicode="&#x205f;" horiz-adv-x="496" />
<glyph unicode="&#x20ac;" horiz-adv-x="1261" d="M78 598v84h158v123h-136v84h136q3 96 24.5 185t65 170.5t106 142t153 96t199.5 35.5q95 0 182 -41t144 -113l-63 -59q-42 55 -116.5 88.5t-164.5 33.5q-201 0 -315 -150t-117 -388h385v-84h-389v-123h364v-84h-358q2 -106 28.5 -197t77 -164t135 -115t193.5 -42 q99 0 174 42t139 122l62 -66q-78 -95 -166 -142.5t-211 -47.5q-125 0 -226 49t-165.5 134t-100 194t-38.5 233h-160z" />
<glyph unicode="&#x2122;" horiz-adv-x="929" d="M70 1444v59h336v-59h-136v-469h-67v469h-133zM459 975v528h57l146 -248l143 248h55v-528h-65v389l-133 -229l-136 229v-389h-67z" />
<glyph unicode="&#x25fc;" horiz-adv-x="952" d="M0 0v952h952v-952h-952z" />
</font>
</defs>
</svg>
