<?xml version="1.0" standalone="no"?>
<!DOCTYPE svg PUBLIC "-//W3C//DTD SVG 1.1//EN" "http://www.w3.org/Graphics/SVG/1.1/DTD/svg11.dtd" >
<svg xmlns="http://www.w3.org/2000/svg">
<metadata></metadata>
<defs>
<font id="adoquinbold" horiz-adv-x="1017" >
<font-face units-per-em="2048" ascent="1536" descent="-512" />
<missing-glyph horiz-adv-x="350" />
<glyph unicode="&#xfb01;" horiz-adv-x="1032" d="M-242 -336l125 125q52 -61 129 -61q64 0 108 39.5t44 119.5v881h-127v190h127v234q0 159 97.5 252.5t256.5 93.5q63 0 121 -18.5t94.5 -40.5t84.5 -41.5t93 -20.5v-223h-239v20q-3 63 -38 103.5t-106 40.5q-63 0 -111 -40t-48 -118v-242h149v-190h-149v-874 q0 -160 -93.5 -253.5t-250.5 -93.5q-170 0 -267 117zM627 768v190h2q145 0 220 -52t75 -177v-729h-213v688q0 34 -21.5 55.5t-56.5 24.5h-4h-2z" />
<glyph unicode="&#xfb02;" horiz-adv-x="1220" d="M-242 -336l125 125q52 -61 129 -61q64 0 109 39.5t45 119.5v881h-127v190h127v191q0 166 103 260t259 94q138 0 224 -71q28 45 81.5 75.5t124.5 30.5q130 0 204.5 -77.5t74.5 -194.5q0 -73 -16 -141t-52.5 -138.5t-105 -133t-164.5 -105.5v-420q0 -150 148 -150 q39 0 83 23l60 -174q-73 -39 -154 -39q-102 0 -170.5 23t-106.5 70.5t-53.5 110t-15.5 152.5v852q-5 54 -43.5 89.5t-107.5 35.5q-72 0 -120 -44.5t-48 -119.5v-199h161v-190h-161v-874q0 -160 -94 -253.5t-252 -93.5q-170 0 -267 117zM891 924q45 25 77.5 69.5t47.5 95 t21.5 91t6.5 75.5q0 55 -20 86t-59 31q-36 0 -55 -26t-19 -58v-364z" />
<glyph unicode="&#xfb03;" horiz-adv-x="1558" d="M-242 -336l125 125q52 -61 129 -61q65 0 109.5 39.5t44.5 119.5v881h-127v190h127v185q0 165 100 262.5t271 97.5q58 0 123.5 -23.5t105.5 -60.5q42 55 113.5 87t148.5 32q75 0 137 -19t96 -41.5t81.5 -41.5t97.5 -19v-223h-240v33q-4 64 -42.5 97.5t-102.5 33.5 q-78 0 -120 -45t-42 -127v-228h162v-190h-162v-827q0 -157 -103 -252t-262 -95q-146 0 -233 72q-92 -119 -270 -119q-170 0 -267 117zM371 -104q0 -54 43 -87.5t106 -33.5q66 0 118 40t52 119v834h-123v190h123v252q0 46 -47 79.5t-100 33.5q-66 0 -119 -35t-53 -104v-226 h112v-190h-112v-872zM1155 768v190q146 0 220.5 -52t74.5 -177v-729h-211v688q0 36 -23 58t-61 22z" />
<glyph unicode="&#xfb04;" horiz-adv-x="1732" d="M-242 -336l125 125q52 -61 129 -61q65 0 109.5 39.5t44.5 119.5v881h-127v190h127v185q0 166 99.5 263t271.5 97q59 0 123 -23t106 -61q42 55 112 87t152 32q71 0 135 -22.5t101 -59.5q76 82 204 82q129 0 204 -77.5t75 -194.5q0 -73 -16 -141t-52.5 -138.5t-105 -133 t-164.5 -105.5v-420q0 -150 145 -150q48 0 86 23l60 -174q-65 -39 -156 -39q-101 0 -169.5 23t-106.5 70.5t-54 110.5t-16 152v930v6q-38 78 -145 78q-65 0 -113.5 -39t-48.5 -119v-242h162v-190h-162v-811q0 -165 -100.5 -264t-264.5 -99q-147 0 -233 74 q-43 -58 -113 -89.5t-157 -31.5q-170 0 -267 117zM371 -104q0 -54 43 -87.5t106 -33.5q66 0 118 40t52 119v834h-123v190h123v250q0 50 -46 82.5t-101 32.5q-65 0 -118.5 -36.5t-53.5 -102.5v-226h112v-190h-112v-872zM1403 924q45 25 77 69.5t47.5 95t22 91.5t6.5 75 q0 55 -20 86t-59 31q-36 0 -55 -26t-19 -58v-364z" />
<glyph horiz-adv-x="0" />
<glyph horiz-adv-x="682" />
<glyph unicode="&#xd;" horiz-adv-x="489" />
<glyph unicode=" "  horiz-adv-x="350" />
<glyph unicode="&#x09;" horiz-adv-x="350" />
<glyph unicode="&#xa0;" horiz-adv-x="350" />
<glyph unicode="!" horiz-adv-x="446" d="M98 1503h250l-51 -1130h-150zM113 0v225h223v-225h-223z" />
<glyph unicode="&#x22;" horiz-adv-x="581" d="M61 1503h201l-20 -356h-160zM319 1503h201l-20 -356h-160z" />
<glyph unicode="#" horiz-adv-x="1271" d="M82 293v113h254l57 161h-200v115h239l98 272h207l-94 -272h135l96 272h209l-96 -272h201v-115h-242l-59 -161h192v-113h-227l-102 -293h-209l104 293h-137l-105 -293h-206l104 293h-219zM543 406h137l57 161h-133z" />
<glyph unicode="$" horiz-adv-x="1138" d="M59 367l199 82q17 -53 42 -97t61.5 -82t88.5 -59t115 -21q115 0 195 65t80 161q0 59 -21.5 104.5t-65.5 78.5t-94.5 55.5t-123.5 45.5q-215 64 -320.5 165t-105.5 265q0 140 99 241t251 128v90h209v-90q125 -21 211.5 -91t119.5 -161l-192 -90q-69 160 -242 160 q-98 0 -163.5 -51t-65.5 -136q0 -29 9 -53.5t20 -42.5t35.5 -35.5t40.5 -27t51 -23.5t50.5 -19t55.5 -18q87 -28 150.5 -55t128 -68.5t104.5 -91t65 -120.5t25 -158q0 -163 -114 -278.5t-289 -143.5v-102h-209v104q-150 30 -259 129t-141 240z" />
<glyph unicode="%" horiz-adv-x="1347" d="M82 1237q0 127 62.5 203t191.5 76q123 0 188 -74q37 -40 88 -57t127 -17q68 0 128 31t89 76l17 28h215l-817 -1503h-213l690 1274q-58 -31 -123 -31q-79 0 -137 31q2 -20 2 -37q0 -127 -62.5 -203t-191.5 -76t-191.5 76t-62.5 203zM227 1243q0 -137 109 -137q54 0 81 38 t27 99q0 59 -27 95t-81 36q-109 0 -109 -131zM758 264q0 128 61.5 203.5t190.5 75.5q130 0 193 -76t63 -203q0 -128 -62.5 -203t-193.5 -75q-129 0 -190.5 75t-61.5 203zM901 268q0 -133 109 -133q55 0 81.5 36.5t26.5 96.5q0 61 -26 97t-82 36t-82.5 -36t-26.5 -97z" />
<glyph unicode="&#x26;" horiz-adv-x="1505" d="M106 508q0 138 80.5 271t212.5 182q-108 70 -108 215q0 149 108 244.5t273 95.5q112 0 201.5 -54.5t119.5 -150.5l-182 -64q-46 78 -141 78q-74 0 -120 -41t-46 -106q0 -57 46 -99.5t126 -42.5q51 0 110 21l45 -164q-33 -20 -65 -28.5t-86.5 -12t-75.5 -6.5 q-103 -13 -180.5 -99.5t-77.5 -216.5q0 -142 95.5 -232.5t234.5 -90.5q86 0 152 27t104.5 71.5t58 97t19.5 109.5q0 60 -33.5 94.5t-89.5 34.5q-49 0 -80 -33.5t-31 -75.5q0 -40 37 -90l-143 -69q-84 73 -84 182q0 108 86.5 185t208.5 77q62 0 112.5 -15t76.5 -33t56.5 -33 t57.5 -15q52 0 86 29t59 86l152 -84q-18 -73 -71.5 -136t-119.5 -81q-38 -11 -63 -9q4 -20 4 -55q0 -103 -46.5 -194.5t-123.5 -154t-177.5 -98.5t-207.5 -36q-121 0 -225.5 36t-181 101.5t-120 164t-43.5 218.5z" />
<glyph unicode="'" horiz-adv-x="323" d="M61 1503h201l-20 -356h-160z" />
<glyph unicode="(" horiz-adv-x="571" d="M82 705q0 152 1 238t9.5 206.5t24.5 183.5q36 141 134.5 227t235.5 87v-150q-64 -1 -106 -52t-55 -124q-19 -92 -24 -227t-5 -389q0 -256 5 -391.5t24 -225.5q13 -73 55 -125t106 -53v-150q-137 1 -235.5 88t-134.5 228q-16 63 -24.5 182.5t-9.5 206t-1 240.5z" />
<glyph unicode=")" horiz-adv-x="571" d="M82 -90q64 1 107 52t59 126q17 90 21.5 222.5t4.5 394.5q0 260 -4.5 392.5t-21.5 223.5q-16 74 -59.5 124.5t-106.5 51.5v150q138 -1 237.5 -87t135.5 -227q15 -63 22.5 -185.5t8.5 -202.5t1 -240q0 -162 -1 -242.5t-8.5 -202.5t-22.5 -184q-36 -141 -135.5 -228 t-237.5 -88v150z" />
<glyph unicode="*" horiz-adv-x="645" d="M82 1231v98l137 -8l-108 98l71 72l94 -111l-8 144h107l-10 -144l98 115l72 -72l-115 -102l143 8v-98l-141 4l110 -96l-69 -72l-98 111l10 -142h-107l8 142l-98 -111l-69 72l110 96z" />
<glyph unicode="+" horiz-adv-x="694" d="M82 616v125h199v205h131v-205h200v-125h-200v-202h-131v202h-199z" />
<glyph unicode="," horiz-adv-x="329" d="M61 0v197h207v-177q0 -86 -46.5 -144.5t-121.5 -88.5l-39 90q91 48 91 123h-91z" />
<glyph unicode="-" horiz-adv-x="624" d="M82 477v150h461v-150h-461z" />
<glyph unicode="." horiz-adv-x="333" d="M61 0v197h211v-197h-211z" />
<glyph unicode="/" horiz-adv-x="964" d="M0 0l752 1503h213l-754 -1503h-211z" />
<glyph unicode="0" horiz-adv-x="1286" d="M111 612v287q0 126 32 235t95 195.5t167.5 136.5t239.5 50q132 0 235 -49.5t167 -135t96.5 -195.5t32.5 -237v-287q0 -129 -32.5 -240t-96.5 -197.5t-167 -136.5t-235 -50q-108 0 -197 33t-150.5 90.5t-104 136.5t-62.5 170.5t-20 193.5zM344 612q0 -84 17 -157.5 t51.5 -134.5t94.5 -96.5t138 -35.5q80 0 140 35.5t94 96.5t50.5 134.5t16.5 157.5v287q0 66 -10 124.5t-32.5 112.5t-56.5 93.5t-86 62.5t-116 23q-78 0 -137.5 -35t-94 -94.5t-52 -132t-17.5 -154.5v-287z" />
<glyph unicode="1" horiz-adv-x="614" d="M47 1102v201q79 3 145 65t72 135h211v-1503h-219v1186q-73 -84 -209 -84z" />
<glyph unicode="2" horiz-adv-x="1093" d="M47 0l531 772q8 11 38 53.5t39 56t29.5 48t27.5 54t14 48t7 55.5q0 104 -68 166t-173 62q-161 0 -252 -174l-168 84q56 132 169.5 211.5t250.5 79.5q201 0 322.5 -107.5t121.5 -316.5q0 -103 -43 -196t-133 -220l-336 -475h575v-201h-952z" />
<glyph unicode="3" horiz-adv-x="1173" d="M76 291l82 47q81 47 86 47q57 -105 126.5 -152t170.5 -47q75 0 133 25t91 66t49.5 88.5t16.5 99.5v24q0 58 -22.5 110t-64.5 91.5t-108 60t-147 13.5l7 162q43 1 84.5 13.5t78.5 36.5t59.5 67t22.5 98q0 82 -60 129t-149 47q-128 0 -202 -98l-148 120q140 177 369 177 q117 0 212.5 -43.5t152.5 -127.5t57 -194q0 -95 -43.5 -172.5t-116.5 -114.5q86 -26 144 -88.5t82 -137t24 -159.5v-14q0 -90 -34 -175t-95.5 -152.5t-158 -108.5t-212.5 -41q-164 0 -295 77.5t-192 225.5z" />
<glyph unicode="4" horiz-adv-x="1077" d="M47 406v169l639 928h193v-903h151v-194h-151v-406h-222v406h-610zM299 600h358v539z" />
<glyph unicode="5" horiz-adv-x="1130" d="M76 285l168 92q53 -100 126.5 -145.5t172.5 -45.5q124 0 196 79t72 198v45q0 121 -71 200.5t-197 79.5q-79 0 -129 -18t-103 -61l-170 36l80 758h709v-200h-545l-39 -359q38 19 99.5 30t105.5 11q134 0 241.5 -53.5t174 -163t69.5 -260.5v-45q0 -98 -32.5 -184 t-93.5 -151t-156 -102.5t-211 -37.5q-91 0 -176.5 28.5t-165.5 97.5t-125 171z" />
<glyph unicode="6" horiz-adv-x="1232" d="M111 586q0 125 30 249.5t98 245.5t167 213.5t249.5 149.5t331.5 57v-194q-252 0 -409 -117.5t-222 -319.5q48 57 127 85t164 28q206 0 349 -145t143 -355q0 -137 -65 -250t-182 -179t-263 -66q-159 0 -278 78t-179.5 212.5t-60.5 307.5zM336 485q0 -122 86.5 -210.5 t204.5 -88.5q117 0 198.5 88t81.5 211q0 122 -81.5 209.5t-196.5 87.5q-120 0 -206.5 -87.5t-86.5 -209.5z" />
<glyph unicode="7" horiz-adv-x="976" d="M47 1303v200h883v-198q-95 -98 -198.5 -262t-168.5 -310q-72 -165 -96.5 -346.5t-24.5 -386.5h-229q0 218 25.5 398t105.5 374q101 245 324 531h-621z" />
<glyph unicode="8" horiz-adv-x="1177" d="M82 481q0 130 69 243t185 173q-55 33 -89 104t-34 148q0 151 113 256.5t272 105.5q152 0 266.5 -106t114.5 -256q0 -78 -35.5 -150t-89.5 -106q110 -58 176 -170.5t66 -241.5q0 -140 -68 -254t-182.5 -176.5t-249.5 -62.5q-104 0 -198 37t-164 101.5t-111 157t-41 197.5z M307 483q0 -125 82.5 -206.5t206.5 -81.5q122 0 203.5 81.5t81.5 206.5q0 123 -81 212t-204 89q-125 0 -207 -89t-82 -212zM422 1139q0 -73 50.5 -124.5t123.5 -51.5q72 0 122 52t50 124t-50 124t-122 52q-73 0 -123.5 -51.5t-50.5 -124.5z" />
<glyph unicode="9" horiz-adv-x="1202" d="M76 1010v14q0 132 64.5 244.5t180 180t254.5 67.5q152 0 271.5 -68.5t182.5 -183t63 -252.5q0 -109 -13 -212t-43.5 -205.5t-76.5 -190.5t-115 -164.5t-155.5 -131t-203 -86t-252.5 -32.5v190q111 0 207 27t163 70.5t118.5 102t81 117.5t43.5 121q-92 -102 -273 -102 q-215 0 -356 143.5t-141 350.5zM301 1010q0 -116 79 -205.5t202 -89.5q136 0 213 85.5t77 209.5v24q0 116 -79 201.5t-211 85.5q-118 0 -199.5 -89.5t-81.5 -203.5v-18z" />
<glyph unicode=":" horiz-adv-x="333" d="M61 0v197h211v-197h-211zM61 733v197h211v-197h-211z" />
<glyph unicode=";" horiz-adv-x="335" d="M61 733v197h211v-197h-211zM68 0v197h206v-177q0 -86 -46.5 -144.5t-121.5 -88.5l-38 90q90 48 90 123h-90z" />
<glyph unicode="&#x3c;" horiz-adv-x="579" d="M78 680l336 313l88 -100l-242 -215l242 -213l-88 -98z" />
<glyph unicode="=" horiz-adv-x="645" d="M82 481v129h481v-129h-481zM82 743v129h481v-129h-481z" />
<glyph unicode="&#x3e;" horiz-adv-x="579" d="M78 465l239 213l-239 215l88 100l336 -313l-336 -313z" />
<glyph unicode="?" horiz-adv-x="993" d="M29 1298q69 109 177 162t232 53q224 0 353 -128.5t129 -323.5q0 -76 -23 -139.5t-59.5 -108t-81 -83.5t-88.5 -75.5t-80.5 -75t-59 -92t-22.5 -116.5h-195q0 89 20.5 161.5t53.5 119.5t73.5 86.5t80.5 71.5t73.5 65t54.5 77.5t21 98.5q0 110 -69.5 183t-180.5 73 q-86 0 -146 -34t-112 -99zM295 0v225h225v-225h-225z" />
<glyph unicode="@" horiz-adv-x="1404" d="M82 360v215q0 115 40 220t115.5 189.5t196 134.5t268.5 50q157 0 278.5 -48.5t195 -132t110.5 -188t37 -225.5v-221q0 -161 -55.5 -243t-173.5 -82q-173 0 -213 147q-32 -68 -103 -115t-151 -47q-133 0 -206 68t-73 174q0 102 57.5 170t190.5 100q14 3 40 9 q140 32 181 55q51 29 51 78q0 46 -51 72t-108 26q-68 0 -121.5 -36t-71.5 -99l-135 41q31 109 119 174t209 65q145 0 234 -70.5t89 -187.5q0 -103 -70 -158t-262 -94q-96 -21 -128.5 -54.5t-32.5 -82.5q0 -39 30 -65.5t72 -26.5q97 0 163 58t66 135v18h152v-139 q0 -34 16.5 -54t44.5 -20q70 0 70 154v251q0 69 -14.5 132t-48.5 121.5t-84.5 100.5t-128.5 67.5t-175 25.5q-109 0 -196.5 -38t-142 -101.5t-83 -142.5t-28.5 -165v-215q0 -215 115.5 -327.5t332.5 -112.5q156 0 263 68l53 -127q-121 -88 -316 -88q-302 0 -460 156.5 t-158 430.5z" />
<glyph unicode="A" horiz-adv-x="1327" d="M47 0l528 1503h177l528 -1503h-238l-102 303h-553l-102 -303h-238zM459 516h409l-204 610z" />
<glyph unicode="B" horiz-adv-x="1288" d="M94 0v215q38 4 58 27.5t20 56.5v907q0 31 -20.5 55t-57.5 27v215h461q82 0 158 -14.5t144 -46t118.5 -77t80 -112.5t29.5 -147q0 -99 -44.5 -175.5t-137.5 -117.5q127 -36 209 -137t82 -227q0 -111 -40 -198t-111 -141t-163.5 -82t-201.5 -28h-584zM373 215h315 q111 0 186.5 63.5t75.5 163.5q0 101 -74 163.5t-192 62.5h-289v-369q0 -57 -22 -84zM373 1288q22 -30 22 -82v-323h242q97 0 157 58t60 146q0 91 -65 146t-189 55h-227z" />
<glyph unicode="C" horiz-adv-x="1253" d="M111 618v271q0 119 39 229.5t111.5 200t190 143.5t261.5 54q285 0 420 -222l-156 -129q-83 135 -262 135q-116 0 -203.5 -60t-129.5 -152t-42 -199v-271q0 -108 47 -202t135 -152.5t197 -58.5q91 0 163.5 31.5t143.5 103.5l133 -141q-104 -116 -205.5 -163.5 t-234.5 -47.5q-136 0 -252 53t-193 140.5t-120 201t-43 235.5z" />
<glyph unicode="D" horiz-adv-x="1329" d="M94 0v215q38 4 58 27.5t20 56.5v907q0 31 -20.5 55t-57.5 27v215h481q146 0 269.5 -53t204 -140.5t125.5 -199t45 -229.5v-273q0 -90 -25 -177.5t-75.5 -165t-121 -137t-168.5 -94t-211 -34.5h-524zM371 215h254q69 0 128.5 23t101 61.5t71 89t43.5 106.5t14 113v273 q0 74 -26 145t-74 130.5t-126.5 95.5t-174.5 36h-211q24 -36 24 -82v-907q0 -52 -24 -84z" />
<glyph unicode="E" horiz-adv-x="1144" d="M139 0v1503h897v-215h-674v-418h582v-215h-582v-440h689v-215h-912z" />
<glyph unicode="F" horiz-adv-x="1064" d="M139 0v1503h832v-215h-609v-418h449v-213h-449v-657h-223z" />
<glyph unicode="G" horiz-adv-x="1341" d="M111 610v275q0 96 22.5 186t71 171.5t118 142t170.5 96t222 35.5q146 0 256.5 -60t177.5 -170l-162 -127q-84 141 -268 141q-175 0 -277 -117.5t-102 -297.5v-269q2 -185 98 -294t281 -109q114 0 197 72t96 141v123h-307v215h505v-764h-198v111q-45 -52 -121.5 -87.5 t-181.5 -35.5q-270 0 -434 172.5t-164 449.5z" />
<glyph unicode="H" horiz-adv-x="1372" d="M139 0v1503h223v-635h648v635h223v-1503h-223v653h-648v-653h-223z" />
<glyph unicode="I" horiz-adv-x="501" d="M139 0v1503h223v-1503h-223z" />
<glyph unicode="J" horiz-adv-x="1122" d="M47 434h213q5 -111 71 -173t185 -62q122 0 187 68.5t65 195.5v1040h223v-1044q0 -228 -128 -349.5t-347 -121.5q-211 0 -340 119.5t-129 326.5z" />
<glyph unicode="K" horiz-adv-x="1236" d="M139 0v1503h223v-620h70q151 0 223 69.5t72 216.5v54q0 137 90.5 208.5t243.5 71.5v-215q-93 -4 -98 -92v-41q0 -236 -127 -313q258 -65 258 -426v-105q0 -96 96 -96v-215q-162 2 -247 57.5t-85 180.5v137q0 311 -227 323q-100 -30 -269 -30v-668h-223z" />
<glyph unicode="L" horiz-adv-x="1005" d="M139 0v1503h223v-1288h596v-215h-819z" />
<glyph unicode="M" horiz-adv-x="1525" d="M133 0v1503h160l467 -721l469 721h164v-1503h-224v1022l-409 -612l-404 608v-1018h-223z" />
<glyph unicode="N" horiz-adv-x="1351" d="M133 0v1503h170l692 -1032v1032h224v-1503h-177l-686 1034v-1034h-223z" />
<glyph unicode="O" horiz-adv-x="1394" d="M111 618v267q0 99 22 190t69 171t114 139t164.5 93.5t213.5 34.5q119 0 217 -33.5t166.5 -91.5t115.5 -138t69 -171.5t22 -193.5v-267q0 -99 -22.5 -190.5t-70 -172t-115.5 -139.5t-166 -93.5t-216 -34.5q-140 0 -252 48.5t-183.5 134t-109.5 199.5t-38 248zM340 608 q0 -81 22 -152.5t64 -128.5t111 -90.5t157 -33.5q89 0 159 33.5t113.5 90.5t66 128.5t22.5 152.5v287q0 81 -22.5 152.5t-65.5 128.5t-113.5 90.5t-159.5 33.5q-88 0 -157.5 -33.5t-111.5 -90.5t-63.5 -128.5t-21.5 -152.5v-287z" />
<glyph unicode="P" horiz-adv-x="1200" d="M94 0v215h78v991q0 32 -20 55.5t-58 26.5v215h443q87 0 172.5 -18.5t167.5 -60t144.5 -101t101 -149t38.5 -197.5q0 -109 -35 -198t-92.5 -147.5t-134.5 -99t-159 -58t-169 -17.5h-176v-242h80v-215h-381zM369 1288q26 -35 26 -84v-551h195q139 0 237.5 89t98.5 231 q0 141 -99 228t-252 87h-206z" />
<glyph unicode="Q" horiz-adv-x="1392" d="M111 621v268q0 99 20.5 188.5t66.5 170t112.5 139t165 92.5t218.5 34q121 0 220.5 -33t167 -90.5t113 -137.5t66.5 -170.5t21 -192.5v-268q0 -89 -20 -176t-61 -169t-112 -147.5t-165 -99.5q2 -29 28 -50.5t64 -21.5q31 0 51.5 18.5t28.5 47.5l139 -35 q-16 -112 -88.5 -168t-169.5 -56q-230 0 -260 228q-30 -3 -59 -3q-84 0 -158 22q-99 29 -170 87.5t-121 141.5t-74 179.5t-24 201.5zM340 621q0 -177 55 -250q24 74 84 113t142 42q110 0 186.5 -77.5t89.5 -208.5q79 49 118.5 150t39.5 231v268q0 81 -20.5 152t-62.5 130.5 t-113.5 94t-164.5 34.5t-163.5 -34.5t-111 -94t-60 -130.5t-19.5 -152v-268zM518 283q0 -39 33.5 -62.5t77.5 -26.5h23l65 5q0 72 -29 117.5t-78 45.5q-40 0 -66 -23t-26 -56z" />
<glyph unicode="R" horiz-adv-x="1300" d="M94 0v215h78v991q0 33 -20 57.5t-58 24.5v215h492q96 0 183 -16t168 -53.5t140 -93.5t94 -142t35 -194q0 -154 -75.5 -257t-200.5 -143q54 -11 93 -37t58.5 -60t28 -67t8.5 -67v-70q0 -88 86 -88v-215q-157 2 -235 53.5t-78 173.5v80q0 34 -10 64.5t-32 58t-63 43.5 t-98 16h-293v-274h80v-215h-381zM369 1288q26 -19 26 -82v-522h223q68 0 127 19t106.5 56t75 99t27.5 141q0 77 -29.5 134.5t-80 90.5t-110 48.5t-126.5 15.5h-239z" />
<glyph unicode="S" horiz-adv-x="1214" d="M59 356l197 80q96 -231 348 -231q133 0 221 65t88 170q0 36 -12 66t-38 53.5t-53.5 41.5t-73 35.5t-81 28.5t-92.5 27q-75 21 -131.5 41.5t-119.5 55t-103.5 75t-67 100.5t-26.5 132q0 121 65 218t176 149.5t246 52.5q178 0 305.5 -81t173.5 -192l-186 -96 q-74 153 -283 153q-129 0 -197.5 -54.5t-68.5 -135.5q0 -30 14.5 -55t37.5 -43t62 -35t76.5 -28.5t92.5 -26.5q65 -18 116 -34.5t107 -40.5t97.5 -50t80.5 -61.5t63.5 -76t39 -93t14.5 -113.5q0 -109 -44.5 -198.5t-120 -147t-172 -88.5t-202.5 -31q-426 0 -549 368z" />
<glyph unicode="T" horiz-adv-x="1089" d="M47 1288v215h995v-215h-383v-1288h-223v1288h-389z" />
<glyph unicode="U" horiz-adv-x="1374" d="M133 535v968h236v-966q0 -150 82 -240t235 -90q157 0 238.5 89.5t81.5 240.5v966h235v-968q0 -255 -147 -401t-408 -146q-255 0 -404 150t-149 397z" />
<glyph unicode="V" horiz-adv-x="1284" d="M47 1503h234l360 -1147l363 1147h233l-508 -1503h-174z" />
<glyph unicode="W" horiz-adv-x="1581" d="M47 1503h234l227 -1069l211 615h143l209 -615l229 1069h234l-363 -1503h-153l-227 641l-228 -641h-153z" />
<glyph unicode="X" horiz-adv-x="1245" d="M47 0l449 776l-430 727h253l304 -538l303 538h254l-430 -727l448 -776h-254l-321 571l-322 -571h-254z" />
<glyph unicode="Y" horiz-adv-x="1261" d="M47 1503h234l350 -667l350 667h233l-473 -872v-631h-223v635z" />
<glyph unicode="Z" horiz-adv-x="1198" d="M76 158l626 1130h-559v215h922l-703 -1276q59 21 138 21q45 0 138.5 -22.5t145.5 -22.5q138 0 234 61l86 -180q-110 -94 -316 -94q-58 0 -176 23.5t-182 23.5q-143 0 -274 -41z" />
<glyph unicode="[" horiz-adv-x="499" d="M82 -223v1857h334v-149h-125v-1561h125v-147h-334z" />
<glyph unicode="\" horiz-adv-x="964" d="M0 1503h213l752 -1503h-211z" />
<glyph unicode="]" horiz-adv-x="499" d="M82 -76h125v1561h-125v149h334v-1857h-334v147z" />
<glyph unicode="^" horiz-adv-x="751" d="M82 1137l199 293h190l199 -293h-166l-129 159l-129 -159h-164z" />
<glyph unicode="_" horiz-adv-x="1019" d="M82 0h856v-150h-856v150z" />
<glyph unicode="`" horiz-adv-x="516" d="M82 1430h219l133 -310h-174z" />
<glyph unicode="a" d="M80 252q0 116 68 195.5t225 115.5q25 6 67.5 14.5t64.5 13.5t53.5 13.5t48 17t34 20.5t24.5 27.5t7 35.5q0 47 -48 71.5t-122 24.5q-72 0 -124.5 -33.5t-80.5 -95.5l-172 55q39 114 142 180t235 66q168 0 274.5 -75.5t106.5 -203.5q0 -114 -89 -177t-300 -107 q-118 -25 -158.5 -58.5t-40.5 -89.5q0 -42 31.5 -69t79.5 -27q107 0 181.5 64t82.5 141q2 25 2 39h192v-140q0 -39 29 -59.5t68 -20.5v-190q-123 0 -193.5 33t-77.5 114v11q-31 -79 -113 -124.5t-190 -45.5q-149 0 -228 74t-79 190z" />
<glyph unicode="b" horiz-adv-x="1019" d="M51 0v190q37 0 60.5 21.5t23.5 56.5v1006q0 122 74 193t194 71q127 0 203 -80.5t76 -191.5q0 -152 -125 -297q32 4 49 4q88 0 154 -35.5t104 -97.5t56 -137.5t18 -163.5v-109q0 -82 -27.5 -160t-78 -141.5t-130.5 -102t-176 -38.5q-64 0 -130 32.5t-93 88.5 q-29 -59 -89.5 -84t-162.5 -25zM334 932q45 25 77 68.5t47 92.5t21 88.5t6 73.5q0 55 -20 86t-59 31q-35 0 -53.5 -26t-18.5 -58v-356zM338 289q0 -46 47 -84.5t115 -38.5q101 0 160 76.5t59 183.5v125q-3 97 -53.5 171.5t-143.5 74.5q-73 0 -128.5 -71.5t-55.5 -182.5v-254 z" />
<glyph unicode="c" horiz-adv-x="911" d="M82 420v119q0 82 29 158.5t83 138.5t140.5 99.5t193.5 37.5q207 0 306 -158l-152 -100q-40 78 -156 78q-109 0 -167 -75.5t-58 -176.5v-121q0 -95 62 -170.5t167 -75.5q115 0 189 74l123 -144q-122 -116 -312 -116q-208 0 -328 120.5t-120 311.5z" />
<glyph unicode="d" horiz-adv-x="1040" d="M82 424v106q0 83 27.5 161t77.5 141.5t129.5 102t175.5 38.5q58 0 115 -16.5t79 -43.5v625l209 -53v-1211q0 -35 23.5 -59.5t64.5 -24.5v-190q-122 0 -187.5 27.5t-93.5 97.5q-33 -59 -96 -98t-143 -39q-177 0 -279 122t-102 314zM303 412q0 -99 50 -172.5t149 -73.5 q70 0 126 63.5t56 118.5v307q0 60 -48 101t-118 41q-100 0 -157.5 -76.5t-57.5 -183.5v-125z" />
<glyph unicode="e" horiz-adv-x="950" d="M82 424v106q0 85 28 163t80.5 141t138 101t191.5 38q159 0 260 -96.5t101 -233.5q0 -115 -66 -181.5t-188 -66.5h-332q0 -23 2 -39q11 -84 74 -137t159 -53q54 0 107.5 26t95.5 76l127 -129q-117 -151 -330 -151q-111 0 -197.5 33.5t-140.5 93t-82 138t-28 171.5z M297 559h244q64 0 97.5 31t33.5 76q0 63 -40.5 97t-113.5 34q-98 0 -159.5 -66t-61.5 -172z" />
<glyph unicode="f" horiz-adv-x="534" d="M-242 -336l125 123q52 -61 129 -61q63 0 106.5 39.5t43.5 119.5v883h-125v190h125v234q0 160 94 253t252 93q169 0 264 -115l-123 -125q-54 60 -129 60q-63 0 -107 -39.5t-44 -118.5v-242h151v-190h-151v-877q0 -159 -93.5 -252.5t-250.5 -93.5q-171 0 -267 119z" />
<glyph unicode="g" d="M92 -186q0 101 96 163l144 -65q-43 -28 -43 -80t61.5 -84.5t153.5 -32.5q96 0 152.5 30.5t56.5 86.5q0 59 -48 89.5t-161 37.5q-161 12 -247 39.5t-116 68.5t-30 113q0 43 26 80t74 57q-114 96 -117 267v28q0 156 104.5 258.5t299.5 102.5q170 0 274 -84q63 69 209 69 v-190q-93 0 -96 -53q18 -67 18 -103v-28q0 -158 -105 -260.5t-300 -102.5q-80 0 -144 21q-25 2 -42 -11t-17 -36q0 -29 42.5 -40.5t160.5 -21.5q96 -8 168.5 -26.5t118.5 -44t74.5 -61t40 -73.5t11.5 -84q0 -144 -107 -220.5t-302 -76.5q-186 0 -298 72.5t-112 194.5z M299 588q0 -80 53.5 -133.5t145.5 -53.5q94 0 146 53t54 134v18q0 80 -53 133.5t-147 53.5q-93 0 -146 -53.5t-53 -133.5v-18z" />
<glyph unicode="h" horiz-adv-x="1058" d="M123 0v1274q0 122 74 193t194 71q127 0 203 -80.5t76 -191.5q0 -158 -125 -299q30 6 63 6q150 0 230 -93t80 -237v-375q0 -39 23.5 -58.5t59.5 -19.5v-190q-173 0 -239 57t-66 195v391q0 60 -37.5 100.5t-95.5 40.5q-50 0 -88 -15.5t-62.5 -45.5t-41 -64.5t-24 -81 t-10.5 -86t-3 -88.5v-403h-211zM322 932q45 25 77.5 68.5t47.5 92.5t21.5 88.5t6.5 73.5q0 54 -21 85.5t-59 31.5q-36 0 -54.5 -26t-18.5 -58v-356z" />
<glyph unicode="i" horiz-adv-x="475" d="M72 768v190q146 0 220.5 -52t74.5 -177v-729h-211v688q0 36 -23 58t-61 22zM117 1194v223h239v-223h-239z" />
<glyph unicode="j" horiz-adv-x="505" d="M-133 -174q0 82 29.5 157t103 150.5t188.5 134.5v424q0 36 -22.5 56t-61.5 20v190q146 0 219.5 -51t73.5 -174v-921q0 -122 -73.5 -193.5t-194.5 -71.5q-127 0 -194.5 76.5t-67.5 202.5zM59 -166q0 -50 17.5 -84.5t54.5 -34.5q66 0 66 86v299q-138 -107 -138 -266z M150 1194v223h237v-223h-237z" />
<glyph unicode="k" horiz-adv-x="964" d="M123 0v1274q0 121 75 192.5t195 71.5q130 0 204.5 -76.5t74.5 -193.5q0 -99 -31.5 -192t-110 -181t-196.5 -137v-195q66 2 117 19t84.5 57t33.5 100q0 89 80.5 154t222.5 65v-190q-44 0 -72 -19.5t-28 -56.5q0 -92 -82 -155q166 -47 166 -222v-49q0 -38 26.5 -57 t63.5 -19v-190q-171 0 -243 50t-72 179v86q0 124 -90 134q-84 -43 -209 -46v-403h-209zM326 932q45 25 77 68.5t47.5 92.5t22 89t6.5 73q0 55 -20.5 86t-59.5 31q-36 0 -54.5 -26t-18.5 -58v-356z" />
<glyph unicode="l" horiz-adv-x="651" d="M119 344v930q0 121 75 192.5t195 71.5q129 0 204 -77.5t75 -194.5q0 -73 -16 -141t-52.5 -138.5t-105 -133t-164.5 -105.5v-420q0 -150 145 -150q48 0 86 23l60 -174q-65 -39 -156 -39q-101 0 -169.5 23t-106.5 70.5t-54 110.5t-16 152zM322 924q45 25 77 69.5t47.5 95 t22 91.5t6.5 75q0 55 -20.5 86t-59.5 31q-36 0 -54.5 -26t-18.5 -58v-364z" />
<glyph unicode="m" horiz-adv-x="1652" d="M72 768v190q100 0 169.5 -31.5t102.5 -113.5q38 74 107.5 117t164.5 43q104 0 177 -48.5t110 -131.5q36 79 112 129.5t177 50.5q149 0 234 -94t85 -236v-375q0 -39 24.5 -58.5t59.5 -19.5v-190q-168 0 -235.5 50t-67.5 179v414q0 62 -34.5 101.5t-96.5 39.5 q-63 0 -108.5 -27.5t-69.5 -74.5t-34.5 -99.5t-10.5 -113.5v-203q0 -39 22.5 -59.5t57.5 -20.5v-186q-168 0 -234.5 49.5t-66.5 179.5v414q0 63 -33.5 102t-97.5 39q-48 0 -85.5 -16.5t-60.5 -47.5t-38.5 -66.5t-22.5 -83.5t-9.5 -86t-2.5 -87v-397h-211v688q0 36 -23 58 t-61 22z" />
<glyph unicode="n" horiz-adv-x="1089" d="M72 768v190q51 0 89.5 -6t77 -21t65.5 -46.5t40 -77.5q39 76 113 121t170 45q152 0 236.5 -93t84.5 -237v-375q0 -39 24.5 -58.5t59.5 -19.5v-190q-169 0 -237 50t-68 179v414q0 62 -36.5 101.5t-94.5 39.5q-50 0 -88.5 -16.5t-63 -48t-40.5 -68t-23.5 -85t-10.5 -89 t-3 -90.5v-387h-211v688q0 36 -23 58t-61 22z" />
<glyph unicode="o" horiz-adv-x="1011" d="M82 408v143q0 84 25 158t75 134t134 95t192 35q208 0 315 -117t107 -305v-143q0 -84 -25 -157.5t-74 -133.5t-132.5 -94.5t-190.5 -34.5q-204 0 -315 116.5t-111 303.5zM301 408q0 -62 20 -115t68.5 -90t118.5 -37q98 0 151.5 72t53.5 170v143q0 62 -20.5 116t-68.5 92 t-116 38q-99 0 -153 -72.5t-54 -173.5v-143z" />
<glyph unicode="p" horiz-adv-x="1050" d="M72 768v190q214 0 266 -120q36 59 102.5 97t147.5 38q178 0 279.5 -121t101.5 -313v-109q0 -82 -28 -160t-78.5 -141.5t-130.5 -102t-175 -38.5q-67 0 -119.5 25.5t-72.5 56.5v-523h-209v1141q0 36 -23 58t-61 22zM367 295q0 -47 47 -87t116 -40q100 0 159 76.5t59 183.5 v123q0 62 -19.5 115.5t-66.5 92t-115 38.5q-84 0 -132 -64t-48 -141v-297z" />
<glyph unicode="q" horiz-adv-x="1003" d="M82 424v106q0 83 29.5 161.5t84 142t140 101.5t188.5 38q95 0 198.5 -23t172.5 -57v-1346h-209v551q-45 -56 -107 -83t-116 -27q-180 0 -280.5 121.5t-100.5 314.5zM303 412q0 -99 50 -172.5t149 -73.5q73 0 129.5 58.5t56.5 123.5v410q-68 39 -164 39q-99 0 -160 -83.5 t-61 -183.5v-118z" />
<glyph unicode="r" horiz-adv-x="743" d="M72 768v190q118 0 179.5 -39t82.5 -114q27 72 110.5 112.5t184.5 40.5h33v-190q-23 2 -46 2q-60 0 -104.5 -20.5t-72 -55t-44 -85.5t-22.5 -105t-6 -121v-383h-211v688q0 38 -22.5 59t-61.5 21z" />
<glyph unicode="s" horiz-adv-x="923" d="M59 231l177 84q68 -149 233 -149q74 0 125 33t51 92q0 55 -52.5 84.5t-158.5 52.5q-47 10 -71.5 15.5t-66 18t-64 24t-51.5 31.5t-43.5 43t-25 55.5t-10.5 72.5q0 89 51 155.5t130.5 98t173.5 31.5q77 0 140.5 -17.5t106 -47.5t69.5 -62t42 -68l-166 -86 q-55 105 -182 105q-79 0 -123.5 -29t-44.5 -70q0 -11 2.5 -20.5t10 -17t14 -13.5t20 -11.5t23 -9t28.5 -8t31 -7t35.5 -7.5t36.5 -8q61 -12 109.5 -26.5t97 -39.5t81 -56t52.5 -77.5t20 -103.5q0 -135 -105 -220t-288 -85q-155 0 -257 67.5t-151 175.5z" />
<glyph unicode="t" horiz-adv-x="706" d="M123 360v783l211 55v-240h252v-190h-252v-418q0 -82 44 -127t122 -45q63 0 108 33l80 -170q-80 -53 -203 -53q-197 0 -279.5 92.5t-82.5 279.5z" />
<glyph unicode="u" horiz-adv-x="1077" d="M55 768v190q161 0 233 -57t72 -172v-410q0 -61 37.5 -101t94.5 -40q56 0 97.5 24.5t64.5 61.5t37 92.5t18 105t4 111.5v385h211v-690q0 -35 23 -56.5t61 -21.5v-190q-50 0 -89 6t-77.5 21t-66 46t-40.5 77q-36 -76 -107 -119t-165 -43q-151 0 -237.5 94t-86.5 237v369 q0 39 -24.5 59.5t-59.5 20.5z" />
<glyph unicode="v" horiz-adv-x="956" d="M16 768v190q99 0 158 -17.5t88.5 -50t50.5 -91.5l154 -492l233 651h228l-387 -958h-158l-252 686q-29 82 -115 82z" />
<glyph unicode="w" horiz-adv-x="1366" d="M16 768v190q139 0 202 -40.5t91 -118.5l183 -480l122 316q-15 57 -79 57v162q40 0 66.5 -2.5t58.5 -12.5t54 -28.5t42.5 -52.5t34.5 -82l106 -357l217 639h223l-362 -958h-131l-148 395l-143 -395h-135l-273 676q-16 56 -48 74t-81 18z" />
<glyph unicode="x" horiz-adv-x="901" d="M16 0v190q102 0 140 68l153 242l-286 458h227l180 -292l180 292h228l-295 -456l329 -502h-231l-211 330l-119 -185q-57 -86 -118 -115.5t-177 -29.5z" />
<glyph unicode="y" horiz-adv-x="958" d="M-37 -393l92 153q35 -28 82 -28q102 0 135 75l95 226l-242 674q-22 61 -107 61v190q146 0 208.5 -36t88.5 -123l152 -504l233 663h230l-457 -1146q-56 -135 -129.5 -200t-193.5 -65q-109 0 -187 60z" />
<glyph unicode="z" horiz-adv-x="837" d="M16 141l404 639h-346v178h678l-473 -753q30 12 90 12q44 0 107.5 -15.5t96.5 -15.5q93 0 156 41l80 -161q-52 -38 -102.5 -53t-116.5 -15q-49 0 -138 15.5t-139 15.5q-83 0 -223 -31z" />
<glyph unicode="{" horiz-adv-x="618" d="M82 625v157q47 3 81.5 19t52.5 40t26 48.5t8 50.5q0 82 -20.5 223t-20.5 226q0 114 83 186t243 72v-148q-44 0 -80.5 -32.5t-36.5 -88.5q0 -63 29.5 -212t29.5 -222q0 -168 -145 -242q77 -39 111 -95.5t34 -143.5q0 -74 -29.5 -223.5t-29.5 -212.5q0 -56 36.5 -88.5 t80.5 -32.5v-148q-159 0 -242.5 73.5t-83.5 184.5q0 84 20.5 226t20.5 223q0 58 -39.5 105.5t-128.5 54.5z" />
<glyph unicode="|" horiz-adv-x="333" d="M82 0v1503h170v-1503h-170z" />
<glyph unicode="}" horiz-adv-x="618" d="M82 -94q44 0 80.5 32.5t36.5 88.5q0 63 -30 212t-30 224q0 87 34 143t112 96q-146 74 -146 242q0 73 30 222t30 212q0 56 -36.5 88.5t-80.5 32.5v148q160 0 243 -72t83 -186q0 -85 -20.5 -226t-20.5 -223q0 -26 8 -50.5t26 -48.5t52.5 -40t81.5 -19v-157 q-89 -7 -128.5 -54.5t-39.5 -105.5q0 -81 20.5 -223t20.5 -226q0 -111 -83.5 -184.5t-242.5 -73.5v148z" />
<glyph unicode="~" horiz-adv-x="915" d="M82 1190q0 67 23 117.5t61 77.5t77.5 40t80.5 13q55 0 101.5 -15.5t72.5 -34t57 -34t59 -15.5q36 0 60.5 18.5t32.5 47.5h124q0 -47 -9.5 -86.5t-32 -77t-66.5 -59t-105 -21.5q-64 0 -117 22.5t-95 45t-80 22.5q-34 0 -57.5 -17.5t-26.5 -43.5h-160z" />
<glyph unicode="&#xa1;" horiz-adv-x="425" d="M88 -547l49 1131h150l51 -1131h-250zM102 733v225h224v-225h-224z" />
<glyph unicode="&#xa2;" horiz-adv-x="911" d="M82 420v119q0 154 92 276t262 150v67h154v-67q164 -14 244 -154l-150 -100q-27 65 -94 75v-610q73 13 129 72l123 -144q-100 -100 -252 -112v-68h-154v72q-168 21 -261 137t-93 287zM301 420q0 -74 34.5 -139t100.5 -91v590q-69 -26 -102 -92t-33 -147v-121z" />
<glyph unicode="&#xa3;" horiz-adv-x="1171" d="M80 137q136 100 195 174t59 170q0 31 -17 129h-151v162h94q-87 171 -92 315q0 39 6 80q27 144 154 246.5t305 102.5q122 0 227 -50.5t178 -142.5l-131 -143q-65 67 -124 98t-148 31q-91 0 -163.5 -57t-72.5 -160q0 -38 9.5 -81.5t20 -72.5t32 -83.5t31.5 -82.5h249v-162 h-180q8 -32 8 -92q0 -83 -42 -156t-109 -124q64 34 141 34q53 0 142 -27.5t130 -27.5q55 0 93.5 24.5t38.5 71.5h176q0 -153 -76.5 -239t-208.5 -86q-78 0 -141 19.5t-120.5 39t-119.5 19.5q-68 0 -142 -20t-113 -40l-40 -20z" />
<glyph unicode="&#xa5;" horiz-adv-x="1247" d="M47 1503h240l336 -618l338 618h237l-422 -766h209v-143h-252v-80h252v-141h-252v-183h131v-190h-483v190h131v183h-254v141h254v80h-254v143h209z" />
<glyph unicode="&#xa6;" horiz-adv-x="333" d="M82 0v684h170v-684h-170zM82 819v684h170v-684h-170z" />
<glyph unicode="&#xa7;" horiz-adv-x="866" d="M82 674q0 104 48.5 173.5t139.5 98.5q-62 20 -96.5 69t-34.5 118q0 100 86.5 164.5t216.5 64.5q113 0 194 -51t107 -158l-147 -31q-16 54 -60 81.5t-94 27.5q-59 0 -98 -34t-39 -85q0 -50 31.5 -82.5t114.5 -42.5q93 -12 160.5 -43t103 -75.5t51.5 -91.5t16 -101 q0 -106 -48.5 -175.5t-139.5 -97.5q63 -20 97 -69t34 -117q0 -100 -86.5 -164.5t-216.5 -64.5q-113 0 -194 51t-107 158l158 30q12 -53 53 -78.5t90 -25.5q62 0 103.5 33t41.5 82q0 50 -31 81.5t-120 42.5q-94 13 -162 44.5t-104 75.5t-52 91t-16 101zM242 674 q0 -73 51 -114.5t141 -41.5q79 0 134 37.5t55 120.5q0 72 -52.5 113.5t-136.5 41.5q-47 0 -87.5 -12.5t-72.5 -49.5t-32 -95z" />
<glyph unicode="&#xa8;" horiz-adv-x="763" d="M82 1174v194h194v-194h-194zM487 1174v194h195v-194h-195z" />
<glyph unicode="&#xa9;" horiz-adv-x="1589" d="M61 721q0 140 54 272t148 234t233.5 163.5t298.5 61.5q147 0 281.5 -56t233.5 -152t157.5 -233t58.5 -290q0 -142 -53.5 -274.5t-147 -234t-232 -163t-298.5 -61.5q-197 0 -365.5 95.5t-268.5 264.5t-100 373zM223 717q0 -115 45.5 -221t122 -183.5t182.5 -123.5t222 -46 q117 0 223 46t182 123.5t121 183.5t45 221q0 117 -45 223.5t-121.5 183.5t-182 122.5t-222.5 45.5q-116 0 -222 -45.5t-182.5 -122.5t-122 -183.5t-45.5 -223.5zM391 635v166q0 77 26.5 149.5t76 131t128.5 93.5t175 35q86 0 164 -40.5t122 -108.5l-122 -90 q-18 31 -61.5 56.5t-102.5 25.5q-110 0 -168 -72.5t-58 -179.5v-166q0 -108 61 -182t167 -74q119 0 205 106l98 -108q-66 -78 -139.5 -115t-163.5 -37q-121 0 -216 59.5t-143.5 152t-48.5 198.5z" />
<glyph unicode="&#xaa;" horiz-adv-x="573" d="M53 1114q0 136 168 174q7 1 27.5 5t27.5 6t22 6.5t21 8.5t14.5 10.5t11.5 15.5t3 20q0 27 -23 40t-53 13q-81 0 -100 -67l-102 26q40 141 200 141q88 0 142.5 -43.5t54.5 -115.5v-234q0 -21 15.5 -32t37.5 -11v-106q-71 0 -107 16t-46 64q-15 -39 -54 -64.5t-82 -25.5 q-87 0 -132.5 42.5t-45.5 110.5zM180 1118q0 -25 16 -39t44 -14q48 0 78 34t30 81v53q-38 -27 -86 -39q-47 -13 -64.5 -30.5t-17.5 -45.5z" />
<glyph unicode="&#xab;" horiz-adv-x="886" d="M80 604l336 311l88 -98l-242 -217l242 -211l-88 -100zM383 604l336 311l86 -98l-242 -217l242 -211l-86 -100z" />
<glyph unicode="&#xad;" horiz-adv-x="624" d="M82 477v150h461v-150h-461z" />
<glyph unicode="&#xae;" horiz-adv-x="837" d="M53 1249q0 146 104.5 253.5t262.5 107.5q149 0 255.5 -105.5t106.5 -255.5t-103 -258t-259 -108q-152 0 -259.5 106.5t-107.5 259.5zM154 1245q0 -111 77 -189.5t189 -78.5q61 0 94 22q-49 16 -49 64v31q0 49 -57 49h-46v-96h-96v403h142q89 0 141.5 -39t52.5 -115 q0 -44 -28.5 -75t-67.5 -39q59 -15 59 -74v-27q0 -30 21 -30q15 0 30 18q68 74 68 176q0 110 -77.5 188t-186.5 78q-112 0 -189 -77.5t-77 -188.5zM362 1219h46q96 0 96 75q0 35 -25.5 55.5t-70.5 20.5h-46v-151z" />
<glyph unicode="&#xaf;" horiz-adv-x="636" d="M82 1174v141h473v-141h-473z" />
<glyph unicode="&#xb0;" horiz-adv-x="499" d="M25 1280q0 96 65.5 160.5t159.5 64.5t159.5 -64.5t65.5 -160.5q0 -91 -66 -157t-159 -66t-159 66t-66 157zM174 1280q0 -32 22 -55t54 -23q33 0 53.5 22.5t20.5 55.5q0 36 -20.5 59t-53.5 23q-32 0 -54 -23.5t-22 -58.5z" />
<glyph unicode="&#xb1;" horiz-adv-x="686" d="M82 319v125h522v-125h-522zM82 711v125h194v200h132v-200h196v-125h-196v-197h-132v197h-194z" />
<glyph unicode="&#xb2;" horiz-adv-x="526" d="M84 975l158 248q67 92 67 131q0 25 -19.5 42t-49.5 17q-18 0 -36.5 -13t-27.5 -32l-86 45q21 46 62.5 74.5t91.5 28.5q74 0 125 -44t51 -118q0 -33 -15.5 -66t-50.5 -88l-75 -117h165v-108h-360z" />
<glyph unicode="&#xb3;" horiz-adv-x="522" d="M82 1040l70 76q42 -51 90 -51q37 0 58.5 25t21.5 53q0 36 -28 57t-69 21v79q31 1 51.5 17.5t20.5 38.5q0 23 -17 40t-42 17q-36 0 -54 -35l-78 54q23 41 61 62.5t83 21.5q75 0 117.5 -40t42.5 -100q0 -71 -62 -106q46 -14 69 -52.5t23 -84.5q0 -70 -50.5 -120t-145.5 -50 q-105 0 -162 77z" />
<glyph unicode="&#xb4;" horiz-adv-x="516" d="M78 1120l133 310h217l-176 -310h-174z" />
<glyph unicode="&#xb6;" horiz-adv-x="1157" d="M74 1098q0 171 116 288t285 117h82v-813h-82q-169 0 -285 118t-116 290zM608 0v1503h172v-1503h-172zM846 176v1151q0 80 59.5 128t177.5 48v-145q-8 0 -17 -3t-21.5 -11t-20.5 -27.5t-8 -48.5v-1032q0 -49 21 -69t46 -20v-147q-120 0 -178.5 47t-58.5 129z" />
<glyph unicode="&#xb7;" horiz-adv-x="333" d="M61 510v197h211v-197h-211z" />
<glyph unicode="&#xb8;" horiz-adv-x="528" d="M66 -332l90 74q10 -31 37 -49.5t59 -18.5q23 0 39 15.5t16 38.5q0 24 -16 40t-38.5 26.5t-44.5 22.5t-38 36t-16 59q0 41 23 69.5t61 41t70.5 17.5t66.5 5v-51q-36 -3 -58.5 -16.5t-21.5 -36.5q1 -18 17 -30.5t38.5 -23.5t45.5 -26t41 -46t22 -75q6 -78 -49.5 -135.5 t-151.5 -57.5q-70 0 -124 35t-68 86z" />
<glyph unicode="&#xb9;" horiz-adv-x="358" d="M82 1315v106q34 0 64 26t30 56h100v-528h-112v366q-37 -26 -82 -26z" />
<glyph unicode="&#xba;" horiz-adv-x="587" d="M74 1196v94q0 96 55 159.5t166 63.5q107 0 163 -62.5t56 -160.5v-94q0 -95 -55 -159t-164 -64q-106 0 -163.5 62.5t-57.5 160.5zM203 1196q0 -48 22.5 -81.5t69.5 -33.5q44 0 68 34t24 81v94q0 47 -23 83t-69 36q-44 0 -68 -35t-24 -84v-94z" />
<glyph unicode="&#xbb;" horiz-adv-x="886" d="M80 389l242 211l-242 217l88 98l336 -311l-336 -315zM383 389l242 211l-242 217l86 98l336 -311l-336 -315z" />
<glyph unicode="&#xbc;" horiz-adv-x="1271" d="M82 0l977 1503h115l-979 -1503h-113zM168 1315v106q34 0 64 26t30 56h100v-528h-112v366q-37 -26 -82 -26zM739 109v77l226 342h94v-325h45v-94h-45v-109h-105v109h-215zM854 203h100v162z" />
<glyph unicode="&#xbd;" horiz-adv-x="1271" d="M82 0l977 1503h115l-979 -1503h-113zM188 1315v106q34 0 64.5 26t30.5 56h100v-528h-113v366q-37 -26 -82 -26zM764 0l158 248q67 94 67 129q0 26 -19 43.5t-50 17.5q-36 0 -62 -32l-80 55q23 37 62.5 58.5t83.5 21.5q73 0 124.5 -44.5t51.5 -117.5q0 -23 -11 -51 t-20.5 -44.5t-36.5 -60.5l-74 -114h166v-109h-360z" />
<glyph unicode="&#xbe;" horiz-adv-x="1271" d="M82 0l977 1503h115l-979 -1503h-113zM135 1040l68 76q42 -51 90 -51q37 0 59.5 25t22.5 53q0 36 -29 57t-70 21v79q31 1 52.5 17.5t21.5 38.5q0 23 -18 40t-43 17q-35 0 -53 -35l-78 54q50 84 145 84q74 0 116 -40t42 -100q0 -73 -62 -106q46 -14 69.5 -52.5t23.5 -84.5 q0 -70 -51 -120t-146 -50q-106 0 -160 77zM745 109v77l224 342h96v-325h43v-94h-43v-109h-107v109h-213zM858 203h100v162z" />
<glyph unicode="&#xbf;" horiz-adv-x="862" d="M74 -102q0 76 23 139.5t59 107.5t80.5 83t88.5 75.5t80 75.5t59 92t23 117h195q0 -90 -21 -162.5t-54 -119.5t-73 -86t-80.5 -71.5t-73.5 -65t-54 -77t-21 -98.5q0 -110 69.5 -184t178.5 -74q86 0 144.5 33.5t115.5 99.5l150 -125q-67 -108 -176 -160.5t-234 -52.5 q-112 0 -204 35.5t-151.5 97.5t-91.5 144t-32 176zM473 733v225h225v-225h-225z" />
<glyph unicode="&#xc0;" horiz-adv-x="1327" d="M47 0l528 1503h177l528 -1503h-238l-102 303h-553l-102 -303h-238zM391 1976h219l133 -311h-174zM459 516h409l-204 610z" />
<glyph unicode="&#xc1;" horiz-adv-x="1327" d="M47 0l528 1503h177l528 -1503h-238l-102 303h-553l-102 -303h-238zM459 516h409l-204 610zM586 1665l133 311h217l-176 -311h-174z" />
<glyph unicode="&#xc2;" horiz-adv-x="1327" d="M47 0l528 1503h177l528 -1503h-238l-102 303h-553l-102 -303h-238zM362 1665l197 311h211l197 -311h-176l-127 176l-127 -176h-175zM459 516h409l-204 610z" />
<glyph unicode="&#xc3;" horiz-adv-x="1327" d="M47 0l528 1503h177l528 -1503h-238l-102 303h-553l-102 -303h-238zM289 1683q0 65 23 114.5t60 76t76 39t78 12.5q54 0 101.5 -14.5t75 -31.5t60 -31.5t60.5 -14.5q35 0 58.5 17.5t31.5 45.5h123q0 -46 -10.5 -86t-33 -75.5t-64.5 -56.5t-99 -21q-65 0 -120.5 21.5 t-99 43t-79.5 21.5q-33 0 -54.5 -16.5t-26.5 -43.5h-160zM459 516h409l-204 610z" />
<glyph unicode="&#xc4;" horiz-adv-x="1327" d="M47 0l528 1503h177l528 -1503h-238l-102 303h-553l-102 -303h-238zM362 1729v194h195v-194h-195zM459 516h409l-204 610zM768 1729v194h195v-194h-195z" />
<glyph unicode="&#xc5;" horiz-adv-x="1327" d="M47 0l528 1503h177l528 -1503h-238l-102 303h-553l-102 -303h-238zM459 516h409l-204 610zM479 1821q0 79 54.5 132.5t130.5 53.5q80 0 133 -53.5t53 -132.5q0 -76 -53.5 -130.5t-132.5 -54.5q-75 0 -130 55t-55 130zM602 1821q0 -25 18.5 -44.5t43.5 -19.5q28 0 44.5 19 t16.5 45q0 30 -16 47.5t-45 17.5q-26 0 -44 -18t-18 -47z" />
<glyph unicode="&#xc6;" horiz-adv-x="1796" d="M47 0l682 1503h959v-215h-660v-420h567v-213h-567v-440h674v-215h-897v301h-381l-137 -301h-240zM512 516h293v690z" />
<glyph unicode="&#xc7;" horiz-adv-x="1253" d="M111 618v271q0 119 39 229.5t111.5 200t190 143.5t261.5 54q285 0 420 -222l-156 -129q-83 135 -262 135q-116 0 -203.5 -60t-129.5 -152t-42 -199v-271q0 -108 47 -202t135 -152.5t197 -58.5q91 0 163.5 31.5t143.5 103.5l133 -141q-99 -109 -193 -156.5t-214 -52.5 q-50 -14 -47 -49q1 -21 25 -37t52.5 -28t54.5 -47t31 -89q6 -78 -49 -135.5t-151 -57.5q-70 0 -124.5 35t-68.5 86l90 74q10 -31 37.5 -49.5t59.5 -18.5q23 0 39 15.5t16 38.5q0 24 -16 40t-38.5 26.5t-45 22.5t-38.5 36t-16 59q0 56 41 86q-149 27 -263 120.5t-172 223.5 t-58 276z" />
<glyph unicode="&#xc8;" horiz-adv-x="1144" d="M139 0v1503h897v-215h-674v-418h582v-215h-582v-440h689v-215h-912zM317 1976h218l133 -311h-174z" />
<glyph unicode="&#xc9;" horiz-adv-x="1144" d="M139 0v1503h897v-215h-674v-418h582v-215h-582v-440h689v-215h-912zM508 1663l133 311h219l-178 -311h-174z" />
<glyph unicode="&#xca;" horiz-adv-x="1144" d="M139 0v1503h897v-215h-674v-418h582v-215h-582v-440h689v-215h-912zM287 1663l196 313h211l195 -313h-174l-127 176l-125 -176h-176z" />
<glyph unicode="&#xcb;" horiz-adv-x="1144" d="M139 0v1503h897v-215h-674v-418h582v-215h-582v-440h689v-215h-912zM289 1729v194h194v-194h-194zM692 1729v194h195v-194h-195z" />
<glyph unicode="&#xcc;" horiz-adv-x="512" d="M-16 1976h217l135 -311h-176zM152 0v1503h223v-1503h-223z" />
<glyph unicode="&#xcd;" horiz-adv-x="512" d="M152 0v1503h223v-1503h-223zM168 1665l133 311h217l-174 -311h-176z" />
<glyph unicode="&#xce;" horiz-adv-x="512" d="M-45 1663l197 313h208l197 -313h-176l-125 176l-127 -176h-174zM152 0v1503h223v-1503h-223z" />
<glyph unicode="&#xcf;" horiz-adv-x="512" d="M-45 1729v194h195v-194h-195zM152 0v1503h223v-1503h-223zM358 1729v194h195v-194h-195z" />
<glyph unicode="&#xd0;" horiz-adv-x="1329" d="M94 0v215q38 4 58 27.5t20 56.5v377h-70v162h70v368q0 31 -20.5 55t-57.5 27v215h481q146 0 269.5 -53t204 -140.5t125.5 -199t45 -229.5v-273q0 -90 -25 -177.5t-75.5 -165t-121 -137t-168.5 -94t-211 -34.5h-524zM371 215h254q69 0 128.5 23t101 61.5t71 89t43.5 106.5 t14 113v273q0 74 -26 145t-74 130.5t-126.5 95.5t-174.5 36h-211q24 -36 24 -82v-368h178v-162h-178v-377q0 -52 -24 -84z" />
<glyph unicode="&#xd1;" horiz-adv-x="1351" d="M133 0v1503h170l692 -1032v1032h224v-1503h-177l-686 1034v-1034h-223zM283 1710q0 66 22.5 115t59 75.5t75.5 39t80 12.5q53 0 100 -14.5t74.5 -31.5t60.5 -31.5t62 -14.5q34 0 57 17.5t31 45.5h123q0 -45 -10.5 -85t-33 -76t-65 -57.5t-100.5 -21.5q-51 0 -97 14 t-74.5 30.5t-63 30.5t-64.5 14q-31 0 -54 -17.5t-24 -44.5h-159z" />
<glyph unicode="&#xd2;" horiz-adv-x="1394" d="M111 618v267q0 99 22 190t69 171t114 139t164.5 93.5t213.5 34.5q119 0 217 -33.5t166.5 -91.5t115.5 -138t69 -171.5t22 -193.5v-267q0 -99 -22.5 -190.5t-70 -172t-115.5 -139.5t-166 -93.5t-216 -34.5q-140 0 -252 48.5t-183.5 134t-109.5 199.5t-38 248zM340 608 q0 -81 22 -152.5t64 -128.5t111 -90.5t157 -33.5q89 0 159 33.5t113.5 90.5t66 128.5t22.5 152.5v287q0 81 -22.5 152.5t-65.5 128.5t-113.5 90.5t-159.5 33.5q-88 0 -157.5 -33.5t-111.5 -90.5t-63.5 -128.5t-21.5 -152.5v-287zM426 1976h217l133 -311h-174z" />
<glyph unicode="&#xd3;" horiz-adv-x="1394" d="M111 618v267q0 99 22 190t69 171t114 139t164.5 93.5t213.5 34.5q119 0 217 -33.5t166.5 -91.5t115.5 -138t69 -171.5t22 -193.5v-267q0 -99 -22.5 -190.5t-70 -172t-115.5 -139.5t-166 -93.5t-216 -34.5q-140 0 -252 48.5t-183.5 134t-109.5 199.5t-38 248zM340 608 q0 -81 22 -152.5t64 -128.5t111 -90.5t157 -33.5q89 0 159 33.5t113.5 90.5t66 128.5t22.5 152.5v287q0 81 -22.5 152.5t-65.5 128.5t-113.5 90.5t-159.5 33.5q-88 0 -157.5 -33.5t-111.5 -90.5t-63.5 -128.5t-21.5 -152.5v-287zM606 1665l133 311h217l-176 -311h-174z" />
<glyph unicode="&#xd4;" horiz-adv-x="1394" d="M111 618v267q0 99 22 190t69 171t114 139t164.5 93.5t213.5 34.5q119 0 217 -33.5t166.5 -91.5t115.5 -138t69 -171.5t22 -193.5v-267q0 -99 -22.5 -190.5t-70 -172t-115.5 -139.5t-166 -93.5t-216 -34.5q-140 0 -252 48.5t-183.5 134t-109.5 199.5t-38 248zM340 608 q0 -81 22 -152.5t64 -128.5t111 -90.5t157 -33.5q89 0 159 33.5t113.5 90.5t66 128.5t22.5 152.5v287q0 81 -22.5 152.5t-65.5 128.5t-113.5 90.5t-159.5 33.5q-88 0 -157.5 -33.5t-111.5 -90.5t-63.5 -128.5t-21.5 -152.5v-287zM397 1663l195 313h211l194 -313h-174 l-125 176l-127 -176h-174z" />
<glyph unicode="&#xd5;" horiz-adv-x="1394" d="M111 618v267q0 99 22 190t69 171t114 139t164.5 93.5t213.5 34.5q119 0 217 -33.5t166.5 -91.5t115.5 -138t69 -171.5t22 -193.5v-267q0 -99 -22.5 -190.5t-70 -172t-115.5 -139.5t-166 -93.5t-216 -34.5q-140 0 -252 48.5t-183.5 134t-109.5 199.5t-38 248zM322 1683 q0 65 23 114.5t60 76t76 39t78 12.5q53 0 100.5 -14.5t75 -31.5t60.5 -31.5t61 -14.5q34 0 57 17t31 46h125q0 -45 -10.5 -85.5t-33.5 -76t-65.5 -56.5t-99.5 -21q-64 0 -119 21.5t-99 43t-81 21.5q-32 0 -53.5 -16.5t-26.5 -43.5h-159zM340 608q0 -81 22 -152.5t64 -128.5 t111 -90.5t157 -33.5q89 0 159 33.5t113.5 90.5t66 128.5t22.5 152.5v287q0 81 -22.5 152.5t-65.5 128.5t-113.5 90.5t-159.5 33.5q-88 0 -157.5 -33.5t-111.5 -90.5t-63.5 -128.5t-21.5 -152.5v-287z" />
<glyph unicode="&#xd6;" horiz-adv-x="1394" d="M111 618v267q0 99 22 190t69 171t114 139t164.5 93.5t213.5 34.5q119 0 217 -33.5t166.5 -91.5t115.5 -138t69 -171.5t22 -193.5v-267q0 -99 -22.5 -190.5t-70 -172t-115.5 -139.5t-166 -93.5t-216 -34.5q-140 0 -252 48.5t-183.5 134t-109.5 199.5t-38 248zM340 608 q0 -81 22 -152.5t64 -128.5t111 -90.5t157 -33.5q89 0 159 33.5t113.5 90.5t66 128.5t22.5 152.5v287q0 81 -22.5 152.5t-65.5 128.5t-113.5 90.5t-159.5 33.5q-88 0 -157.5 -33.5t-111.5 -90.5t-63.5 -128.5t-21.5 -152.5v-287zM397 1729v194h195v-194h-195zM801 1729v194 h194v-194h-194z" />
<glyph unicode="&#xd7;" horiz-adv-x="649" d="M29 487l207 191l-205 192l88 101l209 -203l211 203l92 -99l-207 -194l205 -189l-90 -100l-211 201l-209 -201z" />
<glyph unicode="&#xd8;" horiz-adv-x="1394" d="M111 618v267q0 99 22 190t69 171t114 139t164.5 93.5t213.5 34.5q164 0 287 -63l29 53h215l-95 -168q154 -173 154 -450v-267q0 -99 -22.5 -190.5t-70 -172t-115.5 -139.5t-166 -93.5t-216 -34.5q-160 0 -278 59l-27 -47h-211l88 160q-155 175 -155 458zM340 608 q0 -127 49 -225l483 872q-76 45 -178 45q-88 0 -157.5 -33.5t-111.5 -90.5t-63.5 -128.5t-21.5 -152.5v-287zM524 242q73 -39 170 -39q89 0 159 33.5t113.5 90.5t66 128.5t22.5 152.5v287q0 117 -47 217z" />
<glyph unicode="&#xd9;" horiz-adv-x="1374" d="M133 535v968h236v-966q0 -150 82 -240t235 -90q157 0 238.5 89.5t81.5 240.5v966h235v-968q0 -255 -147 -401t-408 -146q-255 0 -404 150t-149 397zM416 1976h217l135 -311h-176z" />
<glyph unicode="&#xda;" horiz-adv-x="1374" d="M133 535v968h236v-966q0 -150 82 -240t235 -90q157 0 238.5 89.5t81.5 240.5v966h235v-968q0 -255 -147 -401t-408 -146q-255 0 -404 150t-149 397zM608 1665l133 311h217l-176 -311h-174z" />
<glyph unicode="&#xdb;" horiz-adv-x="1374" d="M133 535v968h236v-966q0 -150 82 -240t235 -90q157 0 238.5 89.5t81.5 240.5v966h235v-968q0 -255 -147 -401t-408 -146q-255 0 -404 150t-149 397zM387 1663l197 313h209l196 -313h-176l-127 176l-125 -176h-174z" />
<glyph unicode="&#xdc;" horiz-adv-x="1374" d="M133 535v968h236v-966q0 -150 82 -240t235 -90q157 0 238.5 89.5t81.5 240.5v966h235v-968q0 -255 -147 -401t-408 -146q-255 0 -404 150t-149 397zM387 1729v194h195v-194h-195zM791 1729v194h194v-194h-194z" />
<glyph unicode="&#xdd;" horiz-adv-x="1261" d="M47 1503h234l350 -667l350 667h233l-473 -872v-631h-223v635zM545 1663l131 311h219l-178 -311h-172z" />
<glyph unicode="&#xde;" horiz-adv-x="1249" d="M139 0v1503h223v-215h181q87 0 172 -19t164.5 -61t139.5 -102.5t96 -150.5t36 -199q0 -108 -34 -198t-92.5 -152t-136.5 -105.5t-165 -63.5t-180 -20h-181v-217h-223zM360 426h183q69 0 129.5 19t111 57t80 103.5t29.5 150.5q0 80 -29.5 143t-79.5 101t-111.5 57.5 t-129.5 19.5h-183v-651z" />
<glyph unicode="&#xdf;" horiz-adv-x="1241" d="M51 0v190q39 0 66.5 19.5t27.5 58.5v500h-88v190h88v136q0 192 124.5 318t308.5 126q78 0 145 -23t112.5 -60.5t77.5 -86t47 -98.5t15 -99q0 -70 -24 -127t-59.5 -91.5t-77.5 -66.5t-77.5 -55t-59.5 -54t-24 -66q0 -41 33.5 -66.5t134.5 -44.5q69 -12 126 -33.5 t106.5 -57.5t77.5 -91.5t28 -126.5q0 -95 -52 -165.5t-137.5 -105t-191.5 -34.5q-125 0 -234 77t-138 191l186 59q14 -60 67.5 -103.5t116.5 -43.5q69 0 115.5 34t46.5 89q0 54 -39 88t-119 53q-179 39 -254 97t-75 182q0 49 17.5 91.5t45 74t61 59.5t66.5 54.5t60.5 52.5 t45 59.5t17.5 70.5q0 26 -10 54.5t-30.5 57t-58.5 47t-87 18.5q-61 0 -106 -21t-70 -58t-36.5 -80.5t-11.5 -94.5v-865q0 -127 -74.5 -178t-228.5 -51z" />
<glyph unicode="&#xe0;" d="M80 252q0 116 68 195.5t225 115.5q25 6 67.5 14.5t64.5 13.5t53.5 13.5t48 17t34 20.5t24.5 27.5t7 35.5q0 47 -48 71.5t-122 24.5q-72 0 -124.5 -33.5t-80.5 -95.5l-172 55q39 114 142 180t235 66q168 0 274.5 -75.5t106.5 -203.5q0 -114 -89 -177t-300 -107 q-118 -25 -158.5 -58.5t-40.5 -89.5q0 -42 31.5 -69t79.5 -27q107 0 181.5 64t82.5 141q2 25 2 39h192v-140q0 -39 29 -59.5t68 -20.5v-190q-123 0 -193.5 33t-77.5 114v11q-31 -79 -113 -124.5t-190 -45.5q-149 0 -228 74t-79 190zM238 1430h217l133 -310h-174z" />
<glyph unicode="&#xe1;" d="M80 252q0 116 68 195.5t225 115.5q25 6 67.5 14.5t64.5 13.5t53.5 13.5t48 17t34 20.5t24.5 27.5t7 35.5q0 47 -48 71.5t-122 24.5q-72 0 -124.5 -33.5t-80.5 -95.5l-172 55q39 114 142 180t235 66q168 0 274.5 -75.5t106.5 -203.5q0 -114 -89 -177t-300 -107 q-118 -25 -158.5 -58.5t-40.5 -89.5q0 -42 31.5 -69t79.5 -27q107 0 181.5 64t82.5 141q2 25 2 39h192v-140q0 -39 29 -59.5t68 -20.5v-190q-123 0 -193.5 33t-77.5 114v11q-31 -79 -113 -124.5t-190 -45.5q-149 0 -228 74t-79 190zM428 1120l133 310h217l-176 -310h-174z " />
<glyph unicode="&#xe2;" d="M80 252q0 116 68 195.5t225 115.5q25 6 67.5 14.5t64.5 13.5t53.5 13.5t48 17t34 20.5t24.5 27.5t7 35.5q0 47 -48 71.5t-122 24.5q-72 0 -124.5 -33.5t-80.5 -95.5l-172 55q39 114 142 180t235 66q168 0 274.5 -75.5t106.5 -203.5q0 -114 -89 -177t-300 -107 q-118 -25 -158.5 -58.5t-40.5 -89.5q0 -42 31.5 -69t79.5 -27q107 0 181.5 64t82.5 141q2 25 2 39h192v-140q0 -39 29 -59.5t68 -20.5v-190q-123 0 -193.5 33t-77.5 114v11q-31 -79 -113 -124.5t-190 -45.5q-149 0 -228 74t-79 190zM209 1118l197 312h208l197 -312h-174 l-127 176l-127 -176h-174z" />
<glyph unicode="&#xe3;" d="M80 252q0 116 68 195.5t225 115.5q25 6 67.5 14.5t64.5 13.5t53.5 13.5t48 17t34 20.5t24.5 27.5t7 35.5q0 47 -48 71.5t-122 24.5q-72 0 -124.5 -33.5t-80.5 -95.5l-172 55q39 114 142 180t235 66q168 0 274.5 -75.5t106.5 -203.5q0 -114 -89 -177t-300 -107 q-118 -25 -158.5 -58.5t-40.5 -89.5q0 -42 31.5 -69t79.5 -27q107 0 181.5 64t82.5 141q2 25 2 39h192v-140q0 -39 29 -59.5t68 -20.5v-190q-123 0 -193.5 33t-77.5 114v11q-31 -79 -113 -124.5t-190 -45.5q-149 0 -228 74t-79 190zM135 1163q0 65 23 114t60 75t76 38.5 t79 12.5q53 0 100 -14.5t74.5 -31.5t60.5 -31.5t62 -14.5q33 0 56.5 18t31.5 47h123q0 -46 -10.5 -86t-33 -76.5t-65 -57.5t-100.5 -21q-64 0 -119 22t-98.5 44t-79.5 22q-33 0 -55 -16.5t-25 -43.5h-160z" />
<glyph unicode="&#xe4;" d="M80 252q0 116 68 195.5t225 115.5q25 6 67.5 14.5t64.5 13.5t53.5 13.5t48 17t34 20.5t24.5 27.5t7 35.5q0 47 -48 71.5t-122 24.5q-72 0 -124.5 -33.5t-80.5 -95.5l-172 55q39 114 142 180t235 66q168 0 274.5 -75.5t106.5 -203.5q0 -114 -89 -177t-300 -107 q-118 -25 -158.5 -58.5t-40.5 -89.5q0 -42 31.5 -69t79.5 -27q107 0 181.5 64t82.5 141q2 25 2 39h192v-140q0 -39 29 -59.5t68 -20.5v-190q-123 0 -193.5 33t-77.5 114v11q-31 -79 -113 -124.5t-190 -45.5q-149 0 -228 74t-79 190zM207 1176v196h194v-196h-194zM610 1176 v196h197v-196h-197z" />
<glyph unicode="&#xe5;" d="M80 252q0 116 68 195.5t225 115.5q25 6 67.5 14.5t64.5 13.5t53.5 13.5t48 17t34 20.5t24.5 27.5t7 35.5q0 47 -48 71.5t-122 24.5q-72 0 -124.5 -33.5t-80.5 -95.5l-172 55q39 114 142 180t235 66q168 0 274.5 -75.5t106.5 -203.5q0 -114 -89 -177t-300 -107 q-118 -25 -158.5 -58.5t-40.5 -89.5q0 -42 31.5 -69t79.5 -27q107 0 181.5 64t82.5 141q2 25 2 39h192v-140q0 -39 29 -59.5t68 -20.5v-190q-123 0 -193.5 33t-77.5 114v11q-31 -79 -113 -124.5t-190 -45.5q-149 0 -228 74t-79 190zM317 1274q0 76 55 130t130 54 q78 0 132 -53.5t54 -130.5t-54 -132t-132 -55q-75 0 -130 55.5t-55 131.5zM440 1274q0 -28 18 -47t44 -19q29 0 46 19t17 47t-17 45.5t-46 17.5q-26 0 -44 -17.5t-18 -45.5z" />
<glyph unicode="&#xe6;" horiz-adv-x="1533" d="M80 250q0 94 44.5 159.5t147.5 106.5q49 19 116 36t115 28t93.5 27t69 41t24.5 61q0 30 -17.5 51.5t-46.5 32t-55.5 14.5t-54.5 4q-79 0 -138 -34.5t-85 -100.5l-166 53q41 114 143 180t234 66q96 0 177.5 -28.5t129.5 -82.5q119 109 295 109q146 0 252 -97t106 -249 q0 -106 -67 -168t-187 -62h-329q0 -99 62.5 -165t172.5 -66q54 0 107.5 26t95.5 76l127 -129q-113 -151 -330 -151q-279 0 -391 202q-23 -88 -122 -146t-218 -58q-148 0 -226.5 74t-78.5 190zM295 260q0 -42 31 -69t77 -27q119 0 192 72t73 174v51q-68 -30 -160 -49 q-130 -29 -171.5 -61.5t-41.5 -90.5zM885 559h241q65 0 98 31t33 76q0 63 -40.5 97t-112.5 34q-91 0 -151 -69t-68 -169z" />
<glyph unicode="&#xe7;" horiz-adv-x="911" d="M82 420v119q0 82 29 158.5t83 138.5t140.5 99.5t193.5 37.5q207 0 306 -158l-152 -100q-40 78 -156 78q-109 0 -167 -75.5t-58 -176.5v-121q0 -95 62 -170.5t167 -75.5q115 0 189 74l123 -144q-111 -105 -275 -114q-52 -14 -49 -49q1 -18 17 -30.5t38.5 -23.5t45.5 -26 t41 -46t22 -75q6 -78 -49.5 -135.5t-151.5 -57.5q-70 0 -124 35t-68 86l90 74q10 -31 37 -49.5t59 -18.5q23 0 39 15.5t16 38.5q0 24 -16 40t-38 26.5t-44.5 22.5t-38.5 36t-16 59q0 55 41 88q-158 30 -247 144t-89 276z" />
<glyph unicode="&#xe8;" horiz-adv-x="950" d="M82 424v106q0 85 28 163t80.5 141t138 101t191.5 38q159 0 260 -96.5t101 -233.5q0 -115 -66 -181.5t-188 -66.5h-332q0 -23 2 -39q11 -84 74 -137t159 -53q54 0 107.5 26t95.5 76l127 -129q-117 -151 -330 -151q-111 0 -197.5 33.5t-140.5 93t-82 138t-28 171.5z M229 1430h220l131 -310h-174zM297 559h244q64 0 97.5 31t33.5 76q0 63 -40.5 97t-113.5 34q-98 0 -159.5 -66t-61.5 -172z" />
<glyph unicode="&#xe9;" horiz-adv-x="950" d="M82 424v106q0 85 28 163t80.5 141t138 101t191.5 38q159 0 260 -96.5t101 -233.5q0 -115 -66 -181.5t-188 -66.5h-332q0 -23 2 -39q11 -84 74 -137t159 -53q54 0 107.5 26t95.5 76l127 -129q-117 -151 -330 -151q-111 0 -197.5 33.5t-140.5 93t-82 138t-28 171.5z M297 559h244q64 0 97.5 31t33.5 76q0 63 -40.5 97t-113.5 34q-98 0 -159.5 -66t-61.5 -172zM422 1120l133 310h217l-176 -310h-174z" />
<glyph unicode="&#xea;" horiz-adv-x="950" d="M82 424v106q0 85 28 163t80.5 141t138 101t191.5 38q159 0 260 -96.5t101 -233.5q0 -115 -66 -181.5t-188 -66.5h-332q0 -23 2 -39q11 -84 74 -137t159 -53q54 0 107.5 26t95.5 76l127 -129q-117 -151 -330 -151q-111 0 -197.5 33.5t-140.5 93t-82 138t-28 171.5z M199 1118l196 312h211l195 -312h-174l-127 176l-127 -176h-174zM297 559h244q64 0 97.5 31t33.5 76q0 63 -40.5 97t-113.5 34q-98 0 -159.5 -66t-61.5 -172z" />
<glyph unicode="&#xeb;" horiz-adv-x="950" d="M82 424v106q0 85 28 163t80.5 141t138 101t191.5 38q159 0 260 -96.5t101 -233.5q0 -115 -66 -181.5t-188 -66.5h-332q0 -23 2 -39q11 -84 74 -137t159 -53q54 0 107.5 26t95.5 76l127 -129q-117 -151 -330 -151q-111 0 -197.5 33.5t-140.5 93t-82 138t-28 171.5z M199 1178v194h194v-194h-194zM297 559h244q64 0 97.5 31t33.5 76q0 63 -40.5 97t-113.5 34q-98 0 -159.5 -66t-61.5 -172zM602 1178v194h195v-194h-195z" />
<glyph unicode="&#xec;" horiz-adv-x="475" d="M-37 1430h215l135 -310h-176zM72 768v190q146 0 220.5 -52t74.5 -177v-729h-211v688q0 36 -23 58t-61 22z" />
<glyph unicode="&#xed;" horiz-adv-x="475" d="M72 768v190q146 0 220.5 -52t74.5 -177v-729h-211v688q0 36 -23 58t-61 22zM152 1120l133 310h217l-176 -310h-174z" />
<glyph unicode="&#xee;" horiz-adv-x="475" d="M-68 1118l197 312h209l199 -312h-177l-127 176l-127 -176h-174zM72 768v190q146 0 220.5 -52t74.5 -177v-729h-211v688q0 36 -23 58t-61 22z" />
<glyph unicode="&#xef;" horiz-adv-x="475" d="M-66 1178v194h195v-194h-195zM72 768v190q146 0 220.5 -52t74.5 -177v-729h-211v688q0 36 -23 58t-61 22zM340 1178v194h195v-194h-195z" />
<glyph unicode="&#xf0;" horiz-adv-x="1011" d="M82 408v133q0 83 25 156.5t75 134t134 96t192 35.5q53 0 110.5 -17.5t86.5 -48.5q-18 186 -132 309l-163 -123l-78 107l135 96q-82 74 -248 74v178q256 -3 404 -133l129 102l77 -106l-108 -84q121 -140 165 -315.5t44 -421.5v-172q0 -84 -25 -157.5t-74 -133.5 t-132.5 -94.5t-190.5 -34.5q-204 0 -315 117t-111 303zM301 410q0 -48 9 -88t31 -76.5t64.5 -57t102.5 -20.5q58 0 99.5 20.5t63.5 56t32 76t10 89.5v135q0 47 -9.5 87t-31 76t-63.5 57t-101 21q-109 0 -158 -70t-49 -175v-131z" />
<glyph unicode="&#xf1;" horiz-adv-x="1089" d="M72 768v190q51 0 89.5 -6t77 -21t65.5 -46.5t40 -77.5q39 76 113 121t170 45q152 0 236.5 -93t84.5 -237v-375q0 -39 24.5 -58.5t59.5 -19.5v-190q-169 0 -237 50t-68 179v414q0 62 -36.5 101.5t-94.5 39.5q-50 0 -88.5 -16.5t-63 -48t-40.5 -68t-23.5 -85t-10.5 -89 t-3 -90.5v-387h-211v688q0 36 -23 58t-61 22zM166 1163q0 52 15.5 94.5t39.5 69t56 44.5t63.5 25t62.5 7q53 0 100.5 -14.5t75 -31.5t60.5 -31.5t61 -14.5q34 0 58 18t30 47h125q0 -36 -6 -68.5t-21 -65t-38 -55.5t-59.5 -37.5t-83.5 -14.5q-65 0 -120.5 22t-99 44t-79.5 22 q-32 0 -54.5 -17t-25.5 -43h-160z" />
<glyph unicode="&#xf2;" horiz-adv-x="1011" d="M82 408v143q0 84 25 158t75 134t134 95t192 35q208 0 315 -117t107 -305v-143q0 -84 -25 -157.5t-74 -133.5t-132.5 -94.5t-190.5 -34.5q-204 0 -315 116.5t-111 303.5zM238 1430h217l133 -310h-174zM301 408q0 -62 20 -115t68.5 -90t118.5 -37q98 0 151.5 72t53.5 170 v143q0 62 -20.5 116t-68.5 92t-116 38q-99 0 -153 -72.5t-54 -173.5v-143z" />
<glyph unicode="&#xf3;" horiz-adv-x="1011" d="M82 408v143q0 84 25 158t75 134t134 95t192 35q208 0 315 -117t107 -305v-143q0 -84 -25 -157.5t-74 -133.5t-132.5 -94.5t-190.5 -34.5q-204 0 -315 116.5t-111 303.5zM301 408q0 -62 20 -115t68.5 -90t118.5 -37q98 0 151.5 72t53.5 170v143q0 62 -20.5 116t-68.5 92 t-116 38q-99 0 -153 -72.5t-54 -173.5v-143zM428 1120l135 310h217l-176 -310h-176z" />
<glyph unicode="&#xf4;" horiz-adv-x="1011" d="M82 408v143q0 84 25 158t75 134t134 95t192 35q208 0 315 -117t107 -305v-143q0 -84 -25 -157.5t-74 -133.5t-132.5 -94.5t-190.5 -34.5q-204 0 -315 116.5t-111 303.5zM207 1118l196 312h211l195 -312h-174l-125 176l-127 -176h-176zM301 408q0 -62 20 -115t68.5 -90 t118.5 -37q98 0 151.5 72t53.5 170v143q0 62 -20.5 116t-68.5 92t-116 38q-99 0 -153 -72.5t-54 -173.5v-143z" />
<glyph unicode="&#xf5;" horiz-adv-x="1011" d="M82 408v143q0 84 25 158t75 134t134 95t192 35q208 0 315 -117t107 -305v-143q0 -84 -25 -157.5t-74 -133.5t-132.5 -94.5t-190.5 -34.5q-204 0 -315 116.5t-111 303.5zM129 1163q0 65 23 114t60 75t76.5 38.5t80.5 12.5q53 0 100 -14.5t74 -31.5t59.5 -31.5t61.5 -14.5 q34 0 57 18t31 47h125q0 -46 -10.5 -86t-33 -76.5t-65 -57.5t-100.5 -21q-64 0 -119 22t-99 44t-81 22q-31 0 -54 -17t-24 -43h-162zM301 408q0 -62 20 -115t68.5 -90t118.5 -37q98 0 151.5 72t53.5 170v143q0 62 -20.5 116t-68.5 92t-116 38q-99 0 -153 -72.5t-54 -173.5 v-143z" />
<glyph unicode="&#xf6;" horiz-adv-x="1011" d="M82 408v143q0 84 25 158t75 134t134 95t192 35q208 0 315 -117t107 -305v-143q0 -84 -25 -157.5t-74 -133.5t-132.5 -94.5t-190.5 -34.5q-204 0 -315 116.5t-111 303.5zM207 1186v194h196v-194h-196zM301 408q0 -62 20 -115t68.5 -90t118.5 -37q98 0 151.5 72t53.5 170 v143q0 62 -20.5 116t-68.5 92t-116 38q-99 0 -153 -72.5t-54 -173.5v-143zM612 1186v194h195v-194h-195z" />
<glyph unicode="&#xf7;" horiz-adv-x="686" d="M82 614v121h522v-121h-522zM264 356v138h152v-138h-152zM264 856v137h152v-137h-152z" />
<glyph unicode="&#xf8;" horiz-adv-x="1011" d="M82 408v143q0 84 25 158t75 134t134 95t192 35q111 0 199 -37l22 35h182l-80 -125q99 -114 99 -295v-143q0 -84 -25 -157.5t-74 -133.5t-132.5 -94.5t-190.5 -34.5q-117 0 -201 37l-22 -37h-183l80 127q-100 109 -100 293zM301 408q0 -48 12 -91l289 455q-42 25 -94 25 q-99 0 -153 -72.5t-54 -173.5v-143zM412 188q42 -22 96 -22q98 0 151.5 72t53.5 170v143q0 41 -13 88z" />
<glyph unicode="&#xf9;" horiz-adv-x="1077" d="M55 768v190q161 0 233 -57t72 -172v-410q0 -61 37.5 -101t94.5 -40q56 0 97.5 24.5t64.5 61.5t37 92.5t18 105t4 111.5v385h211v-690q0 -35 23 -56.5t61 -21.5v-190q-50 0 -89 6t-77.5 21t-66 46t-40.5 77q-36 -76 -107 -119t-165 -43q-151 0 -237.5 94t-86.5 237v369 q0 39 -24.5 59.5t-59.5 20.5zM246 1430h217l135 -310h-176z" />
<glyph unicode="&#xfa;" horiz-adv-x="1077" d="M55 768v190q161 0 233 -57t72 -172v-410q0 -61 37.5 -101t94.5 -40q56 0 97.5 24.5t64.5 61.5t37 92.5t18 105t4 111.5v385h211v-690q0 -35 23 -56.5t61 -21.5v-190q-50 0 -89 6t-77.5 21t-66 46t-40.5 77q-36 -76 -107 -119t-165 -43q-151 0 -237.5 94t-86.5 237v369 q0 39 -24.5 59.5t-59.5 20.5zM436 1120l133 310h219l-178 -310h-174z" />
<glyph unicode="&#xfb;" horiz-adv-x="1077" d="M55 768v190q161 0 233 -57t72 -172v-410q0 -61 37.5 -101t94.5 -40q56 0 97.5 24.5t64.5 61.5t37 92.5t18 105t4 111.5v385h211v-690q0 -35 23 -56.5t61 -21.5v-190q-50 0 -89 6t-77.5 21t-66 46t-40.5 77q-36 -76 -107 -119t-165 -43q-151 0 -237.5 94t-86.5 237v369 q0 39 -24.5 59.5t-59.5 20.5zM217 1118l197 312h209l198 -312h-176l-127 176l-127 -176h-174z" />
<glyph unicode="&#xfc;" horiz-adv-x="1077" d="M55 768v190q161 0 233 -57t72 -172v-410q0 -61 37.5 -101t94.5 -40q56 0 97.5 24.5t64.5 61.5t37 92.5t18 105t4 111.5v385h211v-690q0 -35 23 -56.5t61 -21.5v-190q-50 0 -89 6t-77.5 21t-66 46t-40.5 77q-36 -76 -107 -119t-165 -43q-151 0 -237.5 94t-86.5 237v369 q0 39 -24.5 59.5t-59.5 20.5zM217 1178v194h195v-194h-195zM623 1178v194h194v-194h-194z" />
<glyph unicode="&#xfd;" horiz-adv-x="958" d="M-37 -393l92 153q35 -28 82 -28q102 0 135 75l95 226l-242 674q-22 61 -107 61v190q146 0 208.5 -36t88.5 -123l152 -504l233 663h230l-457 -1146q-56 -135 -129.5 -200t-193.5 -65q-109 0 -187 60zM373 1120l133 310h217l-176 -310h-174z" />
<glyph unicode="&#xfe;" horiz-adv-x="1099" d="M123 1348v190q150 0 222.5 -51t72.5 -176v-455q82 117 223 117q176 0 276.5 -121.5t100.5 -308.5v-107q0 -86 -27.5 -166t-78 -143t-129.5 -101t-175 -38q-67 0 -116.5 27t-73.5 63v-531h-211v1723q0 35 -23 56.5t-61 21.5zM420 313q0 -57 46 -99t116 -42q101 0 158 74 t57 190v107q0 60 -19.5 112.5t-65.5 89.5t-112 37q-80 0 -130 -73.5t-50 -147.5v-248z" />
<glyph unicode="&#xff;" horiz-adv-x="958" d="M-37 -393l92 153q35 -28 82 -28q102 0 135 75l95 226l-242 674q-22 61 -107 61v190q146 0 208.5 -36t88.5 -123l152 -504l233 663h230l-457 -1146q-56 -135 -129.5 -200t-193.5 -65q-109 0 -187 60zM150 1178v194h194v-194h-194zM555 1178v194h195v-194h-195z" />
<glyph unicode="&#x152;" horiz-adv-x="2066" d="M111 618v267q0 99 22 190t69 171t114 139t164.5 93.5t213.5 34.5q220 0 367 -112v102h897v-215h-674v-379v-24v-15h582v-215h-582v-37v-24v-379h688v-215h-911v102q-146 -114 -367 -114q-140 0 -252 48.5t-183.5 134t-109.5 199.5t-38 248zM340 608q0 -81 22 -152.5 t64 -128.5t111 -90.5t157 -33.5q89 0 159 33.5t113.5 90.5t66 128.5t22.5 152.5v287q0 81 -22.5 152.5t-65.5 128.5t-113.5 90.5t-159.5 33.5q-88 0 -157.5 -33.5t-111.5 -90.5t-63.5 -128.5t-21.5 -152.5v-287z" />
<glyph unicode="&#x153;" horiz-adv-x="1581" d="M82 408v143q0 84 25 158t75 134t134 95t192 35q210 0 317 -133q123 133 326 133q159 0 259.5 -96.5t100.5 -233.5q0 -115 -66 -181.5t-188 -66.5h-331q0 -23 2 -39q11 -84 74 -137t159 -53q117 0 203 102l127 -129q-117 -151 -330 -151q-223 0 -342 129 q-106 -129 -311 -129q-204 0 -315 116.5t-111 303.5zM301 408q0 -62 20 -115t68.5 -90t118.5 -37q97 0 150 71t55 169v2v143q0 62 -20.5 116t-68.5 92t-116 38q-99 0 -153 -72.5t-54 -173.5v-143zM928 559h243q64 0 98 31t34 76q0 63 -40.5 97t-113.5 34q-98 0 -159.5 -66 t-61.5 -172z" />
<glyph unicode="&#x178;" horiz-adv-x="1261" d="M47 1503h234l350 -667l350 667h233l-473 -872v-631h-223v635zM332 1729v194h194v-194h-194zM735 1729v194h195v-194h-195z" />
<glyph unicode="&#x2c6;" horiz-adv-x="768" d="M82 1118l199 312h208l197 -312h-176l-127 176l-127 -176h-174z" />
<glyph unicode="&#x2dc;" horiz-adv-x="913" d="M82 1182q0 65 22.5 113.5t59.5 74.5t76 38.5t79 12.5q54 0 101 -14.5t74.5 -31.5t60 -31.5t61.5 -14.5q34 0 57.5 18.5t31.5 47.5h124q0 -46 -10 -86t-32.5 -76.5t-65 -58t-100.5 -21.5q-64 0 -119 22t-99 44t-81 22q-31 0 -54 -16.5t-26 -42.5h-160z" />
<glyph unicode="&#x2000;" horiz-adv-x="1003" />
<glyph unicode="&#x2001;" horiz-adv-x="2007" />
<glyph unicode="&#x2002;" horiz-adv-x="1003" />
<glyph unicode="&#x2003;" horiz-adv-x="2007" />
<glyph unicode="&#x2004;" horiz-adv-x="669" />
<glyph unicode="&#x2005;" horiz-adv-x="501" />
<glyph unicode="&#x2006;" horiz-adv-x="334" />
<glyph unicode="&#x2007;" horiz-adv-x="334" />
<glyph unicode="&#x2008;" horiz-adv-x="250" />
<glyph unicode="&#x2009;" horiz-adv-x="401" />
<glyph unicode="&#x200a;" horiz-adv-x="111" />
<glyph unicode="&#x2010;" horiz-adv-x="624" d="M82 477v150h461v-150h-461z" />
<glyph unicode="&#x2011;" horiz-adv-x="624" d="M82 477v150h461v-150h-461z" />
<glyph unicode="&#x2012;" horiz-adv-x="624" d="M82 477v150h461v-150h-461z" />
<glyph unicode="&#x2013;" horiz-adv-x="802" d="M82 477v152h637v-152h-637z" />
<glyph unicode="&#x2014;" horiz-adv-x="1333" d="M82 477v152h1167v-152h-1167z" />
<glyph unicode="&#x2018;" horiz-adv-x="329" d="M61 1327v176h207v-196h-90q0 -75 90 -123l-39 -90q-75 30 -121.5 88.5t-46.5 144.5z" />
<glyph unicode="&#x2019;" horiz-adv-x="329" d="M61 1184q91 48 91 123h-91v196h207v-176q0 -86 -46.5 -144.5t-121.5 -88.5z" />
<glyph unicode="&#x201a;" horiz-adv-x="327" d="M61 -123q91 48 91 123h-82v197h196v-177q0 -86 -45.5 -144.5t-120.5 -88.5z" />
<glyph unicode="&#x201c;" horiz-adv-x="604" d="M61 1327v176h207v-196h-90q0 -75 90 -123l-39 -90q-75 30 -121.5 88.5t-46.5 144.5zM336 1327v176h207v-196h-90q0 -75 90 -123l-39 -90q-75 30 -121.5 88.5t-46.5 144.5z" />
<glyph unicode="&#x201d;" horiz-adv-x="604" d="M61 1184q91 48 91 123h-91v196h207v-176q0 -86 -46.5 -144.5t-121.5 -88.5zM336 1184q90 48 90 123h-90v196h207v-176q0 -86 -46.5 -144.5t-121.5 -88.5z" />
<glyph unicode="&#x201e;" horiz-adv-x="604" d="M61 0v197h207v-177q0 -86 -46.5 -144.5t-121.5 -88.5l-39 90q91 48 91 123h-91zM336 0v197h207v-177q0 -86 -46.5 -144.5t-121.5 -88.5l-39 90q90 48 90 123h-90z" />
<glyph unicode="&#x2022;" horiz-adv-x="432" d="M61 539q0 63 45 108t107 45q65 0 111.5 -45t46.5 -108q0 -64 -46.5 -109t-111.5 -45q-62 0 -107 45t-45 109z" />
<glyph unicode="&#x2026;" horiz-adv-x="942" d="M61 0v197h211v-197h-211zM367 0v197h211v-197h-211zM670 0v197h211v-197h-211z" />
<glyph unicode="&#x202f;" horiz-adv-x="401" />
<glyph unicode="&#x2039;" horiz-adv-x="622" d="M100 604l336 311l86 -96l-239 -219l239 -213l-86 -98z" />
<glyph unicode="&#x203a;" horiz-adv-x="622" d="M100 387l240 213l-240 219l86 96l336 -311l-336 -315z" />
<glyph unicode="&#x205f;" horiz-adv-x="501" />
<glyph unicode="&#x20ac;" horiz-adv-x="1329" d="M55 549v147h162v88h-133v146h135q7 114 47 218.5t107 187t168 131.5t221 49q151 0 257.5 -52t182.5 -170l-151 -125q-34 56 -99 97t-161 41q-146 0 -232 -108t-96 -269h387v-146h-391v-88h364v-147h-350q18 -153 101.5 -251.5t218.5 -98.5q89 0 162 34.5t145 114.5 l135 -147q-103 -117 -207.5 -165t-243.5 -48q-115 0 -216 46t-171.5 123.5t-116 178.5t-57.5 213h-168z" />
<glyph unicode="&#x2122;" horiz-adv-x="987" d="M53 1384v119h369v-119h-121v-409h-129v409h-119zM475 975v528h100l127 -192l127 192h105v-528h-129v276l-103 -145l-100 145v-276h-127z" />
<glyph unicode="&#x25fc;" horiz-adv-x="962" d="M0 0v963h963v-963h-963z" />
</font>
</defs>
</svg>
